<svg width="92" height="92" viewBox="0 0 92 92" fill="none" xmlns="http://www.w3.org/2000/svg">
<g clip-path="url(#clip0_1_2)">
<path d="M31.2358 27.7103C28.4781 26.232 32.671 17.6106 38.7125 15.2618C44.7566 12.9136 52.4222 16.9924 54.647 24.0244C56.8745 31.0569 61.0852 33.7801 61.0852 33.7801C61.0852 33.7801 39.2829 32.0242 31.2358 27.7103Z" fill="#592F72"/>
<path d="M40.0993 31.4871C40.0993 31.4871 36.9391 24.3822 42.864 22.4551C48.789 20.528 46.5659 18.1059 52.7916 16.8223C59.0195 15.5417 64.9905 23.1649 60.3275 32.388C60.3301 32.3885 50.0795 34.3089 40.0993 31.4871Z" fill="#FFB5C3"/>
<path fill-rule="evenodd" clip-rule="evenodd" d="M47.8257 6.86643C47.8817 6.85501 47.9382 6.88872 47.9518 6.9417L47.8503 6.96236L47.7489 6.98303C47.7353 6.93004 47.7696 6.87784 47.8257 6.86643ZM47.8503 6.96236C47.7489 6.98303 47.7489 6.983 47.7489 6.98303L47.7491 6.98387L47.7498 6.98669L47.7527 6.99818C47.7553 7.00844 47.7591 7.02385 47.7641 7.04427C47.774 7.08513 47.7885 7.14607 47.8068 7.226C47.8433 7.38585 47.8948 7.62164 47.9543 7.92466C48.0734 8.53071 48.2248 9.40553 48.3537 10.4794C48.6117 12.6274 48.7796 15.5701 48.4202 18.7501C48.4142 18.8038 48.4557 18.8531 48.5131 18.8603C48.5704 18.8674 48.6218 18.8296 48.6279 18.7759C48.9893 15.5779 48.8203 12.6202 48.5612 10.4625C48.4316 9.38343 48.2795 8.50397 48.1596 7.89396C48.0997 7.58895 48.0478 7.35127 48.0109 7.18966C47.9924 7.10885 47.9777 7.04706 47.9676 7.00537C47.9625 6.98452 47.9586 6.9687 47.9559 6.95805L47.9529 6.94595L47.9521 6.94284L47.9518 6.9417C47.9518 6.94164 47.9518 6.9417 47.8503 6.96236Z" fill="#592F72"/>
<path fill-rule="evenodd" clip-rule="evenodd" d="M44.6427 8.20211C44.6817 8.16318 44.7477 8.16217 44.7902 8.19988L44.7196 8.27038L44.649 8.34089C44.6065 8.30318 44.6037 8.24105 44.6427 8.20211ZM44.7196 8.27038C44.649 8.34089 44.649 8.34087 44.649 8.34089L44.6505 8.3422L44.6547 8.3459L44.671 8.36023C44.6853 8.37279 44.7065 8.3913 44.7341 8.41519C44.7894 8.46296 44.8704 8.53228 44.9735 8.61873C45.1797 8.79159 45.4747 9.03304 45.8301 9.30767C46.5403 9.85645 47.4943 10.5398 48.4646 11.0729C48.5149 11.1006 48.5785 11.0852 48.6066 11.0386C48.6347 10.992 48.6167 10.9318 48.5663 10.9041C47.6102 10.3788 46.6663 9.70305 45.9602 9.15738C45.6074 8.88479 45.3146 8.64516 45.1101 8.47377C45.0079 8.38808 44.9278 8.31946 44.8733 8.27234C44.846 8.24878 44.8252 8.23059 44.8112 8.21833L44.7954 8.20445L44.7915 8.20098L44.7902 8.19988L44.7196 8.27038Z" fill="#592F72"/>
<path fill-rule="evenodd" clip-rule="evenodd" d="M44.6225 11.4459C44.6225 11.4459 44.6225 11.4459 44.6225 11.4459L44.6237 11.447L44.6279 11.4504C44.6316 11.4534 44.6372 11.458 44.6447 11.4641C44.6596 11.4762 44.6819 11.4941 44.711 11.5174C44.7694 11.5638 44.8553 11.6312 44.9652 11.7147C45.1852 11.8818 45.501 12.1133 45.8842 12.3705C46.6514 12.8855 47.6846 13.5009 48.7554 13.9098C48.8093 13.9304 48.8364 13.9877 48.8159 14.0379C48.7955 14.088 48.7352 14.112 48.6813 14.0914C47.5882 13.674 46.5395 13.0485 45.7659 12.5292C45.3786 12.2692 45.0593 12.0352 44.8366 11.8661C44.7253 11.7815 44.6381 11.7131 44.5786 11.6658C44.5488 11.6421 44.526 11.6237 44.5106 11.6111C44.5029 11.6049 44.497 11.6001 44.493 11.5968L44.4885 11.5931L44.487 11.5918C44.4869 11.5918 44.4868 11.5917 44.5546 11.5188L44.487 11.5918C44.4431 11.5555 44.4378 11.4934 44.4753 11.4531C44.5127 11.4128 44.5786 11.4096 44.6225 11.4459Z" fill="#592F72"/>
<path fill-rule="evenodd" clip-rule="evenodd" d="M47.3268 13.2756C47.3492 13.3261 47.3243 13.383 47.2711 13.4028C46.7777 13.586 46.1748 13.7468 45.6974 13.8615C45.4583 13.919 45.2497 13.9651 45.1009 13.9968C45.0265 14.0127 44.967 14.025 44.9261 14.0333C44.9056 14.0375 44.8897 14.0407 44.879 14.0428L44.8667 14.0452L44.8625 14.0461C44.8625 14.0461 44.8624 14.0461 44.8402 13.9565L44.8625 14.0461C44.8064 14.057 44.7501 14.0229 44.737 13.9698C44.7238 13.9167 44.7587 13.8648 44.8148 13.8539L44.8187 13.8531L44.8306 13.8507C44.841 13.8487 44.8566 13.8455 44.8768 13.8414C44.9171 13.8332 44.976 13.8211 45.0496 13.8054C45.197 13.7739 45.4037 13.7282 45.6407 13.6713C46.1156 13.5572 46.7087 13.3987 47.19 13.22C47.2431 13.2002 47.3044 13.2251 47.3268 13.2756Z" fill="#592F72"/>
<path fill-rule="evenodd" clip-rule="evenodd" d="M47.174 15.6217C47.2189 15.5887 47.2846 15.5969 47.3209 15.6399L48.7303 17.3137C48.7665 17.3567 48.7595 17.4183 48.7147 17.4512C48.6698 17.4842 48.6041 17.476 48.5679 17.433L47.1585 15.7592C47.1222 15.7162 47.1292 15.6546 47.174 15.6217Z" fill="#592F72"/>
<path fill-rule="evenodd" clip-rule="evenodd" d="M50.8026 14.1334C50.8453 14.171 50.8483 14.2331 50.8095 14.2722L50.7323 14.2042L50.6551 14.1362C50.694 14.0971 50.76 14.0959 50.8026 14.1334ZM50.6551 14.1362L50.7323 14.2042C50.8095 14.2722 50.8095 14.2722 50.8095 14.2722L50.806 14.2757L50.7959 14.2858C50.787 14.2947 50.7739 14.3077 50.757 14.3244C50.7232 14.3579 50.674 14.4062 50.6123 14.4659C50.489 14.5852 50.3158 14.7499 50.1161 14.9315C49.718 15.2935 49.2098 15.7273 48.7808 16.0014C48.7337 16.0315 48.6685 16.0193 48.6353 15.9742C48.602 15.9291 48.6132 15.8682 48.6603 15.8381C49.074 15.5738 49.5718 15.1498 49.9689 14.7887C50.1668 14.6087 50.3385 14.4455 50.4607 14.3272C50.5218 14.2681 50.5705 14.2203 50.6039 14.1872C50.6206 14.1707 50.6334 14.1579 50.6421 14.1493L50.6519 14.1395L50.6551 14.1362Z" fill="#592F72"/>
<path fill-rule="evenodd" clip-rule="evenodd" d="M49.9634 11.8831C50.0083 11.9183 50.0152 11.9803 49.979 12.0215L49.8978 11.9578L49.8166 11.8941C49.8529 11.8529 49.9186 11.848 49.9634 11.8831ZM49.8166 11.8941L49.8978 11.9578L49.979 12.0215L49.971 12.0306L49.948 12.0566C49.928 12.0792 49.8988 12.1121 49.8623 12.1531C49.7891 12.2352 49.6862 12.3501 49.5671 12.481C49.3291 12.7427 49.0258 13.0698 48.7662 13.3291C48.7272 13.368 48.6611 13.369 48.6187 13.3313C48.5762 13.2936 48.5734 13.2315 48.6124 13.1926C48.8686 12.9367 49.1694 12.6123 49.4068 12.3512C49.5254 12.2208 49.6279 12.1065 49.7007 12.0248C49.7372 11.9839 49.7662 11.9512 49.786 11.9287L49.8088 11.903L49.8166 11.8941Z" fill="#592F72"/>
<path fill-rule="evenodd" clip-rule="evenodd" d="M51.5088 8.89284C51.5544 8.92714 51.5628 8.98897 51.5275 9.03093L51.4449 8.96882C51.5275 9.03093 51.5275 9.03091 51.5275 9.03093L51.5264 9.03223L51.5234 9.03573L51.5119 9.04917C51.5019 9.06092 51.4869 9.07818 51.4675 9.10043C51.4285 9.14492 51.3712 9.20936 51.2975 9.2896C51.1502 9.45003 50.9373 9.67376 50.6746 9.92741C50.1499 10.4341 49.4234 11.063 48.6213 11.5449C48.5733 11.5738 48.5085 11.5599 48.4766 11.5141C48.4446 11.4682 48.4576 11.4076 48.5056 11.3787C49.2894 10.9078 50.0036 10.2902 50.5232 9.7886C50.7826 9.53811 50.9927 9.31724 51.1379 9.15912C51.2105 9.08008 51.2668 9.01675 51.3049 8.97329C51.3239 8.95156 51.3384 8.9348 51.348 8.92353L51.3589 8.91081L51.3616 8.90766L51.3624 8.90674" fill="#592F72"/>
<path fill-rule="evenodd" clip-rule="evenodd" d="M49.5009 9.1427C49.5546 9.16387 49.581 9.22147 49.5599 9.27137L49.4628 9.23306C49.5599 9.27137 49.5599 9.27135 49.5599 9.27137L49.5598 9.27166L49.5595 9.27228L49.5586 9.27448L49.555 9.2827C49.5519 9.28982 49.5473 9.30018 49.5413 9.31346C49.5293 9.34001 49.5115 9.37826 49.4884 9.42563C49.4421 9.52031 49.374 9.65171 49.2868 9.79912C49.1132 10.0923 48.8596 10.4557 48.545 10.7172C48.5024 10.7527 48.4364 10.7481 48.3975 10.7071C48.3587 10.6661 48.3618 10.6041 48.4044 10.5687C48.6938 10.3281 48.9342 9.98649 49.1037 9.70025C49.1879 9.55795 49.2536 9.43103 49.2982 9.33982C49.3205 9.29424 49.3375 9.25765 49.3488 9.2326C49.3545 9.22008 49.3587 9.21044 49.3615 9.20402L49.3647 9.19684L49.3654 9.19513L49.3656 9.19476" fill="#592F72"/>
<path fill-rule="evenodd" clip-rule="evenodd" d="M49.6202 10.6565C49.6202 10.6565 49.6202 10.6565 49.6202 10.6565L49.6209 10.6567L49.623 10.6574L49.6319 10.6604C49.6399 10.6631 49.6518 10.667 49.6675 10.6722C49.6989 10.6825 49.7454 10.6976 49.8054 10.7164C49.9255 10.7541 50.0997 10.8069 50.3157 10.8673C50.7478 10.988 51.346 11.1385 52.0111 11.258C52.068 11.2682 52.1066 11.3196 52.0972 11.3728C52.0878 11.4261 52.0341 11.4609 51.9772 11.4507C51.3033 11.3297 50.6979 11.1774 50.2611 11.0553C50.0426 10.9943 49.8661 10.9407 49.744 10.9024C49.683 10.8833 49.6355 10.8679 49.6033 10.8573C49.5871 10.852 49.5748 10.8479 49.5664 10.8451L49.5569 10.8419L49.5544 10.841L49.5535 10.8407C49.5535 10.8407 49.5535 10.8407 49.5868 10.7486L49.5535 10.8407C49.4989 10.822 49.4695 10.7656 49.4879 10.7148C49.5064 10.6639 49.5656 10.6378 49.6202 10.6565Z" fill="#592F72"/>
<path d="M45.514 7.89759C45.2854 7.48001 44.7424 7.30712 44.3041 7.51102C43.8657 7.71492 43.6961 8.221 43.9247 8.63858C44.1532 9.05616 44.6963 9.22905 45.1346 9.02514C45.5735 8.81877 45.7426 8.31516 45.514 7.89759Z" fill="#605575"/>
<path fill-rule="evenodd" clip-rule="evenodd" d="M44.255 7.42349C44.7443 7.1959 45.3505 7.38869 45.6058 7.85517C45.8611 8.32149 45.6721 8.8836 45.1825 9.1138L45.1821 9.11398C44.6929 9.34157 44.0867 9.14878 43.8313 8.68229C43.5762 8.21621 43.7654 7.65127 44.255 7.42349ZM45.4207 7.9413C45.2189 7.57263 44.739 7.41964 44.3516 7.59986C43.9646 7.77988 43.8145 8.2271 44.0165 8.59617C44.2183 8.96478 44.698 9.11778 45.0854 8.9377C45.4734 8.75509 45.6226 8.31007 45.4207 7.9413Z" fill="#605575"/>
<path d="M45.2486 11.6987C45.3969 11.2586 45.1342 10.7793 44.6619 10.6282C44.1896 10.4771 43.6865 10.7115 43.5382 11.1516C43.3899 11.5917 43.6526 12.071 44.1249 12.2221C44.5972 12.3732 45.1003 12.1388 45.2486 11.6987Z" fill="#FFF9EF"/>
<path fill-rule="evenodd" clip-rule="evenodd" d="M43.6377 11.1847C43.5067 11.5735 43.7387 11.997 44.156 12.1305C44.5733 12.2639 45.0178 12.0569 45.1488 11.668C45.2798 11.2792 45.0478 10.8557 44.6305 10.7222C44.2132 10.5887 43.7687 10.7958 43.6377 11.1847ZM44.0935 12.3161C43.5661 12.1474 43.2729 11.6123 43.4384 11.1209C43.604 10.6295 44.1657 10.3679 44.693 10.5366C45.2203 10.7053 45.5136 11.2403 45.348 11.7318C45.1825 12.2232 44.6208 12.4848 44.0935 12.3161Z" fill="#FFF9EF"/>
<path d="M52.242 8.59754C52.0134 8.17996 51.4704 8.00707 51.032 8.21097C50.5937 8.41487 50.4241 8.92096 50.6526 9.33853C50.8812 9.75611 51.4243 9.929 51.8626 9.7251C52.3009 9.52119 52.47 9.01759 52.242 8.59754Z" fill="#605575"/>
<path fill-rule="evenodd" clip-rule="evenodd" d="M50.9816 8.12344C51.4708 7.89585 52.077 8.08864 52.3324 8.55513L52.3326 8.55542C52.5868 9.02368 52.3985 9.58608 51.9087 9.81393C51.4195 10.0415 50.8133 9.84873 50.5579 9.38224C50.3028 8.91617 50.4919 8.35122 50.9816 8.12344ZM52.1472 8.64111C51.9453 8.27254 51.4655 8.11962 51.0781 8.29981C50.6911 8.47983 50.541 8.92705 50.7431 9.29612C50.9449 9.66479 51.4247 9.81778 51.8122 9.63756C52.199 9.45763 52.3489 9.01291 52.1472 8.64111Z" fill="#605575"/>
<path d="M50.2584 8.8624C50.0298 8.44482 49.4868 8.27193 49.0484 8.47584C48.6101 8.67974 48.4405 9.18582 48.6691 9.60339C48.8976 10.021 49.4407 10.1939 49.879 9.98996C50.3173 9.78606 50.487 9.27998 50.2584 8.8624Z" fill="#FFF9EF"/>
<path fill-rule="evenodd" clip-rule="evenodd" d="M48.9993 8.38828C49.4885 8.1607 50.0947 8.35349 50.3501 8.81997C50.6052 9.28605 50.4161 9.851 49.9264 10.0788C49.4372 10.3064 48.831 10.1136 48.5756 9.64709C48.3205 9.18101 48.5096 8.61607 48.9993 8.38828ZM50.165 8.9061C49.9631 8.53742 49.4833 8.38444 49.0958 8.56466C48.7088 8.74468 48.5587 9.19189 48.7608 9.56097C48.9626 9.92964 49.4424 10.0826 49.8299 9.90241C50.2169 9.72239 50.367 9.27517 50.165 8.9061Z" fill="#FFF9EF"/>
<path d="M52.7879 10.9812C52.5594 10.5636 52.0163 10.3907 51.578 10.5946C51.1396 10.7985 50.97 11.3046 51.1986 11.7222C51.4272 12.1397 51.9702 12.3126 52.4086 12.1087C52.8469 11.9048 53.016 11.4012 52.7879 10.9812Z" fill="#FFF9EF"/>
<path fill-rule="evenodd" clip-rule="evenodd" d="M51.5288 10.5071C52.0181 10.2795 52.6243 10.4723 52.8796 10.9387L52.8798 10.939C53.1341 11.4073 52.9458 11.9697 52.456 12.1976C51.9667 12.4251 51.3605 12.2323 51.1052 11.7659C50.85 11.2998 51.0392 10.7348 51.5288 10.5071ZM52.6944 11.0247C52.4926 10.6562 52.0128 10.5032 51.6254 10.6834C51.2384 10.8635 51.0883 11.3107 51.2903 11.6797C51.4921 12.0484 51.972 12.2014 52.3594 12.0212C52.7462 11.8413 52.8962 11.3965 52.6944 11.0247Z" fill="#FFF9EF"/>
<path d="M45.6343 13.5783C45.4057 13.1607 44.8627 12.9878 44.4244 13.1917C43.986 13.3956 43.8164 13.9017 44.045 14.3193C44.2735 14.7369 44.8166 14.9098 45.2549 14.7059C45.6938 14.4995 45.8629 13.9959 45.6343 13.5783Z" fill="#605575"/>
<path fill-rule="evenodd" clip-rule="evenodd" d="M44.3752 13.1042C44.8645 12.8766 45.4707 13.0694 45.726 13.5359C45.9813 14.0022 45.7922 14.5643 45.3027 14.7945L45.3023 14.7947C44.8131 15.0223 44.2069 14.8295 43.9515 14.363C43.6964 13.8969 43.8855 13.332 44.3752 13.1042ZM45.5409 13.622C45.3391 13.2533 44.8592 13.1003 44.4718 13.2806C44.0848 13.4606 43.9346 13.9078 44.1367 14.2769C44.3384 14.6455 44.8182 14.7985 45.2056 14.6184C45.5936 14.4358 45.7427 13.9908 45.5409 13.622Z" fill="#605575"/>
<path d="M48.8369 6.44094C48.6083 6.02336 48.0653 5.85047 47.6269 6.05437C47.1886 6.25827 47.019 6.76435 47.2475 7.18193C47.4761 7.59951 48.0192 7.7724 48.4575 7.56849C48.8958 7.36459 49.065 6.86098 48.8369 6.44094Z" fill="#605575"/>
<path fill-rule="evenodd" clip-rule="evenodd" d="M47.5778 5.96952C48.067 5.74194 48.6732 5.93473 48.9286 6.40121L48.9287 6.40151C49.183 6.86977 48.9947 7.43217 48.5049 7.66002C48.0157 7.8876 47.4094 7.69481 47.1541 7.22833C46.899 6.76225 47.0881 6.1973 47.5778 5.96952ZM48.7434 6.48719C48.5415 6.11862 48.0617 5.9657 47.6743 6.1459C47.2873 6.32592 47.1372 6.77313 47.3392 7.14221C47.541 7.51088 48.0209 7.66386 48.4084 7.48364C48.7952 7.30371 48.9451 6.859 48.7434 6.48719Z" fill="#605575"/>
<path d="M50.6935 11.5919C50.4649 11.1744 49.9218 11.0015 49.4835 11.2054C49.0452 11.4093 48.8755 11.9154 49.1041 12.3329C49.3327 12.7505 49.8757 12.9234 50.3141 12.7195C50.7529 12.5131 50.922 12.0095 50.6935 11.5919Z" fill="#605575"/>
<path fill-rule="evenodd" clip-rule="evenodd" d="M49.4344 11.1151C49.9237 10.8875 50.5299 11.0803 50.7852 11.5468C51.0405 12.0131 50.8514 12.5752 50.3619 12.8054L50.3615 12.8056C49.8723 13.0332 49.2661 12.8404 49.0107 12.3739C48.7556 11.9078 48.9447 11.3429 49.4344 11.1151ZM50.6001 11.6329C50.3983 11.2643 49.9184 11.1113 49.531 11.2915C49.144 11.4715 48.9938 11.9187 49.1959 12.2878C49.3976 12.6564 49.8774 12.8094 50.2648 12.6293C50.6528 12.4467 50.8019 12.0017 50.6001 11.6329Z" fill="#605575"/>
<path d="M48.5107 9.11044C48.2258 8.59122 47.5536 8.37646 47.0086 8.63064C46.4635 8.88482 46.2528 9.51124 46.5377 10.0305C46.8226 10.5497 47.4948 10.7645 48.0398 10.5103C48.5822 10.2556 48.7929 9.62913 48.5107 9.11044Z" fill="#605575"/>
<path fill-rule="evenodd" clip-rule="evenodd" d="M46.9593 8.54315C47.5554 8.26513 48.2907 8.50005 48.6023 9.06795L48.6024 9.06825C48.9111 9.63544 48.6807 10.3204 48.0875 10.599L48.0872 10.5991C47.4911 10.8771 46.7558 10.6422 46.4442 10.0743C46.1326 9.50636 46.3632 8.82116 46.9593 8.54315ZM48.4172 9.15412C48.1589 8.68365 47.5499 8.48912 47.056 8.71944C46.5621 8.9498 46.3711 9.51744 46.6293 9.98798C46.8875 10.4585 47.4965 10.6531 47.9904 10.4228C48.4818 10.192 48.6729 9.62424 48.4172 9.15412Z" fill="#605575"/>
<path d="M48.3804 12.0448C48.0794 11.4965 47.3659 11.2681 46.7904 11.5367C46.2149 11.8052 45.9913 12.4676 46.2918 13.0184C46.5928 13.5667 47.3063 13.795 47.8818 13.5265C48.4599 13.2585 48.6841 12.5936 48.3804 12.0448Z" fill="#FFF9EF"/>
<path fill-rule="evenodd" clip-rule="evenodd" d="M46.7413 11.4492C47.3679 11.1568 48.1444 11.4053 48.4721 12.0021C48.8027 12.5998 48.5585 13.3235 47.9293 13.6153C47.3026 13.9076 46.5262 13.659 46.1985 13.0622L46.1984 13.062C45.8714 12.4627 46.1147 11.7416 46.7413 11.4492ZM48.2872 12.0886C48.0128 11.5889 47.3624 11.3808 46.8381 11.6255C46.3137 11.8701 46.1097 12.4738 46.3836 12.976C46.658 13.4756 47.3084 13.6836 47.8326 13.439L47.8329 13.4389C48.3598 13.1946 48.5639 12.5887 48.2873 12.0889L48.2872 12.0886Z" fill="#FFF9EF"/>
<path d="M48.2831 15.2175C47.9821 14.6692 47.2686 14.4409 46.6931 14.7094C46.1176 14.978 45.894 15.6404 46.1945 16.1911C46.4955 16.7394 47.209 16.9678 47.7845 16.6992C48.3631 16.4287 48.5841 15.7658 48.2831 15.2175Z" fill="#FFF9EF"/>
<path fill-rule="evenodd" clip-rule="evenodd" d="M46.6454 14.6219C47.272 14.3295 48.0486 14.5781 48.3762 15.175C48.7039 15.7719 48.4632 16.4936 47.8335 16.788L47.8335 16.788C47.2068 17.0804 46.4302 16.8318 46.1026 16.235L46.1025 16.2347C45.7755 15.6354 46.0187 14.9143 46.6454 14.6219ZM48.1912 15.2613C47.9169 14.7616 47.2664 14.5536 46.7421 14.7982C46.2178 15.0429 46.0137 15.6466 46.2877 16.1488C46.562 16.6483 47.2124 16.8564 47.7367 16.6117C48.2642 16.3651 48.4655 15.7609 48.1912 15.2613Z" fill="#FFF9EF"/>
<path d="M51.7762 13.7122C51.4752 13.1639 50.7643 12.9361 50.1862 13.2041C49.6107 13.4727 49.387 14.1351 49.6875 14.6858C49.9885 15.2341 50.702 15.4625 51.2775 15.1939C51.8535 14.9229 52.0772 14.2605 51.7762 13.7122Z" fill="#605575"/>
<path fill-rule="evenodd" clip-rule="evenodd" d="M50.1359 13.1192C50.765 12.8276 51.5388 13.0754 51.8665 13.6724C52.1944 14.2696 51.9506 14.9905 51.3241 15.2852L51.3238 15.2854C50.6971 15.5778 49.9205 15.3292 49.5929 14.7323L49.5927 14.7321C49.2658 14.1328 49.509 13.4117 50.1356 13.1193L50.1359 13.1192L50.1359 13.1192ZM50.2323 13.2957C49.708 13.5404 49.5041 14.144 49.778 14.6461C50.0523 15.1457 50.7026 15.3537 51.2269 15.1092C51.7523 14.8619 51.9556 14.258 51.6815 13.7587C51.4073 13.2592 50.7595 13.0514 50.2323 13.2957Z" fill="#605575"/>
<path fill-rule="evenodd" clip-rule="evenodd" d="M57.2189 8.5986C57.2562 8.55815 57.2506 8.49612 57.2066 8.46005ZM57.2189 8.5986L57.2184 8.59915L57.2166 8.60114L57.2091 8.60948C57.2024 8.61695 57.1923 8.62823 57.1791 8.64321C57.1528 8.67317 57.1142 8.71793 57.0652 8.77661C56.9674 8.89398 56.8285 9.06698 56.6653 9.2886C56.3387 9.73195 55.9151 10.3692 55.5275 11.1442C54.7513 12.6961 54.124 14.7899 54.6925 16.9836C54.7062 17.0366 54.6719 17.0888 54.6159 17.1003C54.5599 17.1119 54.5034 17.0782 54.4897 17.0253C53.9052 14.7702 54.552 12.6285 55.3381 11.0569C55.7316 10.2703 56.1612 9.62387 56.4926 9.17401C56.6583 8.94901 56.7996 8.77301 56.8996 8.65303C56.9496 8.59303 56.9894 8.54703 57.0167 8.5159C57.0304 8.50033 57.0409 8.48848 57.0482 8.48046L57.0564 8.47131L57.0586 8.46891L57.0594 8.46807C57.0594 8.46802 57.0595 8.46798 57.1392 8.53329L57.0594 8.46807C57.0966 8.42762 57.1626 8.42397 57.2066 8.46005" fill="#592F72"/>
<path d="M57.2502 6.74245L58.2409 5.69618L58.0254 6.7903L59.0327 6.36288L58.6949 7.35473L59.8246 7.02958L58.8338 8.07586C59.0057 8.64923 58.8811 9.28554 58.4356 9.75322C57.7366 10.4909 56.5174 10.5402 55.7165 9.86396C54.9129 9.18714 54.8282 8.03933 55.5267 7.30409C55.9701 6.8334 56.6255 6.64557 57.2502 6.74245Z" fill="#605575"/>
<path fill-rule="evenodd" clip-rule="evenodd" d="M58.2883 5.60816C58.3307 5.62841 58.3542 5.67247 58.3457 5.71575L58.1672 6.6215L58.9898 6.27249C59.0274 6.25656 59.072 6.26337 59.1034 6.28982C59.1348 6.31627 59.1469 6.35732 59.1343 6.39428L58.8585 7.20409L59.7937 6.93492C59.8384 6.92207 59.8874 6.93912 59.9135 6.97655C59.9396 7.01398 59.9363 7.06255 59.9055 7.09515L58.9512 8.10293C59.1096 8.69283 58.9729 9.33957 58.5164 9.81891C57.7796 10.5964 56.4945 10.6485 55.65 9.93548M57.2099 6.63685L58.1642 5.6291C58.1951 5.59649 58.2459 5.58792 58.2883 5.60816M58.0711 6.02648L57.331 6.80802C57.3079 6.83247 57.2729 6.84394 57.2379 6.83852C56.6462 6.74675 56.0267 6.92475 55.6078 7.36947L55.6075 7.36977C54.947 8.06498 55.027 9.15065 55.7871 9.7909L55.7872 9.79098C56.5445 10.4304 57.6977 10.384 58.359 9.68612L58.3591 9.68594C58.78 9.24408 58.8983 8.64244 58.7355 8.0994C58.7259 8.06729 58.734 8.03321 58.7571 8.00878L59.4974 7.22698L58.7299 7.44788C58.6927 7.4586 58.6516 7.4486 58.6237 7.422C58.5957 7.3954 58.5856 7.35669 58.5975 7.32182L58.8624 6.54401L58.0725 6.87917C58.0371 6.8942 57.9951 6.88905 57.964 6.86585C57.9328 6.84265 57.9177 6.80532 57.9248 6.76922L58.0711 6.02648Z" fill="#605575"/>
<path d="M52.8353 21.9197C56.084 22.5842 59.2213 20.6607 59.8426 17.6234C60.4639 14.586 58.334 11.5851 55.0853 10.9205C51.8366 10.256 48.6993 12.1795 48.078 15.2168C47.4567 18.2542 49.5866 21.2551 52.8353 21.9197Z" fill="#B994DA"/>
<path fill-rule="evenodd" clip-rule="evenodd" d="M55.0675 11.0144C51.8754 10.3614 48.7929 12.2514 48.1824 15.2358C47.5719 18.2201 49.6647 21.1688 52.8568 21.8217C56.0488 22.4747 59.1314 20.5847 59.7419 17.6003C60.3523 14.616 58.2596 11.6673 55.0675 11.0144ZM47.9773 15.1938C48.6094 12.1035 51.8014 10.1465 55.1067 10.8226C58.412 11.4987 60.5791 14.552 59.9469 17.6423C59.3148 20.7326 56.1229 22.6896 52.8175 22.0135C49.5122 21.3374 47.3452 18.2841 47.9773 15.1938Z" fill="#592F72"/>
<path fill-rule="evenodd" clip-rule="evenodd" d="M54.4369 10.7251C54.4946 10.7252 54.5425 10.7691 54.544 10.8233C54.6629 15.1149 54.1325 18.4115 52.9388 21.9511C52.0953 24.446 51.7813 27.1329 51.6787 29.1983C51.6274 30.2305 51.629 31.1065 51.6433 31.7241C51.6505 32.0329 51.6609 32.2771 51.6694 32.444C51.6737 32.5274 51.6776 32.5915 51.6803 32.6346C51.6817 32.6562 51.6828 32.6725 51.6836 32.6834L51.6844 32.6956L51.6847 32.6994C51.6847 32.6994 51.6847 32.6996 51.5806 32.704C51.4765 32.7083 51.4765 32.7083 51.4764 32.7082L51.4764 32.7071L51.4761 32.7039L51.4752 32.6911C51.4744 32.6798 51.4733 32.6631 51.4719 32.6412C51.4691 32.5973 51.4652 32.5325 51.4609 32.4483C51.4522 32.2798 51.4418 32.0339 51.4346 31.7232C51.4201 31.1019 51.4186 30.2214 51.4701 29.184C51.5732 27.1101 51.8885 24.4046 52.7396 21.8873C53.9262 18.3686 54.4536 15.0935 54.3353 10.8232C54.3338 10.769 54.3793 10.7251 54.4369 10.7251ZM51.588 32.802C51.5305 32.8044 51.4805 32.7624 51.4764 32.7082L51.5806 32.704L51.6847 32.6996C51.6888 32.7537 51.6455 32.7996 51.588 32.802Z" fill="#592F72"/>
<path fill-rule="evenodd" clip-rule="evenodd" d="M48.9058 13.1018C48.928 13.0524 48.9892 13.0303 49.0424 13.0525L54.3336 15.2602C54.3868 15.2824 54.4119 15.3405 54.3897 15.3899C54.3675 15.4394 54.3063 15.4615 54.2531 15.4393L48.9619 13.2316C48.9087 13.2094 48.8836 13.1513 48.9058 13.1018Z" fill="#592F72"/>
<path fill-rule="evenodd" clip-rule="evenodd" d="M58.6306 12.8635C58.6526 12.9141 58.6274 12.9709 58.5741 12.9903L54.4104 14.5077C54.3571 14.5271 54.296 14.5018 54.274 14.4512C54.2519 14.4006 54.2772 14.3439 54.3305 14.3244L58.4942 12.807C58.5474 12.7876 58.6085 12.8129 58.6306 12.8635Z" fill="#592F72"/>
<path fill-rule="evenodd" clip-rule="evenodd" d="M47.9821 15.1865C47.9989 15.1351 48.0572 15.1073 48.1124 15.1245L54.0945 16.9842C54.1496 17.0014 54.1807 17.0569 54.164 17.1084C54.1472 17.1598 54.0888 17.1876 54.0337 17.1704L48.0516 15.3107C47.9964 15.2935 47.9653 15.2379 47.9821 15.1865Z" fill="#592F72"/>
<path fill-rule="evenodd" clip-rule="evenodd" d="M47.8857 16.6069C47.9015 16.5552 47.9593 16.5265 48.0148 16.5428L53.8526 18.2597C53.908 18.276 53.9401 18.3311 53.9242 18.3828C53.9083 18.4345 53.8505 18.4632 53.7951 18.4469L47.9573 16.73C47.9018 16.7137 47.8698 16.6586 47.8857 16.6069Z" fill="#592F72"/>
<path fill-rule="evenodd" clip-rule="evenodd" d="M59.8466 18.0163C59.8567 18.0699 59.8189 18.1199 59.7621 18.128L53.722 18.9886C53.6653 18.9967 53.6111 18.9598 53.601 18.9063C53.5908 18.8527 53.6287 18.8027 53.6854 18.7946L59.7255 17.9339C59.7823 17.9259 59.8365 17.9627 59.8466 18.0163Z" fill="#592F72"/>
<path d="M49.2395 20.4664C48.1981 19.5117 46.1588 21.8062 45.1308 23.1152C44.311 24.1604 42.9374 25.0048 42.4003 25.3147C42.3974 25.0462 42.3923 24.7748 42.3899 24.5039C42.3748 23.4193 42.3589 22.2855 42.3844 21.0701C43.2551 20.9341 46.3268 20.3521 47.2777 18.8136C48.0716 17.5313 46.3588 16.9775 44.5983 18.8783C44.0432 19.4781 42.9062 19.9331 42.4154 20.1108C42.4399 19.4926 42.4774 18.8514 42.5342 18.1832C42.7902 17.7668 43.2507 17.2121 44.0378 16.8246C45.4618 16.1245 47.7848 14.5576 46.4169 13.8117C45.2204 13.1575 43.5665 15.4664 42.7129 16.448C42.7735 15.9634 42.8455 15.4631 42.9254 14.9515C42.9711 14.809 43.3272 13.6741 43.811 12.6013C44.3269 11.4528 45.2703 9.12985 43.6153 9.14153C42.0733 9.15314 42.6595 13.6122 42.4861 14.7561L42.4887 14.7566C42.4603 14.9362 42.4318 15.1158 42.4038 15.2929C42.073 14.2441 41.2531 12.0317 40.3285 12.3911C39.3802 12.7585 40.107 14.2411 40.805 15.0972C41.296 15.6998 41.8742 16.5623 42.1376 17.4428C42.0162 18.6824 41.9548 19.8312 41.9291 20.9126C41.392 19.4045 39.9649 15.7571 38.893 16.1636C37.9704 16.5131 38.5146 18.2287 39.2617 19.6794C39.859 20.8394 41.3403 22.054 41.9146 22.8822C41.9174 23.4339 41.9259 23.9712 41.9312 24.4977C41.9351 24.8822 41.9401 25.2617 41.9456 25.6388C40.6572 24.4508 39.7632 21.685 38.5975 21.1762C37.363 20.6404 36.9087 21.7707 38.3672 23.4467C39.5489 24.8061 41.3212 25.8639 41.9483 26.5278C41.9457 27.941 41.8986 29.3426 41.7061 30.8225C41.6912 30.9353 41.774 31.0424 41.893 31.0667C41.8983 31.0678 41.9035 31.0689 41.9088 31.07C42.0346 31.088 42.1505 31.0061 42.1663 30.8883C42.3623 29.3782 42.4113 27.9538 42.4132 26.5173C43.3071 25.9714 44.6836 25.3955 45.9978 24.7475C47.448 24.027 50.2533 21.3948 49.2395 20.4664Z" fill="#FFF0D9"/>
<path d="M55.358 15.9067C56.6249 15.4628 57.5474 18.2241 57.9596 19.7505C58.2861 20.9684 59.1681 22.2175 59.5238 22.6868C59.6268 22.4529 59.7297 22.2191 59.8358 21.9832C60.2543 21.0414 60.6893 20.0591 61.1204 18.9885C60.4124 18.5449 57.9466 16.892 57.6875 15.1961C57.4727 13.7822 59.1735 13.937 60.0029 16.2517C60.2638 16.9823 61.0876 17.8024 61.4511 18.1394C61.6599 17.5898 61.8654 17.0164 62.0658 16.4136C61.9973 15.9541 61.8009 15.2984 61.2579 14.6672C60.274 13.526 58.8332 11.2922 60.3054 11.1504C61.5952 11.0254 62.1778 13.6579 62.5572 14.8325C62.6841 14.3873 62.8093 13.9236 62.929 13.4459C62.9441 13.3048 63.0528 12.1811 63.0333 11.0646C63.0104 9.87025 63.0535 7.4919 64.4925 8.11847C65.833 8.70169 63.6625 12.3779 63.3844 13.4412L63.3818 13.4407C63.3395 13.6071 63.2993 13.7766 63.2549 13.94C63.9344 13.1494 65.4741 11.5201 66.146 12.1804C66.8371 12.8548 65.6499 13.8789 64.7211 14.3662C64.0666 14.7113 63.2412 15.2454 62.6852 15.9171C62.3306 17.0446 61.9556 18.07 61.5757 19.025C62.6054 17.9094 65.211 15.2569 65.9962 16.0098C66.6702 16.6602 65.5571 17.9544 64.3637 18.9412C63.4092 19.7296 61.6663 20.2383 60.8539 20.7494C60.6455 21.2296 60.4396 21.6973 60.2363 22.1527C60.0883 22.4856 59.9435 22.8165 59.7992 23.1449C61.3649 22.587 63.1786 20.5065 64.384 20.4981C65.6611 20.489 65.6362 21.6478 63.7407 22.5657C62.2026 23.312 60.2622 23.5744 59.4668 23.9215C58.9417 25.1558 58.462 26.3967 58.0784 27.7603C58.0487 27.865 57.9368 27.9271 57.8258 27.9044C57.8205 27.9033 57.8152 27.9022 57.8099 27.9011C57.6925 27.8694 57.6223 27.7546 57.653 27.645C58.0453 26.2522 58.5317 24.9921 59.0667 23.7367C58.4915 22.9263 57.5013 21.91 56.5962 20.8545C55.5971 19.6793 54.1264 16.3398 55.358 15.9067Z" fill="#6ECBD2"/>
<path d="M68.919 23.3692C66.2221 23.8424 63.5293 24.0667 61.866 24.6174C61.866 24.6174 62.9433 19.8086 67.7479 17.4205C72.5524 15.0324 77.952 16.0237 77.952 16.0237C77.952 16.0237 76.3042 22.0729 68.919 23.3692Z" fill="#592F72"/>
<path fill-rule="evenodd" clip-rule="evenodd" d="M71.0229 18.4922C71.0437 18.5433 71.0171 18.5994 70.9633 18.6177C63.6542 21.1006 60.9298 25.2575 60.0247 28.7847C59.5714 30.551 59.5736 32.1632 59.6892 33.3339C59.747 33.9191 59.8331 34.3936 59.9046 34.7213C59.9403 34.8851 59.9724 35.0122 59.9955 35.098C60.007 35.1409 60.0163 35.1735 60.0226 35.1952C60.0258 35.2061 60.0282 35.2143 60.0299 35.2196L60.0317 35.2255L60.0322 35.2272C60.0322 35.2272 60.0322 35.2272 60.0266 35.2287L60.0322 35.2272C60.0486 35.2795 60.0172 35.3334 59.9619 35.3475C59.9066 35.3616 59.8485 35.3305 59.8321 35.2782L59.9321 35.2527C59.8321 35.2782 59.832 35.2781 59.832 35.278L59.8318 35.2774L59.8313 35.2756L59.8292 35.2688C59.8274 35.2628 59.8247 35.254 59.8214 35.2425C59.8147 35.2195 59.805 35.1856 59.7931 35.1413C59.7693 35.0527 59.7365 34.9227 59.7001 34.7558C59.6272 34.4219 59.5399 33.9403 59.4813 33.3469C59.3641 32.1605 59.3618 30.526 59.8216 28.7339C60.7428 25.1442 63.5151 20.9374 70.8878 18.4329C70.9415 18.4146 71.002 18.4412 71.0229 18.4922Z" fill="#592F72"/>
<path fill-rule="evenodd" clip-rule="evenodd" d="M78.0528 16.0432C78.0432 16.0964 77.9893 16.131 77.9324 16.1206L77.9317 16.1205L77.929 16.12L77.9178 16.118C77.9078 16.1163 77.8927 16.1137 77.8727 16.1104C77.8327 16.1039 77.7732 16.0945 77.6954 16.0834C77.54 16.0612 77.312 16.032 77.0232 16.0044C76.4456 15.9491 75.6251 15.9001 74.6551 15.9253C72.7142 15.9758 70.1803 16.3233 67.7964 17.5082C65.4166 18.691 63.9586 20.474 63.095 21.9638C62.6634 22.7085 62.3808 23.3791 62.2062 23.8631C62.1189 24.105 62.0587 24.3002 62.0204 24.4345C62.0172 24.4457 62.0141 24.4565 62.0112 24.4669C62.8258 24.219 63.8528 24.0388 64.9836 23.868C65.3663 23.8101 65.7609 23.7534 66.1639 23.6954C67.0471 23.5684 67.9702 23.4356 68.8951 23.2733C68.9515 23.2634 69.007 23.2986 69.019 23.3519C69.031 23.4052 68.995 23.4564 68.9386 23.4663C68.0104 23.6292 67.0814 23.7628 66.1966 23.8901C65.7945 23.9479 65.4016 24.0044 65.022 24.0618C63.8034 24.2459 62.7228 24.4386 61.9008 24.7107C61.8651 24.7225 61.8249 24.7149 61.796 24.6909C61.767 24.6669 61.7538 24.6303 61.7616 24.5954L61.8638 24.6181C61.7616 24.5954 61.7616 24.5955 61.7616 24.5954L61.7617 24.595L61.7619 24.5942L61.7626 24.5913L61.7651 24.5803C61.7674 24.5708 61.7708 24.5567 61.7755 24.5384C61.7848 24.5017 61.7989 24.448 61.8186 24.379C61.858 24.241 61.9195 24.0419 62.0083 23.7957C62.1858 23.3033 62.4729 22.6224 62.9111 21.8664C63.7873 20.3548 65.2703 18.5393 67.695 17.3341C70.1157 16.1309 72.6838 15.78 74.6438 15.7291C75.6243 15.7036 76.454 15.7531 77.0389 15.8091C77.3314 15.8371 77.5629 15.8667 77.7215 15.8894C77.8008 15.9007 77.8619 15.9103 77.9033 15.9171C77.924 15.9205 77.9398 15.9232 77.9506 15.925L77.9628 15.9272L77.966 15.9278L77.9671 15.928C77.9672 15.928 77.9672 15.928 77.9498 16.0243L77.9671 15.928C78.024 15.9384 78.0624 15.99 78.0528 16.0432Z" fill="#592F72"/>
<path d="M59.3428 32.718C62.0793 31.0402 62.7916 27.5581 60.9338 24.9405C59.0759 22.3229 55.3515 21.561 52.615 23.2388C49.8786 24.9166 49.1663 28.3987 51.0241 31.0163C52.8819 33.6339 56.6064 34.3957 59.3428 32.718Z" fill="#FFF0D9"/>
<path fill-rule="evenodd" clip-rule="evenodd" d="M52.6728 23.3187C49.984 24.9672 49.2841 28.3886 51.1096 30.9606C52.935 33.5325 56.5945 34.2811 59.2833 32.6326C61.972 30.984 62.6719 27.5626 60.8465 24.9907C59.021 22.4187 55.3615 21.6701 52.6728 23.3187ZM50.9368 31.0665C49.0466 28.4033 49.7713 24.8605 52.5555 23.1534C55.3397 21.4464 59.129 22.2215 61.0192 24.8847C62.9094 27.548 62.1847 31.0908 59.4006 32.7978C56.6164 34.5048 52.827 33.7297 50.9368 31.0665Z" fill="#592F72"/>
<path fill-rule="evenodd" clip-rule="evenodd" d="M57.7788 22.5492C57.8318 22.5718 57.8564 22.63 57.8337 22.6793C56.048 26.5601 55.247 29.7792 54.9565 33.4812C54.7507 36.1305 53.9784 38.7425 53.2588 40.6903C52.8988 41.6646 52.5516 42.4738 52.2943 43.0395C52.1657 43.3224 52.0595 43.5445 51.9854 43.696C51.9484 43.7717 51.9194 43.8299 51.8995 43.8691C51.8896 43.8887 51.882 43.9036 51.8769 43.9137L51.8711 43.9251L51.8695 43.928L51.869 43.929C51.869 43.929 51.869 43.929 51.7749 43.8841C51.6809 43.8392 51.6809 43.8392 51.6809 43.8392L51.6813 43.8384L51.6827 43.8357L51.6883 43.8248C51.6933 43.8151 51.7007 43.8005 51.7105 43.7812C51.7299 43.7426 51.7586 43.6852 51.7953 43.6101C51.8687 43.4601 51.9741 43.2396 52.102 42.9584C52.3578 42.396 52.7031 41.591 53.0613 40.6216C53.778 38.6818 54.5443 36.0875 54.7483 33.4617C55.0404 29.7378 55.8471 26.4976 57.6417 22.5974C57.6644 22.5481 57.7257 22.5265 57.7788 22.5492ZM51.7749 43.8841L51.6809 43.8392C51.6559 43.8874 51.6777 43.9466 51.7296 43.9714C51.7816 43.9962 51.844 43.9771 51.869 43.929L51.7749 43.8841Z" fill="#592F72"/>
<path fill-rule="evenodd" clip-rule="evenodd" d="M61.9336 26.9134C61.9346 26.9676 61.8887 27.0112 61.831 27.0107L56.1005 26.9638C56.0429 26.9633 55.9953 26.919 55.9943 26.8648C55.9933 26.8106 56.0392 26.7671 56.0968 26.7675L61.8273 26.8144C61.885 26.8149 61.9325 26.8592 61.9336 26.9134Z" fill="#592F72"/>
<path fill-rule="evenodd" clip-rule="evenodd" d="M53.0814 22.8723C53.1216 22.8344 53.1877 22.8351 53.229 22.8739L56.4624 25.9044C56.5038 25.9432 56.5048 26.0053 56.4646 26.0432C56.4245 26.0811 56.3584 26.0804 56.317 26.0416L53.0836 23.011C53.0422 22.9723 53.0412 22.9101 53.0814 22.8723Z" fill="#592F72"/>
<path fill-rule="evenodd" clip-rule="evenodd" d="M61.9644 29.1945C61.9597 29.2483 61.9092 29.2872 61.8518 29.2814L55.6172 28.6421C55.5598 28.6362 55.517 28.5878 55.5218 28.5339C55.5265 28.48 55.577 28.4411 55.6344 28.447L61.869 29.0862C61.9264 29.0921 61.9692 29.1406 61.9644 29.1945Z" fill="#592F72"/>
<path fill-rule="evenodd" clip-rule="evenodd" d="M61.4924 30.5397C61.4867 30.5935 61.4356 30.6316 61.3782 30.6248L55.3352 29.9114C55.2778 29.9047 55.2359 29.8556 55.2416 29.8018C55.2473 29.748 55.2984 29.7099 55.3558 29.7167L61.3989 30.4301C61.4562 30.4369 61.4981 30.486 61.4924 30.5397Z" fill="#592F72"/>
<path fill-rule="evenodd" clip-rule="evenodd" d="M49.9394 27.1371C49.9697 27.0917 50.0341 27.0791 50.0831 27.1088L55.3005 30.2696C55.3496 30.2993 55.3647 30.3602 55.3344 30.4055C55.3041 30.4508 55.2398 30.4635 55.1907 30.4338L49.9733 27.2729C49.9243 27.2432 49.9091 27.1824 49.9394 27.1371Z" fill="#592F72"/>
<path fill-rule="evenodd" clip-rule="evenodd" d="M40.7451 8.55005C40.8023 8.55821 40.8429 8.60826 40.8357 8.66184L40.7322 8.64708C40.8357 8.66184 40.8358 8.66177 40.8357 8.66184L40.8356 8.66307L40.8351 8.66623L40.8334 8.67824C40.8319 8.68875 40.8296 8.7042 40.8264 8.72434C40.82 8.76462 40.8102 8.82366 40.7961 8.89936C40.7681 9.05074 40.7233 9.26884 40.6562 9.53689C40.5222 10.0728 40.299 10.8093 39.9422 11.6119C39.2292 13.2153 37.9781 15.093 35.8273 16.1542C35.7769 16.1791 35.7134 16.1603 35.6855 16.1121C35.6577 16.064 35.676 16.0048 35.7265 15.9799C37.8188 14.9476 39.0452 13.1154 39.7492 11.5321C40.1008 10.7414 40.3208 10.0154 40.4529 9.48721C40.5189 9.22319 40.5629 9.0088 40.5904 8.86072C40.6041 8.78668 40.6137 8.72924 40.6198 8.69047C40.6229 8.67109 40.6251 8.65637 40.6265 8.64659L40.6281 8.63566L40.6285 8.63302L40.6285 8.63242C40.6357 8.57884 40.6879 8.5419 40.7451 8.55005Z" fill="#592F72"/>
<path d="M42.0582 7.38734L42.2245 5.98185L41.5109 6.85821L41.1835 5.84618L40.6284 6.74208L40.14 5.70996L39.9737 7.11544C39.4096 7.36831 38.9972 7.87624 38.9232 8.50745C38.8059 9.49807 39.5689 10.4138 40.6262 10.5502C41.6835 10.6867 42.6378 9.99349 42.7551 9.00287C42.8286 8.37413 42.5461 7.77557 42.0582 7.38734Z" fill="#FFF9EF"/>
<path fill-rule="evenodd" clip-rule="evenodd" d="M42.2648 5.89223C42.3085 5.9096 42.3353 5.95205 42.3301 5.99588L42.1699 7.3495C42.657 7.7589 42.936 8.37266 42.8607 9.01678L42.8607 9.01691C42.7371 10.0613 41.7311 10.7919 40.6165 10.6481C39.5019 10.5043 38.6977 9.53895 38.8213 8.4947L38.9251 8.5081L38.8213 8.4948C38.8213 8.49477 38.8213 8.49474 38.8213 8.4947C38.8972 7.84815 39.3099 7.32443 39.8779 7.05085L39.8718 7.1027L39.9755 7.11609L39.9286 7.0273C39.9116 7.03493 39.8947 7.04278 39.8779 7.05085L40.0381 5.69722C40.0433 5.65339 40.0791 5.61902 40.1256 5.61329C40.1721 5.60756 40.2177 5.6319 40.237 5.67271L40.6415 6.52738L40.5398 6.69168L40.6303 6.74273L40.7255 6.70483L40.6415 6.52738L41.0948 5.79577C41.1155 5.76237 41.1557 5.74423 41.197 5.74961C41.2384 5.755 41.273 5.78287 41.2852 5.82056L41.5524 6.64662L41.4292 6.79791L41.5127 6.85885L41.6126 6.83259L41.5524 6.64662L42.1428 5.92156C42.1711 5.88687 42.221 5.87486 42.2648 5.89223ZM42.0805 6.32517L41.5963 6.91979C41.5727 6.94874 41.5335 6.96236 41.4948 6.95504C41.4561 6.94772 41.4244 6.9207 41.4129 6.88511L41.1562 6.09126L40.7209 6.79377C40.7014 6.82528 40.6644 6.84336 40.6252 6.84059C40.586 6.83781 40.5512 6.81465 40.5351 6.78062L40.2035 6.07992L40.0793 7.12947C40.0754 7.16236 40.054 7.19073 40.0225 7.20488C39.4885 7.44426 39.0988 7.92463 39.0289 8.52139L39.0288 8.52149C38.9179 9.45848 39.6396 10.3246 40.6396 10.4537C41.6396 10.5827 42.5422 9.92705 42.6532 8.99025C42.7227 8.3959 42.4558 7.82975 41.9938 7.46219C41.9665 7.44045 41.9524 7.40749 41.9563 7.37459L42.0805 6.32517Z" fill="#FFF9EF"/>
<path d="M46.8411 27.2137C46.8411 27.2137 51.537 26.1785 53.9024 21.9936C55.301 19.5192 55.2944 16.1985 55.0925 13.752C55.0925 13.752 50.2577 15.83 47.9588 19.3666C45.6577 22.9003 46.8411 27.2137 46.8411 27.2137Z" fill="#6ECBD2"/>
<path fill-rule="evenodd" clip-rule="evenodd" d="M51.8232 18.8937C51.8776 18.9131 51.906 18.9699 51.8868 19.0205C51.4987 20.041 50.8397 21.1853 50.0515 22.4317C49.6603 23.0504 49.2364 23.6955 48.7971 24.3642L48.7862 24.3808C48.3427 25.0557 47.8836 25.7547 47.4254 26.4762C45.5919 29.3633 43.7803 32.6011 43.0748 36.0503C43.064 36.1032 43.0093 36.1368 42.9526 36.1252C42.896 36.1136 42.8589 36.0613 42.8697 36.0084C43.5824 32.5244 45.4098 29.2627 47.2453 26.3723C47.7044 25.6495 48.1644 24.9492 48.6077 24.2745L48.6181 24.2586C49.0579 23.5894 49.481 22.9454 49.8713 22.3282C50.6587 21.083 51.309 19.9521 51.6899 18.9501C51.7092 18.8995 51.7688 18.8742 51.8232 18.8937Z" fill="#592F72"/>
<path fill-rule="evenodd" clip-rule="evenodd" d="M55.1423 13.6661C55.1723 13.683 55.1918 13.7125 55.1944 13.7449C55.3964 16.1926 55.4062 19.5385 53.9927 22.0394C52.7984 24.1522 51.0166 25.4688 49.5358 26.2566C48.7952 26.6506 48.129 26.9129 47.6475 27.0768C47.4067 27.1588 47.212 27.2162 47.077 27.2532C47.0096 27.2717 46.9571 27.2851 46.9212 27.2939C46.9033 27.2983 46.8895 27.3016 46.8802 27.3038L46.8694 27.3063L46.8665 27.3069L46.8657 27.3071L46.8655 27.3071C46.8654 27.3071 46.8654 27.3072 46.839 27.2116C46.7379 27.2337 46.7379 27.2337 46.7379 27.2336L46.7377 27.2327L46.737 27.2301L46.7343 27.2202C46.7321 27.2116 46.7288 27.1989 46.7247 27.1823C46.7164 27.1491 46.7046 27.1003 46.6905 27.037C46.6623 26.9106 46.6247 26.7265 46.5868 26.4948C46.5112 26.0314 46.4347 25.3769 46.4305 24.6111C46.4222 23.0807 46.7033 21.0991 47.8671 19.3118C49.0273 17.527 50.8239 16.1144 52.3251 15.1495C53.0765 14.6666 53.7557 14.2946 54.2473 14.0434C54.4931 13.9177 54.692 13.8222 54.8297 13.758C54.8986 13.7258 54.9522 13.7016 54.9886 13.6853C55.0068 13.6771 55.0208 13.671 55.0302 13.6668L55.041 13.6621L55.0438 13.6609L55.0448 13.6605C55.0448 13.6605 55.0449 13.6605 55.0903 13.7499L55.0448 13.6605C55.0758 13.6472 55.1124 13.6492 55.1423 13.6661ZM54.998 13.9012C54.9765 13.911 54.9526 13.9221 54.9265 13.9343C54.7908 13.9975 54.5941 14.0919 54.3507 14.2164C53.8639 14.4652 53.1907 14.8338 52.446 15.3125C50.9551 16.2708 49.1849 17.6654 48.0461 19.4173C46.9089 21.1636 46.6311 23.1056 46.6393 24.6153C46.6434 25.3696 46.7188 26.0142 46.7932 26.47C46.8304 26.6979 46.8673 26.8784 46.8948 27.0016C46.9024 27.0359 46.9093 27.0657 46.9153 27.0908C46.943 27.0837 46.9759 27.075 47.0137 27.0647C47.1449 27.0287 47.3355 26.9725 47.5718 26.8921C48.0447 26.7311 48.7003 26.473 49.4294 26.0852C50.8878 25.3092 52.6366 24.0157 53.8077 21.9437C55.164 19.5442 55.1876 16.3304 54.998 13.9012ZM46.839 27.2116L46.7379 27.2336C46.7449 27.259 46.7622 27.2811 46.7861 27.2949C46.81 27.3086 46.8387 27.313 46.8655 27.3071L46.839 27.2116Z" fill="#592F72"/>
<path d="M37.3546 21.6459C37.3546 21.6459 33.4425 18.8499 32.9104 14.0724C32.5958 11.2475 33.9058 8.19609 35.0522 6.02541C35.0522 6.02541 38.6826 9.83503 39.4107 13.9909C40.1389 18.1467 37.3546 21.6459 37.3546 21.6459Z" fill="#592F72"/>
<path fill-rule="evenodd" clip-rule="evenodd" d="M36.0396 12.0416C36.0973 12.0451 36.1422 12.0918 36.14 12.1459C36.0969 13.217 36.2509 14.5124 36.4861 15.9668C36.6027 16.6877 36.7389 17.4461 36.8805 18.2343L36.8839 18.2529C37.0267 19.0476 37.1747 19.8721 37.313 20.7172C37.8661 24.0962 38.266 27.8135 37.5533 31.2975C37.5425 31.3504 37.4878 31.3839 37.4312 31.3724C37.3745 31.3608 37.3374 31.3085 37.3482 31.2555C38.0538 27.8063 37.6592 24.1173 37.1067 20.7421C36.9686 19.8986 36.8208 19.0754 36.678 18.2806L36.6745 18.2611C36.533 17.4735 36.3965 16.7138 36.2797 15.9912C36.0442 14.5354 35.8875 13.2242 35.9314 12.1333C35.9336 12.0792 35.982 12.0382 36.0396 12.0416Z" fill="#592F72"/>
<path fill-rule="evenodd" clip-rule="evenodd" d="M35.0959 5.9364C35.1477 5.96152 35.1691 6.02082 35.1438 6.06884C33.9979 8.23843 32.7008 11.2679 33.012 14.0627C33.2754 16.4281 34.3758 18.3044 35.4124 19.5908C35.9306 20.2338 36.4322 20.7285 36.8039 21.0622C36.9897 21.2291 37.1429 21.3556 37.2494 21.4401C37.2802 21.4646 37.307 21.4855 37.3296 21.5029C37.345 21.4821 37.3631 21.4574 37.3835 21.429C37.4572 21.3265 37.562 21.1751 37.6857 20.9802C37.933 20.5904 38.2556 20.0274 38.5557 19.3355C39.1563 17.9507 39.6641 16.0558 39.3055 14.0022C39.2962 13.9485 39.3347 13.899 39.3916 13.8916C39.4485 13.8842 39.5022 13.9218 39.5116 13.9754C39.8785 16.0772 39.3582 18.0098 38.7494 19.4137C38.4447 20.1161 38.1172 20.6878 37.8657 21.084C37.7399 21.2822 37.6331 21.4366 37.5575 21.5418C37.5197 21.5944 37.4897 21.6346 37.469 21.6619C37.4587 21.6755 37.4507 21.6859 37.4452 21.6929L37.439 21.701L37.4373 21.7031L37.4367 21.7038C37.4367 21.7039 37.4366 21.7039 37.3524 21.6439C37.2906 21.7214 37.2906 21.7214 37.2905 21.7213L37.2903 21.7212L37.2873 21.719L37.2783 21.7125C37.2706 21.7068 37.2592 21.6984 37.2444 21.6873C37.2149 21.6651 37.1719 21.6322 37.1171 21.5887C37.0076 21.5017 36.851 21.3724 36.6618 21.2025C36.2833 20.8626 35.7736 20.3598 35.2472 19.7066C34.1947 18.4006 33.073 16.4901 32.8043 14.078C32.4864 11.2229 33.8093 8.14964 34.9562 5.97787C34.9816 5.92985 35.0441 5.91128 35.0959 5.9364ZM37.3524 21.6439L37.2905 21.7213C37.3128 21.7373 37.3409 21.7445 37.3683 21.7412C37.3957 21.738 37.4203 21.7244 37.4367 21.7038L37.3524 21.6439Z" fill="#592F72"/>
<path d="M64.2045 30.052C64.2045 30.052 65.3472 26.9432 70.1249 26.3831C73.3304 26.0088 76.1887 27.4124 77.7264 28.3784C77.7264 28.3784 75.5874 28.3323 73.5601 30.3254C71.8536 32.0029 66.9904 33.385 64.2045 30.052Z" fill="#6ECBD2"/>
<path fill-rule="evenodd" clip-rule="evenodd" d="M71.8528 29.0489C71.9105 29.0509 71.9567 29.0965 71.9561 29.1507C71.9555 29.2048 71.9082 29.2471 71.8506 29.2451L71.8514 29.1691C71.8506 29.2451 71.8506 29.2451 71.8506 29.2451L71.8489 29.245L71.8436 29.2448L71.8221 29.2442C71.8031 29.2437 71.7748 29.243 71.7376 29.2422C71.6633 29.2407 71.5538 29.239 71.4137 29.2385C71.1334 29.2374 70.7306 29.2408 70.2412 29.2587C69.2621 29.2944 67.9379 29.388 66.556 29.6194C65.1732 29.8509 63.7373 30.2195 62.5322 30.8031C61.3267 31.3868 60.3612 32.1809 59.9025 33.2596C59.8813 33.3095 59.8206 33.3326 59.767 33.3114C59.7134 33.2901 59.6871 33.2325 59.7083 33.1826C60.1916 32.0462 61.2028 31.2236 62.4327 30.6281C63.6628 30.0324 65.1208 29.6594 66.5141 29.4261C67.9082 29.1927 69.2424 29.0985 70.2276 29.0625C70.7204 29.0445 71.1262 29.0411 71.409 29.0422C71.5504 29.0428 71.6611 29.0444 71.7366 29.046C71.7743 29.0467 71.8033 29.0475 71.8228 29.048L71.8451 29.0487L71.8508 29.0489L71.8528 29.0489C71.8529 29.0489 71.8528 29.0489 71.8518 29.135L71.8528 29.0489Z" fill="#592F72"/>
<path fill-rule="evenodd" clip-rule="evenodd" d="M77.4103 28.2989C75.832 27.3522 73.1381 26.1315 70.1437 26.4812C67.7791 26.7583 66.3197 27.665 65.4518 28.4978C65.0173 28.9148 64.7301 29.3141 64.552 29.6083C64.4629 29.7554 64.4011 29.8762 64.3618 29.9596C64.3421 30.0014 64.3281 30.0337 64.3191 30.0554C64.3145 30.0662 64.3113 30.0744 64.3092 30.0797L64.307 30.0855L64.3065 30.0867L64.3065 30.0868L64.3064 30.0869C64.2877 30.1377 64.2284 30.1635 64.1739 30.1446C64.1193 30.1257 64.0902 30.0692 64.1089 30.0184L64.2077 30.0526C64.1089 30.0184 64.1089 30.0183 64.109 30.0182L64.1091 30.018L64.1093 30.0174L64.1101 30.0152L64.113 30.0077C64.1156 30.0012 64.1193 29.9918 64.1243 29.9797C64.1344 29.9556 64.1496 29.9206 64.1705 29.8762C64.2123 29.7875 64.2771 29.661 64.3698 29.5079C64.5552 29.2017 64.8524 28.7888 65.3007 28.3586C66.1986 27.497 67.6994 26.5693 70.1125 26.2864L70.1125 26.2864C73.3557 25.9076 76.241 27.3272 77.786 28.2979C77.8249 28.3224 77.8428 28.3676 77.8298 28.409C77.8169 28.4504 77.7763 28.4781 77.7301 28.4772L77.73 28.4772L77.73 28.4772L77.7299 28.4772L77.7292 28.4772L77.7254 28.4771C77.7219 28.4771 77.7163 28.4771 77.7088 28.4772C77.6939 28.4773 77.6711 28.4777 77.6411 28.479C77.5812 28.4815 77.4924 28.4873 77.3791 28.5004C77.1525 28.5266 76.8282 28.5819 76.4409 28.6987C75.6669 28.932 74.6404 29.411 73.6397 30.3948C73.6004 30.4335 73.5344 30.434 73.4922 30.396C73.45 30.358 73.4477 30.2959 73.487 30.2572C74.5136 29.2479 75.5702 28.7535 76.3724 28.5116C76.7733 28.3907 77.1104 28.3331 77.3483 28.3056C77.3698 28.3031 77.3905 28.3009 77.4103 28.2989Z" fill="#592F72"/>
<path d="M25.4537 12.5481C24.0852 13.0175 23.0106 14.1239 22.7138 15.5748C22.2547 17.8191 23.8283 20.0363 26.2288 20.5274C28.6293 21.0184 30.9472 19.5972 31.4063 17.3529C31.8654 15.1086 30.2918 12.8914 27.8913 12.4004C27.0431 12.2243 26.2035 12.2895 25.4537 12.5481Z" fill="#FFB5C3"/>
<path fill-rule="evenodd" clip-rule="evenodd" d="M25.4175 12.4592C26.1852 12.1944 27.0448 12.1277 27.9129 12.3079C30.3699 12.8106 31.9807 15.08 31.5107 17.3772C31.0408 19.6745 28.6682 21.1292 26.2111 20.6266C23.754 20.124 22.1432 17.8544 22.6131 15.5572C22.9169 14.0719 24.0171 12.9396 25.4175 12.4592ZM25.4556 12.5514L25.4556 12.5515L25.4556 12.5514C26.2256 12.3912 27.0451 12.3276 27.8732 12.4995L25.4939 12.6437C23.1079 14.1826 24.1571 13.1022 25.4937 12.6438C23.9064 19.9554 22.3699 17.7905 22.8182 15.5991C30.8574 19.5267 28.5942 20.9143 26.2503 20.4348C30.2174 12.979 31.7539 15.1439 31.3057 17.3353L27.8735 12.4996" fill="#592F72"/>
<path fill-rule="evenodd" clip-rule="evenodd" d="M24.2694 13.213C24.248 13.1621 24.1872 13.1361 24.1337 13.1549ZM24.1724 13.2469C24.0755 13.2809 24.0755 13.281 24.0755 13.281L24.0756 13.2813L24.0759 13.282L24.0771 13.2846L24.0814 13.2947C24.0852 13.3035 24.0909 13.3165 24.0985 13.3335C24.1136 13.3675 24.1364 13.4175 24.1671 13.4822C24.2285 13.6117 24.3215 13.8001 24.4487 14.0369C24.703 14.5106 25.0939 15.1783 25.6411 15.9566C26.7354 17.5128 28.4559 19.5122 30.9607 21.2848C33.4201 23.0253 34.2599 25.5256 34.4826 27.6016C34.5939 28.6391 34.5507 29.5677 34.4795 30.2369C34.4439 30.5714 34.4014 30.8408 34.3679 31.0263C34.3511 31.119 34.3366 31.1907 34.3263 31.239C34.3212 31.2632 34.3171 31.2815 34.3143 31.2937L34.3112 31.3074L34.3104 31.3107L34.3102 31.3114C34.2975 31.364 34.3328 31.4175 34.389 31.4308C34.4452 31.4442 34.5011 31.4124 34.5138 31.3598L34.412 31.3357C34.5138 31.3598 34.5138 31.3599 34.5138 31.3598L34.5139 31.3594L34.5142 31.3584L34.5151 31.3545L34.5185 31.3396C34.5215 31.3266 34.5258 31.3074 34.5311 31.2824C34.5417 31.2323 34.5566 31.1588 34.5737 31.0641C34.608 30.8748 34.6512 30.601 34.6873 30.2615C34.7594 29.5829 34.8034 28.6408 34.6904 27.587C34.4644 25.4807 33.6093 22.9166 31.0834 21.1291C28.6029 19.3737 26.8985 17.3932 25.8144 15.8514C25.2724 15.0806 24.8856 14.4198 24.6346 13.9522C24.5091 13.7185 24.4175 13.533 24.3575 13.4063C24.3274 13.343 24.3053 13.2943 24.2907 13.2617C24.2834 13.2453 24.278 13.233 24.2745 13.2248L24.2706 13.2157L24.2696 13.2135L24.2694 13.213M24.1337 13.1549C24.0802 13.1736 24.0541 13.2302 24.0755 13.281ZM24.0755 13.281L24.1724 13.2469Z" fill="#592F72"/>
<path fill-rule="evenodd" clip-rule="evenodd" d="M25.8713 15.9369C25.8891 15.9889 25.8592 16.0435 25.8044 16.059L22.6973 16.935C22.6425 16.9505 22.5836 16.9209 22.5657 16.8689C22.5478 16.817 22.5777 16.7623 22.6325 16.7469L25.7396 15.8709C25.7944 15.8554 25.8534 15.885 25.8713 15.9369Z" fill="#592F72"/>
<path fill-rule="evenodd" clip-rule="evenodd" d="M29.3111 12.825C29.3605 12.8542 29.3765 12.9148 29.3467 12.9605L26.6672 17.0786C26.6375 17.1243 26.5733 17.1377 26.5239 17.1085C26.4745 17.0793 26.4586 17.0187 26.4883 16.973L29.1678 12.8549C29.1975 12.8092 29.2617 12.7958 29.3111 12.825Z" fill="#592F72"/>
<path fill-rule="evenodd" clip-rule="evenodd" d="M30.9496 14.3967C30.9975 14.428 31.0104 14.4892 30.9784 14.5335L28.0215 18.6205C27.9895 18.6648 27.9247 18.6753 27.8767 18.644C27.8288 18.6128 27.8158 18.5515 27.8479 18.5073L30.8048 14.4202C30.8368 14.3759 30.9016 14.3654 30.9496 14.3967Z" fill="#592F72"/>
<path fill-rule="evenodd" clip-rule="evenodd" d="M27.5596 18.0207C27.5853 18.0698 27.5642 18.1282 27.5126 18.1511L24.2024 19.6165C24.1507 19.6393 24.0881 19.618 24.0624 19.5688C24.0367 19.5197 24.0577 19.4613 24.1094 19.4385L27.4196 17.9731C27.4712 17.9502 27.5339 17.9716 27.5596 18.0207Z" fill="#592F72"/>
<path d="M30.3001 17.2477C30.3001 17.2477 30.2676 13.69 31.4788 12.3875C32.69 11.085 33.6045 12.606 32.8339 14.1917C32.0655 15.7805 30.3001 17.2477 30.3001 17.2477Z" fill="#6ECBD2"/>
<path d="M30.3027 17.2442C30.3027 17.2442 28.6079 15.579 26.9273 14.9082C25.4299 14.3109 23.9053 15.5699 26.0323 16.8058C27.5311 17.6789 30.3027 17.2442 30.3027 17.2442Z" fill="#6ECBD2"/>
<path d="M32.8214 20.2632C32.8214 20.2632 31.3175 19.3479 29.1937 19.4568C27.0698 19.5657 26.9943 20.3794 27.8878 20.9665C28.7786 21.553 31.1229 21.363 32.8214 20.2632Z" fill="#6ECBD2"/>
<path d="M32.8206 20.2677C32.8206 20.2677 32.9498 18.7877 33.5034 17.2529C34.2285 15.2432 36.1296 15.4827 35.8143 17.2801C35.4747 19.196 32.8206 20.2677 32.8206 20.2677Z" fill="#6ECBD2"/>
<path d="M35.5396 24.1832C35.5396 24.1832 35.6675 22.3192 36.9262 20.9594C38.1854 19.5973 39.6461 20.6969 38.3869 22.2883C37.2795 23.6893 35.5396 24.1832 35.5396 24.1832Z" fill="#6ECBD2"/>
<path d="M35.5397 24.1901C35.5397 24.1901 34.1599 25.3474 31.7707 24.8818C29.3996 24.4225 30.0856 23.0616 31.7594 23.0924C33.4354 23.1262 35.5397 24.1901 35.5397 24.1901Z" fill="#6ECBD2"/>
<path d="M28.351 12.4784C28.351 12.4784 27.1536 10.3742 26.9174 8.57995C26.592 6.13138 28.8472 5.66307 29.3936 7.56973C29.9401 9.47638 28.351 12.4784 28.351 12.4784Z" fill="#6ECBD2"/>
<path fill-rule="evenodd" clip-rule="evenodd" d="M32.3202 11.9928C32.1148 12.0061 31.8533 12.1343 31.5586 12.4512C31.2694 12.7622 31.0495 13.214 30.8841 13.7252C30.719 14.235 30.6105 14.796 30.5393 15.319C30.4681 15.8417 30.4345 16.3242 30.4187 16.6762C30.4126 16.8108 30.4092 16.9263 30.4073 17.0174C30.4394 16.9887 30.4753 16.9563 30.5145 16.9204C30.6908 16.7593 30.9338 16.5278 31.2006 16.2471C31.7355 15.6843 32.3612 14.9287 32.7392 14.1472C33.1159 13.3718 33.0698 12.6329 32.8125 12.256C32.6871 12.0723 32.5176 11.9801 32.3202 11.9928ZM30.3005 17.2457C30.1961 17.244 30.1961 17.2439 30.1961 17.2439L30.1961 17.2411L30.1961 17.2332C30.196 17.2263 30.196 17.216 30.196 17.2027C30.1961 17.1759 30.1963 17.1367 30.1971 17.0864C30.1986 16.9857 30.2021 16.8407 30.2101 16.6628C30.226 16.3069 30.26 15.8187 30.3321 15.2891C30.4042 14.7598 30.5146 14.1872 30.6842 13.6636C30.8532 13.1414 31.0835 12.66 31.3999 12.3198C31.7108 11.9854 32.0178 11.8153 32.3004 11.797C32.591 11.7782 32.8291 11.9212 32.9874 12.1531C33.2975 12.6075 33.3234 13.422 32.9296 14.2324C32.5391 15.0396 31.8979 15.8119 31.358 16.38C31.0874 16.6646 30.841 16.8993 30.6622 17.0629C30.5727 17.1447 30.5001 17.2088 30.4498 17.2525C30.4246 17.2743 30.405 17.2911 30.3916 17.3025C30.3849 17.3082 30.3798 17.3125 30.3763 17.3154L30.3723 17.3188L30.3712 17.3197L30.3709 17.3199C30.3709 17.3199 30.3708 17.32 30.3005 17.2457ZM30.3005 17.2457L30.3709 17.3199C30.3405 17.3452 30.2965 17.351 30.2587 17.3346C30.221 17.3182 30.1965 17.2826 30.1961 17.2439L30.3005 17.2457Z" fill="#592F72"/>
<path fill-rule="evenodd" clip-rule="evenodd" d="M25.0332 15.1139C25.3719 14.672 26.1853 14.5106 26.9636 14.8211C27.8187 15.1624 28.6724 15.7541 29.3089 16.2564C29.628 16.5082 29.8941 16.7388 30.0806 16.9066C30.1738 16.9905 30.2472 17.0588 30.2974 17.1061C30.3225 17.1298 30.3418 17.1483 30.3549 17.1609C30.3614 17.1672 30.3664 17.172 30.3698 17.1753L30.3736 17.1791L30.3746 17.1801L30.3749 17.1803C30.3749 17.1803 30.375 17.1804 30.3005 17.2473C30.3203 17.3441 30.3203 17.3441 30.3203 17.3441L30.3197 17.3442L30.318 17.3445L30.3117 17.3454C30.3061 17.3463 30.298 17.3475 30.2875 17.349C30.2663 17.352 30.2353 17.3563 30.1954 17.3615C30.1156 17.3718 30.0003 17.3855 29.8573 17.3992C29.5715 17.4266 29.1746 17.4539 28.73 17.4537C27.8466 17.4532 26.7532 17.3443 25.9769 16.8921M30.3005 17.2473L30.3203 17.3441C30.358 17.3382 30.3888 17.3132 30.4002 17.279C30.4116 17.2447 30.4018 17.2068 30.3749 17.1803L30.3005 17.2473ZM30.0811 17.1771C30.0127 17.1853 29.9283 17.1946 29.8307 17.204C29.55 17.2308 29.1604 17.2576 28.7246 17.2574C27.8476 17.257 26.8058 17.1468 26.0833 16.7259C25.5615 16.4227 25.2779 16.1259 25.1573 15.8694C25.0391 15.6177 25.0745 15.3999 25.2037 15.2314C25.4698 14.8842 26.1674 14.7147 26.8864 15.0015C27.712 15.331 28.5461 15.9074 29.1771 16.4053C29.4919 16.6537 29.7545 16.8813 29.9383 17.0467C29.9932 17.0961 30.041 17.1399 30.0811 17.1771ZM25.0332 15.1139C24.8599 15.34 24.8194 15.6314 24.9667 15.9447ZM24.9667 15.9447C25.1117 16.2531 25.4353 16.5773 25.9769 16.8921Z" fill="#592F72"/>
<path fill-rule="evenodd" clip-rule="evenodd" d="M32.8757 20.1819C32.8757 20.1819 32.8758 20.1819 32.8207 20.2639L32.8757 20.1819C32.9053 20.1999 32.9239 20.2305 32.925 20.2633C32.9261 20.2961 32.9098 20.3268 32.8814 20.3452C32.0175 20.9046 30.9911 21.2318 30.0672 21.3452C29.605 21.4019 29.1659 21.4054 28.7835 21.3566C28.4025 21.3079 28.0705 21.2062 27.8286 21.047C27.5967 20.8946 27.4185 20.7218 27.3223 20.5409C27.2243 20.3565 27.2111 20.1615 27.317 19.9834C27.4198 19.8104 27.6258 19.6692 27.9289 19.5645C28.2336 19.4593 28.6475 19.387 29.1845 19.3594C30.2635 19.3041 31.1847 19.5089 31.836 19.7275C32.1618 19.8368 32.4205 19.9496 32.5982 20.0355C32.6872 20.0784 32.7559 20.1146 32.8027 20.1403C32.8261 20.1531 32.844 20.1633 32.8563 20.1704C32.8624 20.174 32.8671 20.1767 32.8704 20.1787L32.8742 20.1809L32.8752 20.1816L32.8757 20.1819ZM32.6236 20.268C31.8184 20.7566 30.8821 21.0466 30.0348 21.1505C29.5872 21.2055 29.167 21.2082 28.8062 21.1621C28.4441 21.1158 28.149 21.0213 27.9454 20.8872C27.7306 20.7461 27.5831 20.597 27.5086 20.4569C27.4359 20.3201 27.4331 20.1949 27.4999 20.0825C27.5698 19.9651 27.725 19.8458 28.0055 19.7489C28.2844 19.6526 28.6764 19.5823 29.2013 19.5554C30.2461 19.5018 31.1388 19.7002 31.7705 19.9121C32.0862 20.0181 32.3362 20.1272 32.5067 20.2096C32.5512 20.2311 32.5903 20.2507 32.6236 20.268Z" fill="#592F72"/>
<path fill-rule="evenodd" clip-rule="evenodd" d="M35.0466 15.932C34.5889 15.903 33.9607 16.294 33.6043 17.2818C33.3297 18.0429 33.1602 18.7914 33.0592 19.35C33.0088 19.6292 32.9756 19.8606 32.955 20.022C32.9514 20.0498 32.9483 20.0756 32.9454 20.0991C33.0114 20.0685 33.0946 20.0284 33.1906 19.9792C33.4415 19.8504 33.7793 19.6591 34.1272 19.4091C34.8265 18.9065 35.5498 18.1785 35.7131 17.2568C35.7894 16.8219 35.7292 16.4945 35.5993 16.2764C35.4711 16.0611 35.2722 15.9463 35.0466 15.932ZM32.8225 20.263C32.8658 20.3533 32.8659 20.3533 32.8659 20.3533L32.8665 20.353L32.8682 20.3523L32.8743 20.3498C32.8797 20.3476 32.8875 20.3443 32.8975 20.34C32.9177 20.3315 32.9471 20.3187 32.9844 20.3019C33.059 20.2682 33.1656 20.2181 33.2944 20.152C33.5517 20.0199 33.8987 19.8235 34.2568 19.5662C34.9694 19.054 35.7429 18.2881 35.9191 17.2939C36.0005 16.8302 35.9414 16.4535 35.7808 16.184C35.6187 15.9117 35.356 15.7552 35.0551 15.7362C34.4599 15.6985 33.775 16.1926 33.4063 17.2144C33.1273 17.9881 32.9554 18.7471 32.8534 19.3122C32.8023 19.5949 32.7686 19.8294 32.7477 19.9935C32.7372 20.0756 32.7299 20.14 32.7252 20.1841C32.7229 20.2061 32.7212 20.2231 32.7201 20.2346L32.7189 20.2477L32.7186 20.2511L32.7184 20.2523C32.7184 20.2523 32.7184 20.2524 32.8225 20.263ZM32.8225 20.263L32.7184 20.2523C32.7154 20.2869 32.7322 20.321 32.7625 20.3418C32.7928 20.3625 32.8322 20.3669 32.8659 20.3533L32.8225 20.263Z" fill="#592F72"/>
<path fill-rule="evenodd" clip-rule="evenodd" d="M38.5332 20.5909C38.2354 20.3433 37.6219 20.3605 37.006 21.0267C36.3899 21.6923 36.0487 22.4837 35.8617 23.1118C35.7684 23.4253 35.7139 23.6969 35.6828 23.8897C35.6734 23.9476 35.6662 23.9984 35.6606 24.041C35.6973 24.0282 35.74 24.0128 35.7879 23.9947C35.9651 23.9277 36.2133 23.8238 36.4958 23.6768C37.0614 23.3822 37.7603 22.9165 38.3027 22.2302C38.922 21.4476 38.834 20.8409 38.5332 20.5909ZM35.5399 24.185C35.4357 24.1761 35.4357 24.176 35.4357 24.176L35.4357 24.1755L35.4358 24.1743L35.4362 24.1698C35.4365 24.1659 35.4369 24.1603 35.4376 24.153C35.4389 24.1383 35.4409 24.117 35.444 24.0895C35.4501 24.0345 35.4602 23.9549 35.4763 23.8552C35.5085 23.6561 35.5646 23.3767 35.6606 23.0543C35.8522 22.4104 36.2043 21.5899 36.8469 20.8958M35.5399 24.185L35.5725 24.279C35.5395 24.2883 35.5034 24.2816 35.476 24.261C35.4486 24.2403 35.4335 24.2085 35.4357 24.176L35.5399 24.185ZM38.4715 22.35C39.1114 21.5412 39.0987 20.8024 38.6692 20.4453C38.2366 20.0858 37.4901 20.1999 36.8469 20.8958M38.4715 22.35C37.9065 23.0647 37.1818 23.5464 36.6006 23.849C36.3097 24.0005 36.0538 24.1077 35.8702 24.1771C35.7783 24.2118 35.7045 24.2371 35.6534 24.2538C35.6278 24.2622 35.6079 24.2684 35.5942 24.2725C35.5874 24.2746 35.5821 24.2762 35.5784 24.2772L35.5742 24.2785L35.573 24.2788L35.5725 24.279C35.5724 24.279 35.5725 24.279 35.5399 24.185" fill="#592F72"/>
<path fill-rule="evenodd" clip-rule="evenodd" d="M34.2415 23.7431C33.5093 23.4741 32.5784 23.2049 31.7593 23.1884C31.3553 23.181 31.0164 23.2577 30.7715 23.3793C30.5246 23.5019 30.3838 23.664 30.3498 23.823C30.3171 23.9756 30.3771 24.1531 30.5983 24.3275C30.8222 24.5042 31.2045 24.6705 31.7884 24.7836C32.9607 25.0121 33.8829 24.8422 34.5109 24.6167C34.8252 24.5038 35.066 24.3769 35.2277 24.2787C35.2733 24.251 35.3125 24.2257 35.3454 24.2036C35.2908 24.1778 35.222 24.146 35.141 24.1096C34.9193 24.0101 34.6064 23.8771 34.2415 23.7431ZM35.5389 24.188C35.6096 24.262 35.6095 24.262 35.6095 24.2621L35.609 24.2625L35.6079 24.2634L35.6043 24.2664C35.6011 24.2689 35.5967 24.2725 35.5909 24.277C35.5793 24.2861 35.5623 24.299 35.5401 24.3151C35.4956 24.3474 35.4301 24.3923 35.3443 24.4444C35.1726 24.5487 34.9192 24.682 34.5899 24.8003C33.9306 25.037 32.9683 25.2129 31.7515 24.9758C31.1498 24.8593 30.7287 24.6833 30.4666 24.4765C30.2018 24.2676 30.0934 24.0206 30.145 23.7794C30.1953 23.5446 30.3917 23.3435 30.6701 23.2052C30.9505 23.066 31.325 22.9842 31.7579 22.9921C32.6148 23.0094 33.5741 23.2891 34.313 23.5605C34.6838 23.6967 35.0016 23.8318 35.2269 23.9329C35.3395 23.9834 35.4291 24.0255 35.4907 24.0551C35.5215 24.0698 35.5453 24.0814 35.5614 24.0894C35.5695 24.0934 35.5757 24.0965 35.5799 24.0986L35.5847 24.101L35.5863 24.1018C35.5863 24.1018 35.5865 24.1019 35.5389 24.188ZM35.5389 24.188L35.5863 24.1018C35.6167 24.1172 35.6378 24.1454 35.6424 24.1774C35.647 24.2093 35.6346 24.241 35.6095 24.2621L35.5389 24.188Z" fill="#592F72"/>
<path fill-rule="evenodd" clip-rule="evenodd" d="M27.8626 6.53541C27.3367 6.69974 26.8601 7.36956 27.0197 8.5709C27.1361 9.45485 27.4903 10.4198 27.8179 11.1673C27.9813 11.5402 28.1375 11.8574 28.2527 12.0813C28.2873 12.1487 28.3183 12.2076 28.3446 12.257C28.3843 12.1756 28.4352 12.0684 28.4932 11.9398C28.6327 11.6306 28.813 11.1988 28.9762 10.7081C29.3046 9.72103 29.5564 8.51739 29.2916 7.59348C29.1599 7.13396 28.9285 6.82859 28.6709 6.65941C28.4144 6.491 28.1261 6.45306 27.8626 6.53541ZM28.3497 12.479C28.4434 12.5245 28.4434 12.5245 28.4435 12.5245L28.4438 12.5239L28.4447 12.5221L28.4482 12.5153C28.4513 12.5094 28.4559 12.5007 28.4617 12.4893C28.4734 12.4664 28.4904 12.4328 28.5118 12.3895C28.5546 12.3028 28.615 12.1771 28.6858 12.0204C28.8271 11.7072 29.01 11.2693 29.1757 10.7712C29.5052 9.78056 29.7748 8.52986 29.4931 7.54712C29.3516 7.05331 29.0962 6.70223 28.7874 6.49948C28.4775 6.29597 28.1199 6.24653 27.792 6.34899C27.135 6.55429 26.6468 7.3429 26.8125 8.5901C26.9324 9.50038 27.295 10.4847 27.6251 11.2379C27.7905 11.6153 27.9485 11.9363 28.0652 12.163C28.1235 12.2764 28.1716 12.3662 28.2051 12.4279C28.2219 12.4587 28.235 12.4825 28.244 12.4986L28.2543 12.517L28.257 12.5217L28.2579 12.5233C28.2579 12.5233 28.2579 12.5235 28.3497 12.479ZM28.3497 12.479L28.2579 12.5233C28.2765 12.556 28.3128 12.5769 28.3518 12.5771C28.3909 12.5773 28.4263 12.557 28.4435 12.5245L28.3497 12.479Z" fill="#592F72"/>
<path fill-rule="evenodd" clip-rule="evenodd" d="M28.1135 8.37145C28.1711 8.37505 28.2159 8.42181 28.2136 8.47589L28.1093 8.46937L28.005 8.46285C28.0073 8.40877 28.0559 8.36785 28.1135 8.37145ZM28.4569 12.4669C28.7826 14.0926 29.3861 16.0576 30.8654 17.8049C31.1172 18.1023 31.3665 18.3941 31.6121 18.6817C34.5927 22.1705 37.035 25.0294 36.7933 29.5635C36.7904 29.6175 36.7414 29.658 36.6838 29.6538C36.6262 29.6497 36.5818 29.6025 36.5847 29.5485C36.8223 25.0928 34.4316 22.2931 31.4433 18.7936C31.2002 18.509 30.9532 18.2198 30.7034 17.9246C29.1924 16.14 28.5802 14.1378 28.2517 12.4983C28.0786 11.6325 28.0172 10.6228 27.9988 9.83216C27.9895 9.4363 27.9911 9.09426 27.9949 8.85112C27.9969 8.72953 27.9994 8.63263 28.0014 8.56605C28.0024 8.53276 28.0033 8.50704 28.004 8.48961L28.0047 8.46976L28.0049 8.46465L28.005 8.46285C28.005 8.46282 28.005 8.46285 28.1093 8.46937L28.2136 8.47589L28.2136 8.47743L28.2134 8.48227L28.2126 8.50157C28.212 8.51863 28.2111 8.54396 28.2101 8.57684C28.2081 8.64261 28.2056 8.73861 28.2037 8.85923C28.1999 9.10049 28.1984 9.44007 28.2075 9.83306C28.2258 10.6201 28.2869 11.6171 28.4569 12.4669Z" fill="#592F72"/>
<path fill-rule="evenodd" clip-rule="evenodd" d="M26.7159 15.8818L26.7166 15.8821L26.7193 15.8834L26.7306 15.8887C26.7406 15.8935 26.7558 15.9006 26.776 15.9099C26.8165 15.9284 26.8771 15.9558 26.9571 15.9907C27.1172 16.0604 27.3548 16.1603 27.664 16.2799C28.2824 16.5191 29.1872 16.8376 30.3303 17.1536C30.386 17.169 30.419 17.2236 30.4041 17.2755C30.3892 17.3275 30.332 17.3572 30.2763 17.3418C29.1253 17.0236 28.2135 16.7027 27.5889 16.4611C27.2766 16.3403 27.0361 16.2393 26.8734 16.1684C26.7921 16.1329 26.7302 16.1049 26.6884 16.0858C26.6676 16.0762 26.6518 16.0688 26.6411 16.0638L26.6289 16.0581L26.6258 16.0566L26.6247 16.056C26.6247 16.056 26.6246 16.056 26.6702 15.9689L26.6247 16.056C26.5728 16.0311 26.5511 15.9718 26.5763 15.9237C26.6015 15.8756 26.664 15.8568 26.7159 15.8818Z" fill="#592F72"/>
<path fill-rule="evenodd" clip-rule="evenodd" d="M31.8013 13.6252C31.8568 13.6414 31.8889 13.6964 31.8732 13.7481L31.7728 13.7188C31.8732 13.7481 31.8732 13.7481 31.8732 13.7481L31.8713 13.7543L31.8658 13.7721C31.8609 13.7878 31.8537 13.8108 31.8442 13.8406C31.8253 13.9002 31.7973 13.9868 31.7611 14.0954C31.6888 14.3124 31.5835 14.6171 31.4518 14.9679C31.1887 15.6689 30.8186 16.5575 30.393 17.3004C30.366 17.3476 30.3028 17.3642 30.2519 17.3375C30.2009 17.3109 30.1816 17.251 30.2086 17.2038C30.6269 16.4738 30.9928 15.5958 31.2547 14.8983C31.3855 14.55 31.49 14.2475 31.5617 14.0322C31.5976 13.9245 31.6253 13.8387 31.644 13.7799C31.6534 13.7504 31.6605 13.7278 31.6652 13.7125L31.6706 13.6952L31.6719 13.6909L31.6723 13.6896C31.6881 13.6378 31.7458 13.609 31.8013 13.6252Z" fill="#592F72"/>
<path fill-rule="evenodd" clip-rule="evenodd" d="M32.9247 20.2481C32.9362 20.3014 32.8998 20.3524 32.8433 20.3618C31.9177 20.5167 30.9752 20.5064 30.2659 20.4579C29.9108 20.4336 29.6133 20.3996 29.4042 20.3717C29.2997 20.3578 29.2173 20.3453 29.1608 20.3364C29.1325 20.3319 29.1107 20.3282 29.096 20.3257L29.0791 20.3228L29.0746 20.322L29.0735 20.3218L29.0731 20.3217C29.0731 20.3217 29.073 20.3217 29.0901 20.2253L29.0731 20.3217C29.0163 20.3114 28.9777 20.2599 28.9872 20.2067C28.9966 20.1534 29.0504 20.1187 29.1073 20.129C29.1073 20.129 29.1073 20.129 29.1073 20.129L29.1075 20.129L29.1084 20.1292L29.1123 20.1299L29.128 20.1326C29.142 20.135 29.1629 20.1385 29.1903 20.1429C29.2451 20.1516 29.3257 20.1637 29.4282 20.1774C29.6333 20.2048 29.9261 20.2382 30.2756 20.2621C30.9754 20.31 31.899 20.3196 32.8015 20.1686C32.858 20.1591 32.9131 20.1947 32.9247 20.2481Z" fill="#592F72"/>
<path fill-rule="evenodd" clip-rule="evenodd" d="M34.6172 17.2477C34.6727 17.2635 34.7053 17.3184 34.6899 17.3703L34.5893 17.3415C34.6899 17.3703 34.6899 17.3702 34.6899 17.3703L34.6897 17.3708L34.6894 17.372L34.688 17.3766C34.6868 17.3806 34.685 17.3864 34.6826 17.394C34.6778 17.4092 34.6708 17.4314 34.6614 17.46C34.6426 17.5171 34.6146 17.5994 34.5773 17.701C34.5027 17.9041 34.3909 18.1847 34.2418 18.4949C33.945 19.1127 33.4954 19.8594 32.8892 20.3412C32.8457 20.3758 32.7798 20.3699 32.7419 20.3281C32.704 20.2864 32.7085 20.2245 32.7519 20.19C33.3232 19.7358 33.7579 19.0205 34.0511 18.4102C34.1971 18.1065 34.3067 17.8315 34.3797 17.6326C34.4162 17.5332 34.4436 17.4529 34.4617 17.3976C34.4708 17.3699 34.4776 17.3485 34.4821 17.3342C34.4844 17.327 34.486 17.3215 34.4871 17.318L34.4883 17.314L34.4886 17.313L34.4887 17.3128" fill="#592F72"/>
<path fill-rule="evenodd" clip-rule="evenodd" d="M35.6411 24.1689C35.6532 24.2222 35.6174 24.2735 35.561 24.2835C34.8726 24.406 33.9866 24.3702 33.2795 24.3056C32.9245 24.2732 32.612 24.2332 32.3882 24.2013C32.2762 24.1854 32.1864 24.1715 32.1244 24.1615C32.0935 24.1566 32.0694 24.1526 32.0531 24.1498L32.0345 24.1467L32.0296 24.1458L32.028 24.1455C32.028 24.1455 32.0279 24.1455 32.0444 24.0491L32.061 23.9526L32.0624 23.9528L32.0668 23.9536L32.0847 23.9567C32.1005 23.9593 32.1239 23.9632 32.1543 23.9681C32.2151 23.9779 32.3036 23.9916 32.4141 24.0073C32.6351 24.0388 32.9438 24.0782 33.2942 24.1102C33.9978 24.1745 34.8591 24.2077 35.517 24.0906C35.5734 24.0806 35.6289 24.1156 35.6411 24.1689ZM31.9414 24.0309C31.9505 23.9777 32.0041 23.9426 32.061 23.9526L32.0444 24.0491L32.028 24.1455C31.9711 24.1355 31.9322 24.0842 31.9414 24.0309Z" fill="#592F72"/>
<path fill-rule="evenodd" clip-rule="evenodd" d="M37.3926 21.8396C37.4454 21.8627 37.4694 21.9211 37.4462 21.9702L37.3506 21.9283C37.4462 21.9702 37.4462 21.9701 37.4462 21.9702L37.446 21.9706L37.4455 21.9716L37.4438 21.9752L37.4371 21.989C37.4312 22.0011 37.4225 22.0187 37.4111 22.0412C37.3883 22.0863 37.3547 22.1512 37.311 22.2312C37.2236 22.391 37.096 22.6113 36.9345 22.8534C36.613 23.3353 36.1513 23.9134 35.5994 24.2684C35.5525 24.2987 35.4873 24.2867 35.4539 24.2417C35.4204 24.1967 35.4314 24.1358 35.4784 24.1055C35.9955 23.7728 36.4396 23.2215 36.7567 22.746C36.9145 22.5095 37.0394 22.2941 37.1247 22.1379C37.1673 22.0598 37.2001 21.9967 37.2221 21.9532C37.2331 21.9314 37.2414 21.9146 37.2469 21.9033L37.2531 21.8905L37.2546 21.8874L37.2549 21.8867" fill="#592F72"/>
<path fill-rule="evenodd" clip-rule="evenodd" d="M53.9445 27.4719C54.0021 27.4706 54.0511 27.5135 54.054 27.5677L53.9498 27.57C54.054 27.5677 54.054 27.5676 54.054 27.5677L54.0541 27.568L54.0541 27.5689L54.0543 27.5721L54.0548 27.5843C54.0553 27.5949 54.0558 27.6106 54.0565 27.631C54.0577 27.6719 54.059 27.732 54.0592 27.8092C54.0598 27.9635 54.0563 28.1867 54.0402 28.4629C54.0082 29.0151 53.9259 29.7803 53.7248 30.6327C53.3231 32.3357 52.4446 34.3981 50.5328 35.7993C50.4879 35.8322 50.4222 35.8239 50.386 35.7808C50.3498 35.7378 50.3568 35.6762 50.4017 35.6433C52.2615 34.2803 53.1242 32.267 53.5209 30.5854C53.719 29.7456 53.8001 28.9912 53.8318 28.447C53.8476 28.175 53.851 27.9556 53.8504 27.8046C53.8502 27.7291 53.8489 27.6707 53.8477 27.6313C53.8472 27.6117 53.8466 27.5967 53.8462 27.5868L53.8457 27.5757L53.8455 27.5731L53.8455 27.5725C53.8426 27.5183 53.8869 27.4732 53.9445 27.4719Z" fill="#592F72"/>
<path d="M55.0157 26.1003L54.9175 24.6819L54.38 25.6665L53.8712 24.7203L53.4947 25.6991L52.825 24.7586L52.9232 26.177C52.418 26.5192 52.1054 27.0913 52.1491 27.726C52.2172 28.7262 53.1346 29.5062 54.1972 29.4686C55.2598 29.431 56.0656 28.589 55.9975 27.5887C55.9548 26.9491 55.5652 26.4033 55.0157 26.1003Z" fill="#FFF9EF"/>
<path fill-rule="evenodd" clip-rule="evenodd" d="M54.9402 24.5897C54.9863 24.5997 55.0204 24.6373 55.0235 24.6815L55.1181 26.0475C55.6707 26.3717 56.0598 26.9333 56.1035 27.5884C56.1753 28.6427 55.326 29.5304 54.2057 29.57C53.0857 29.6096 52.1186 28.7875 52.0468 27.7331M54.9402 24.5897C54.8941 24.5797 54.8474 24.5997 54.8261 24.6387ZM54.8261 24.6387L54.3813 25.4536ZM54.3813 25.4536L53.966 24.6812C53.947 24.6459 53.9078 24.6241 53.8663 24.6256C53.8248 24.6271 53.7888 24.6517 53.7748 24.6881L53.4674 25.4872L52.9131 24.7089C52.8866 24.6717 52.8374 24.6551 52.7928 24.6684C52.7483 24.6817 52.7196 24.7216 52.7226 24.7658L52.8172 26.1319C52.312 26.4952 52.002 27.0827 52.0468 27.7331M54.84 25.0479L54.475 25.7164C54.4573 25.7489 54.4214 25.7688 54.3821 25.7679C54.3429 25.767 54.3069 25.7455 54.289 25.7122L53.8901 24.9705L53.5949 25.7379C53.5816 25.7724 53.5488 25.7964 53.5098 25.8001C53.4708 25.8038 53.4324 25.7866 53.4103 25.7555L52.9559 25.1175L53.0292 26.1766C53.0315 26.2098 53.0158 26.2414 52.9875 26.2605C52.5092 26.5845 52.2139 27.1258 52.2552 27.7256L52.2552 27.7257C52.3195 28.6716 53.1872 29.4094 54.1924 29.3739C55.1974 29.3383 55.9595 28.5419 55.8951 27.5958L55.8951 27.5956C55.8548 26.9909 55.4866 26.4748 54.9665 26.188C54.9356 26.171 54.9156 26.1407 54.9133 26.1075L54.84 25.0479Z" fill="#FFF9EF"/>
<path fill-rule="evenodd" clip-rule="evenodd" d="M39.0659 26.3861C39.1226 26.3976 39.1597 26.45 39.1489 26.5029L38.2691 30.8037C38.2583 30.8566 38.2036 30.8902 38.1469 30.8786C38.0903 30.867 38.0532 30.8147 38.064 30.7617L38.9438 26.461C38.9546 26.408 39.0093 26.3745 39.0659 26.3861Z" fill="#592F72"/>
<path d="M40.4753 24.7371L40.759 23.3505L39.9715 24.1705L39.7279 23.1396L39.0991 23.9921L38.6969 22.9287L38.4132 24.3153C37.8304 24.5257 37.3723 25.0011 37.2449 25.6239C37.0447 26.6027 37.7315 27.5673 38.7758 27.7809C39.8227 27.9951 40.831 27.3747 41.0307 26.3984C41.1607 25.776 40.9288 25.1595 40.4753 24.7371Z" fill="#FFF9EF"/>
<path fill-rule="evenodd" clip-rule="evenodd" d="M38.6909 22.8326C38.7378 22.8303 38.7814 22.8579 38.7973 22.8999L39.1302 23.7803L39.6437 23.0842C39.6672 23.0524 39.7088 23.0373 39.7497 23.0456C39.7905 23.054 39.8229 23.0843 39.8319 23.1226L40.0308 23.9645L40.6828 23.2856C40.7139 23.2532 40.7648 23.2449 40.807 23.2655C40.8493 23.286 40.8725 23.3302 40.8636 23.3734L40.5904 24.709C41.0412 25.1523 41.2685 25.7839 41.1353 26.4215M38.3233 24.2452L38.5965 22.9096C38.6053 22.8664 38.644 22.8349 38.6909 22.8326M38.7298 23.3024L38.5179 24.3382C38.5113 24.3706 38.4876 24.3972 38.455 24.409C37.9029 24.6082 37.47 25.0581 37.3495 25.6469C37.1602 26.5726 37.8098 27.4849 38.7975 27.687C39.7877 27.8895 40.7414 27.3028 40.9303 26.3793L40.9303 26.3789C41.0533 25.7907 40.8343 25.2077 40.405 24.8078C40.3796 24.7842 40.3683 24.7504 40.3749 24.7181L40.5868 23.6823L40.052 24.2393C40.026 24.2663 39.9857 24.2769 39.9477 24.2668C39.9096 24.2567 39.8803 24.2275 39.8717 24.1913L39.6807 23.3827L39.1875 24.0513C39.1654 24.0813 39.127 24.0966 39.088 24.091C39.0491 24.0854 39.0162 24.0597 39.0029 24.0247L38.7298 23.3024Z" fill="#FFF9EF"/>
<path fill-rule="evenodd" clip-rule="evenodd" d="M62.2379 29.3971C62.2378 29.3971 62.2378 29.3971 62.2377 29.3971L62.2376 29.3972L62.2349 29.3978C62.2322 29.3983 62.228 29.3993 62.2221 29.4007C62.2103 29.4035 62.1922 29.4081 62.1683 29.415C62.1204 29.4288 62.0492 29.4517 61.9589 29.4878C61.7783 29.5599 61.5213 29.6845 61.2215 29.8934C60.6224 30.3109 59.8496 31.0671 59.1762 32.4196C59.152 32.4682 59.0899 32.4881 59.0376 32.4641C58.9852 32.44 58.9624 32.3812 58.9866 32.3326C59.6735 30.953 60.4671 30.1717 61.0943 29.7346C61.4076 29.5163 61.6787 29.3844 61.873 29.3068C61.9701 29.268 62.048 29.2428 62.1023 29.2272C62.1295 29.2194 62.1508 29.2139 62.1657 29.2104C62.1731 29.2086 62.1789 29.2073 62.1831 29.2064L62.1881 29.2053L62.1896 29.205L62.1901 29.2049L62.1903 29.2049C62.1904 29.2049 62.1905 29.2049 62.2141 29.301L62.1905 29.2049C62.2466 29.194 62.3028 29.2282 62.3158 29.2813C62.3288 29.3344 62.294 29.3861 62.238 29.3971C62.238 29.3971 62.238 29.3971 62.2379 29.3971C62.2379 29.3971 62.2379 29.3971 62.2379 29.3971Z" fill="#592F72"/>
<path d="M64.3886 29.0971L65.6357 28.3324L64.4486 28.3728L65.0482 27.5015L63.9504 27.6709L64.4576 26.6725L63.2105 27.4372C62.6298 27.1922 61.9387 27.2182 61.3781 27.5619C60.4963 28.1026 60.2672 29.2223 60.8659 30.0658C61.4646 30.9093 62.6622 31.1542 63.544 30.6136C64.1051 30.2674 64.4023 29.6896 64.3886 29.0971Z" fill="#605575"/>
<path fill-rule="evenodd" clip-rule="evenodd" d="M64.5245 26.5976C64.5603 26.6272 64.5712 26.6751 64.5511 26.7146L64.1313 27.5409L65.0277 27.4026C65.0686 27.3963 65.1103 27.4135 65.1337 27.4465C65.1571 27.4794 65.1577 27.5218 65.1354 27.5543L64.6458 28.2657L65.6282 28.2323C65.6752 28.2307 65.7183 28.2588 65.7336 28.3011C65.7488 28.3433 65.7323 28.3891 65.6934 28.413L64.4924 29.1493C64.4883 29.755 64.1761 30.3398 63.602 30.694L63.6017 30.6941C62.6722 31.264 61.4097 31.0058 60.7786 30.1167C60.1475 29.2275 60.389 28.0471 61.3185 27.4772C61.8925 27.1253 62.5964 27.0894 63.1971 27.3242L64.398 26.5878C64.437 26.564 64.4888 26.568 64.5245 26.5976ZM64.1994 26.9467L63.2682 27.5177C63.2389 27.5357 63.2015 27.5382 63.1689 27.5245C62.6196 27.2927 61.966 27.3174 61.4358 27.6425C60.6017 28.1539 60.3851 29.2129 60.9514 30.0107C61.5176 30.8086 62.6502 31.0403 63.4843 30.529C64.0153 30.2013 64.2963 29.6549 64.2833 29.0945C64.2825 29.0613 64.2997 29.0303 64.329 29.0124L65.2602 28.4414L64.4542 28.4688C64.415 28.4702 64.3777 28.4507 64.3577 28.4184C64.3378 28.3862 64.3385 28.3466 64.3595 28.3159L64.8296 27.6329L63.969 27.7657C63.9304 27.7717 63.891 27.7567 63.8669 27.7269C63.8429 27.6971 63.8383 27.6576 63.855 27.6247L64.1994 26.9467Z" fill="#605575"/>
<path d="M69.9199 74.3919C70.3663 62.0839 58.3203 59.8954 62.0003 47.6952C64.2319 40.3001 62.6086 34.192 60.984 30.5274C47.1242 30.8366 35.8823 27.5043 30.3927 25.0681C29.461 27.105 27.9701 31.5254 27.6504 34.1381C26.1374 46.4494 36.8681 46.2084 28.9683 59.9171C25.0582 66.6984 21.5031 79.8229 40.2672 87.3694C59.0313 94.9159 69.4761 86.7004 69.9199 74.3919Z" fill="#592F72"/>
<path d="M55.3212 49.8082C56.1721 50.1188 57.2567 50.2428 58.3642 49.5551C61.4801 47.6122 61.2928 42.5498 57.6701 41.6646C54.6245 40.9205 55.4669 45.6354 53.1312 45.1911C51.7604 44.9313 51.8889 39.9 51.8889 39.9C43.6683 37.9687 38.1137 30.3971 38.1137 30.3971C35.3042 34.1409 30.2986 34.4149 30.2986 34.4149C28.9164 37.6575 27.8155 42.083 28.8183 46.9698C30.8642 56.9369 41.727 57.6654 41.727 57.6654L38.882 71.5737C38.2743 74.5447 40.3568 77.4789 43.5345 78.1289C46.7123 78.7789 49.7797 76.8982 50.3875 73.9272L53.8544 56.9787C54.626 53.2068 55.3212 49.8082 55.3212 49.8082Z" fill="#FFD3DB"/>
<path d="M40.7731 62.3313C47.5816 61.7129 48.4786 57.2199 48.4786 57.2199C48.4786 57.2199 45.0993 58.1072 41.7276 57.6647L40.7731 62.3313Z" fill="#FFB5C3"/>
<path fill-rule="evenodd" clip-rule="evenodd" d="M56.66 44.1858C56.7336 44.1043 56.8653 44.0961 56.954 44.1675L59.0895 45.8868C59.1782 45.9582 59.1904 46.0822 59.1168 46.1638C59.0431 46.2453 58.9115 46.2535 58.8227 46.1821L56.6872 44.4628C56.5985 44.3914 56.5863 44.2674 56.66 44.1858Z" fill="#592F72"/>
<path fill-rule="evenodd" clip-rule="evenodd" d="M58.0272 45.0294C58.1142 45.1027 58.1235 45.2269 58.0478 45.3068L56.7162 46.7134C56.6405 46.7933 56.5086 46.7987 56.4216 46.7254C56.3346 46.6522 56.3253 46.528 56.401 46.4481L57.7326 45.0415C57.8083 44.9616 57.9401 44.9562 58.0272 45.0294Z" fill="#592F72"/>
<path fill-rule="evenodd" clip-rule="evenodd" d="M30.2448 38.0123C30.9627 37.3248 32.0312 36.9885 33.1299 37.2133C34.226 37.4375 35.0793 38.1668 35.4696 39.081C35.5129 39.1825 35.4614 39.2957 35.3545 39.3337C35.2476 39.3718 35.1259 39.3204 35.0826 39.2189C34.7429 38.4232 34.0017 37.7912 33.0515 37.5968C32.0987 37.4019 31.1715 37.6926 30.5466 38.291C30.4669 38.3673 30.3348 38.3668 30.2514 38.2898C30.1681 38.2129 30.1651 38.0886 30.2448 38.0123Z" fill="#592F72"/>
<path fill-rule="evenodd" clip-rule="evenodd" d="M43.3791 40.6985C44.097 40.011 45.1654 39.6748 46.2642 39.8995C47.3602 40.1237 48.2135 40.853 48.6038 41.7673C48.6472 41.8688 48.5957 41.9819 48.4888 42.02C48.3819 42.058 48.2602 42.0066 48.2168 41.9051C47.8772 41.1095 47.136 40.4774 46.1858 40.283C45.233 40.0881 44.3058 40.3788 43.6809 40.9772C43.6012 41.0536 43.469 41.053 43.3857 40.9761C43.3024 40.8991 43.2994 40.7748 43.3791 40.6985Z" fill="#592F72"/>
<path fill-rule="evenodd" clip-rule="evenodd" d="M39.8375 38.5786C39.9508 38.6018 40.025 38.7064 40.0034 38.8123C39.9888 38.8834 39.9745 38.9562 39.9599 39.0304C39.8831 39.4214 39.7995 39.847 39.6421 40.2207C39.4511 40.6742 39.1415 41.0783 38.5811 41.2838C38.134 41.4478 37.9504 41.7345 37.9767 41.9575C38.0022 42.1729 38.2441 42.4789 39.0111 42.6457C39.1241 42.6703 39.1969 42.7758 39.1737 42.8814C39.1506 42.987 39.0402 43.0526 38.9273 43.0281C38.1015 42.8485 37.6179 42.4666 37.5617 41.9906C37.5064 41.5222 37.8849 41.114 38.4205 40.9176C38.8427 40.7627 39.0881 40.4602 39.2533 40.0679C39.3946 39.7322 39.4699 39.3507 39.5471 38.9591C39.5622 38.8825 39.5774 38.8055 39.5932 38.7284C39.6148 38.6225 39.7242 38.5555 39.8375 38.5786Z" fill="#592F72"/>
<path fill-rule="evenodd" clip-rule="evenodd" d="M42.6389 48.9789C42.6834 49.08 42.6331 49.1936 42.5267 49.2327C40.1962 50.0889 38.1279 49.735 36.6475 49.1688C35.908 48.886 35.3141 48.55 34.9045 48.2843C34.6996 48.1514 34.5404 48.0359 34.4317 47.9529C34.3774 47.9115 34.3357 47.8781 34.3071 47.8548C34.2929 47.8432 34.2819 47.8341 34.2743 47.8277L34.2655 47.8202L34.263 47.818L34.2622 47.8174L34.262 47.8171C34.2619 47.817 34.2618 47.817 34.4012 47.6744" fill="#592F72"/>
<path d="M47.6506 54.179C49.4304 54.5431 51.1492 53.4892 51.4896 51.8252C51.83 50.1612 50.6631 48.517 48.8832 48.153C47.1034 47.7889 45.3846 48.8427 45.0442 50.5067C44.7038 52.1708 45.8707 53.8149 47.6506 54.179Z" fill="#FFB5C3"/>
<path d="M28.8541 44.0518C28.7166 44.0237 28.5824 44.0066 28.4472 43.9944C28.4918 44.9614 28.6078 45.956 28.8138 46.9689C29.0296 48.0277 29.3496 48.9816 29.7415 49.8394C30.6051 49.4418 31.2638 48.6856 31.461 47.7216C31.8007 46.0606 30.6333 44.4158 28.8541 44.0518Z" fill="#FFB5C3"/>
<path d="M34.3725 25.6345C34.9014 23.8141 33.5159 21.8311 31.2777 21.2053C29.0396 20.5796 26.7964 21.548 26.2674 23.3684C25.7384 25.1888 27.124 27.1718 29.3621 27.7976C31.6003 28.4233 33.8435 27.4549 34.3725 25.6345Z" fill="#FFF0D9"/>
<path fill-rule="evenodd" clip-rule="evenodd" d="M26.3664 23.3952C25.8567 25.1522 27.193 27.0894 29.3887 27.7042C31.5843 28.3191 33.7593 27.3652 34.269 25.6082C34.7787 23.8512 33.4424 21.914 31.2467 21.2992C29.051 20.6843 26.876 21.6382 26.3664 23.3952ZM29.3341 27.8923C27.054 27.2538 25.6182 25.223 26.1649 23.3388C26.7115 21.4545 29.0211 20.4726 31.3013 21.1111C33.5814 21.7496 35.0171 23.7804 34.4705 25.6646C33.9239 27.5489 31.6142 28.5308 29.3341 27.8923Z" fill="#592F72"/>
<path fill-rule="evenodd" clip-rule="evenodd" d="M26.2568 23.4608C26.2567 23.4608 26.2567 23.4608 26.2689 23.3637C26.2811 23.2666 26.2812 23.2666 26.2813 23.2666L26.2841 23.267L26.2927 23.2682C26.3002 23.2692 26.3113 23.2708 26.3259 23.2729C26.3552 23.2772 26.3984 23.2836 26.4547 23.2923C26.5672 23.3098 26.7319 23.3365 26.9411 23.3737C27.3597 23.4481 27.9567 23.5644 28.6716 23.732C30.1011 24.0671 32.0042 24.6081 33.8954 25.4312C37.67 27.074 41.4412 29.8624 41.2293 34.4156C41.2268 34.4697 41.1781 34.5104 41.1205 34.5066C41.0629 34.5028 41.0182 34.4559 41.0207 34.4019C41.2266 29.9786 37.5697 27.2445 33.8118 25.6089C31.9368 24.7928 30.0475 24.2556 28.6262 23.9224C27.9157 23.7558 27.3227 23.6403 26.9076 23.5665C26.7001 23.5296 26.537 23.5032 26.426 23.4859C26.3705 23.4773 26.328 23.471 26.2995 23.4669C26.2852 23.4648 26.2744 23.4633 26.2672 23.4623L26.2592 23.4612L26.2568 23.4608ZM26.1652 23.3497C26.1719 23.296 26.2238 23.2588 26.2811 23.2666L26.2689 23.3637L26.2568 23.4608C26.1995 23.4531 26.1585 23.4033 26.1652 23.3497Z" fill="#592F72"/>
<path fill-rule="evenodd" clip-rule="evenodd" d="M28.7114 21.0648C28.7636 21.0431 28.8258 21.0657 28.8503 21.1153L30.3812 24.2148C30.4058 24.2644 30.3833 24.3223 30.3312 24.344C30.279 24.3658 30.2168 24.3432 30.1923 24.2935L28.6614 21.1941C28.6368 21.1444 28.6593 21.0865 28.7114 21.0648Z" fill="#592F72"/>
<path fill-rule="evenodd" clip-rule="evenodd" d="M30.9809 21.0419C31.0357 21.0262 31.0947 21.0555 31.1129 21.1074L32.4356 24.8879C32.4538 24.9397 32.4241 24.9945 32.3694 25.0102C32.3147 25.0259 32.2556 24.9966 32.2374 24.9447L30.9147 21.1642C30.8965 21.1123 30.9262 21.0576 30.9809 21.0419Z" fill="#592F72"/>
<path fill-rule="evenodd" clip-rule="evenodd" d="M32.9115 25.0308C32.9597 25.0618 32.973 25.123 32.9413 25.1675L30.894 28.0397C30.8623 28.0842 30.7976 28.0951 30.7494 28.0641C30.7012 28.0331 30.6879 27.972 30.7196 27.9275L32.7669 25.0553C32.7986 25.0108 32.8634 24.9999 32.9115 25.0308Z" fill="#592F72"/>
<path fill-rule="evenodd" clip-rule="evenodd" d="M30.8956 24.3376C30.9421 24.3708 30.9522 24.4325 30.9181 24.4753L28.519 27.4919C28.4849 27.5347 28.4196 27.5426 28.3731 27.5094C28.3266 27.4762 28.3165 27.4146 28.3506 27.3717L30.7497 24.3551C30.7838 24.3123 30.8491 24.3044 30.8956 24.3376Z" fill="#592F72"/>
<path fill-rule="evenodd" clip-rule="evenodd" d="M28.8009 23.8049C28.8252 23.8546 28.8026 23.9124 28.7503 23.934L26.2836 24.9513C26.2313 24.9729 26.1692 24.95 26.1449 24.9003C26.1206 24.8506 26.1432 24.7928 26.1955 24.7712L28.6622 23.7539C28.7145 23.7323 28.7766 23.7552 28.8009 23.8049Z" fill="#592F72"/>
<path fill-rule="evenodd" clip-rule="evenodd" d="M48.1951 21.8994C48.244 21.9293 48.2589 21.9902 48.2283 22.0354L48.1398 21.9812L48.0513 21.927C48.0818 21.8818 48.1462 21.8695 48.1951 21.8994ZM48.1398 21.9812C48.0513 21.927 48.0513 21.927 48.0513 21.927L48.0506 21.928L48.0488 21.9307L48.0419 21.941C48.0358 21.9501 48.0268 21.9636 48.0151 21.9815C47.9916 22.0173 47.9571 22.0704 47.9126 22.1401C47.8238 22.2794 47.6954 22.4853 47.5369 22.7517C47.22 23.2846 46.7824 24.0598 46.2992 25.0307C45.3331 26.972 44.184 29.6968 43.4534 32.8296C43.4411 32.8823 43.4769 32.9354 43.5332 32.9484C43.5895 32.9613 43.6451 32.9291 43.6574 32.8765C44.3839 29.7613 45.527 27.0502 46.4888 25.1177C46.9696 24.1515 47.4049 23.3803 47.7198 22.8509C47.8773 22.5863 48.0046 22.382 48.0925 22.2442C48.1364 22.1752 48.1705 22.1229 48.1935 22.0878C48.2051 22.0703 48.2138 22.0571 48.2197 22.0484L48.2262 22.0385L48.2278 22.0361L48.2283 22.0354C48.2283 22.0354 48.2283 22.0354 48.1398 21.9812Z" fill="#592F72"/>
<path fill-rule="evenodd" clip-rule="evenodd" d="M50.6085 24.1945C50.6611 24.1736 50.7229 24.1972 50.7465 24.2472C50.7701 24.2972 50.7466 24.3547 50.694 24.3756L50.6572 24.2976C50.694 24.3756 50.6941 24.3756 50.694 24.3756L50.6922 24.3763L50.687 24.3784L50.6669 24.3862C50.6492 24.3932 50.6231 24.4033 50.5891 24.4163C50.5211 24.4423 50.4217 24.4797 50.2957 24.5256C50.0438 24.6175 49.6854 24.7435 49.259 24.88C48.407 25.1528 47.2805 25.4688 46.1887 25.6384C46.1321 25.6472 46.0774 25.611 46.0665 25.5575C46.0556 25.504 46.0927 25.4536 46.1494 25.4448C47.2253 25.2776 48.3399 24.9653 49.1871 24.694C49.6103 24.5585 49.966 24.4335 50.2158 24.3424C50.3406 24.2968 50.439 24.2598 50.5061 24.2342C50.5396 24.2214 50.5653 24.2114 50.5826 24.2047L50.6021 24.197L50.6069 24.1951L50.6081 24.1946L50.6085 24.1945Z" fill="#592F72"/>
<path fill-rule="evenodd" clip-rule="evenodd" d="M49.6776 27.3082C49.731 27.289 49.7919 27.3146 49.8137 27.3653C49.8355 27.416 49.8099 27.4726 49.7566 27.4918L49.7221 27.4116C49.7566 27.4918 49.7566 27.4918 49.7566 27.4918L49.7546 27.4925L49.7491 27.4945C49.7442 27.4962 49.7371 27.4987 49.7277 27.5019C49.709 27.5085 49.6814 27.518 49.6455 27.5301C49.5737 27.5543 49.4688 27.5889 49.3357 27.6304C49.0697 27.7134 48.6909 27.8244 48.2395 27.9364C47.3376 28.1602 46.1411 28.3893 44.9717 28.4064C44.9141 28.4072 44.8654 28.364 44.863 28.3098C44.8606 28.2556 44.9054 28.211 44.963 28.2101C46.1086 28.1934 47.287 27.9684 48.1812 27.7465C48.6278 27.6357 49.0025 27.5259 49.2653 27.4439C49.3966 27.4029 49.5 27.3689 49.5704 27.3452C49.6056 27.3333 49.6325 27.324 49.6506 27.3177C49.6597 27.3145 49.6665 27.3121 49.671 27.3105L49.676 27.3088L49.6773 27.3083L49.6776 27.3082Z" fill="#592F72"/>
<path fill-rule="evenodd" clip-rule="evenodd" d="M46.5214 28.0993C46.5594 28.0595 46.6254 28.0571 46.6687 28.0939C47.0616 28.4273 47.5665 28.7797 47.9752 29.0498C48.1791 29.1846 48.3583 29.2984 48.4865 29.3785C48.5506 29.4186 48.6019 29.4501 48.6371 29.4717C48.6547 29.4825 48.6683 29.4907 48.6775 29.4963L48.6878 29.5025L48.691 29.5045L48.6912 29.5046C48.7404 29.5341 48.7558 29.5949 48.7257 29.6404C48.6955 29.6858 48.6313 29.6987 48.5821 29.6692L48.6367 29.5869C48.5821 29.6692 48.5821 29.6692 48.5821 29.6692L48.5783 29.6669L48.5676 29.6604C48.5582 29.6547 48.5444 29.6463 48.5265 29.6354C48.4907 29.6135 48.4388 29.5815 48.3741 29.5411C48.2447 29.4603 48.0639 29.3454 47.8581 29.2094C47.4473 28.9379 46.9338 28.5798 46.5311 28.238C46.4877 28.2012 46.4834 28.1391 46.5214 28.0993Z" fill="#592F72"/>
<path fill-rule="evenodd" clip-rule="evenodd" d="M45.8766 30.3654C45.9078 30.4118 45.8937 30.4721 45.8452 30.5002L43.9613 31.5904C43.9128 31.6184 43.8482 31.6036 43.8171 31.5573C43.7859 31.5109 43.8 31.4506 43.8485 31.4225L45.7324 30.3323C45.7809 30.3042 45.8455 30.319 45.8766 30.3654Z" fill="#592F72"/>
<path fill-rule="evenodd" clip-rule="evenodd" d="M42.9657 27.7158C43.0184 27.6951 43.0801 27.7189 43.1035 27.769L43.0082 27.8065L42.9128 27.844C42.8893 27.794 42.913 27.7366 42.9657 27.7158ZM43.0082 27.8065C42.9128 27.844 42.9128 27.844 42.9128 27.844L42.9149 27.8486L42.921 27.8615C42.9264 27.8729 42.9344 27.8896 42.9447 27.9111C42.9653 27.9542 42.9954 28.0165 43.0334 28.0937C43.1095 28.248 43.2173 28.4622 43.3444 28.7015C43.5978 29.1784 43.9308 29.7608 44.2431 30.1668C44.2773 30.2113 44.3427 30.2222 44.3891 30.1912C44.4355 30.1602 44.4454 30.099 44.4112 30.0546C44.1099 29.6629 43.7835 29.0932 43.5307 28.6175C43.4048 28.3804 43.2979 28.1681 43.2225 28.0151C43.1848 27.9386 43.155 27.8769 43.1347 27.8345C43.1245 27.8132 43.1167 27.7968 43.1114 27.7857L43.1055 27.7731L43.1035 27.769L43.0082 27.8065Z" fill="#592F72"/>
<path fill-rule="evenodd" clip-rule="evenodd" d="M44.5081 25.8868C44.5621 25.8692 44.6222 25.8965 44.6424 25.9477L44.5446 25.9796L44.4468 26.0115C44.4266 25.9603 44.454 25.9045 44.5081 25.8868ZM44.5446 25.9796L44.4468 26.0115L44.4513 26.0229L44.4641 26.0553C44.4754 26.0835 44.4917 26.1244 44.5123 26.1757C44.5535 26.2781 44.6117 26.4216 44.6798 26.5857C44.8158 26.9135 44.9916 27.3253 45.1498 27.6572C45.1736 27.7071 45.2355 27.7305 45.288 27.7095C45.3405 27.6884 45.3638 27.6308 45.34 27.5809C45.184 27.2537 45.0097 26.8457 44.8741 26.5186C44.8064 26.3553 44.7484 26.2125 44.7074 26.1105C44.6869 26.0596 44.6706 26.0188 44.6595 25.9908L44.6468 25.9587L44.6424 25.9477L44.5446 25.9796Z" fill="#592F72"/>
<path fill-rule="evenodd" clip-rule="evenodd" d="M44.1849 22.6091L44.1853 22.6103L44.1868 22.6142L44.1927 22.6299C44.1981 22.6438 44.2061 22.6645 44.2167 22.6915C44.238 22.7454 44.2698 22.8242 44.3116 22.9235C44.3953 23.122 44.5191 23.4018 44.6794 23.7265C45.0003 24.3767 45.4656 25.203 46.0454 25.916C46.0808 25.9596 46.0727 26.021 46.0272 26.0532C45.9818 26.0854 45.9162 26.0762 45.8807 26.0326C45.2875 25.303 44.8145 24.4619 44.4904 23.8052C44.3281 23.4764 44.2027 23.193 44.1178 22.9916C44.0753 22.8909 44.043 22.8106 44.0212 22.7554C44.0103 22.7278 44.002 22.7065 43.9965 22.6919L43.9902 22.6754L43.9886 22.6711L43.988 22.6696C43.988 22.6696 43.988 22.6695 44.0864 22.6393L43.988 22.6696C43.9688 22.618 43.9973 22.5626 44.0517 22.5459C44.1061 22.5292 44.1657 22.5575 44.1849 22.6091Z" fill="#592F72"/>
<path fill-rule="evenodd" clip-rule="evenodd" d="M45.8563 23.4655C45.9138 23.4639 45.9631 23.5066 45.9662 23.5608C45.9662 23.5608 45.9662 23.5608 45.9662 23.5608L45.9662 23.5612L45.9664 23.5631L45.9669 23.5709C45.9674 23.5779 45.9682 23.5884 45.9693 23.6022C45.9716 23.6296 45.9753 23.6698 45.981 23.7203C45.9924 23.8214 46.0118 23.9634 46.0434 24.1262C46.107 24.4538 46.2189 24.8581 46.4108 25.185C46.439 25.2329 46.421 25.2923 46.3707 25.3175C46.3204 25.3427 46.2568 25.3243 46.2286 25.2763C46.0202 24.9212 45.9032 24.492 45.838 24.1565C45.8053 23.9878 45.7852 23.8409 45.7734 23.736C45.7675 23.6835 45.7636 23.6414 45.7611 23.6123C45.7599 23.5978 45.7591 23.5864 45.7585 23.5787L45.7579 23.5697L45.7578 23.5673L45.7578 23.5667L45.7577 23.5665C45.7577 23.5664 45.7577 23.5664 45.862 23.5636L45.7577 23.5665C45.7546 23.5123 45.7987 23.467 45.8563 23.4655Z" fill="#592F72"/>
<path fill-rule="evenodd" clip-rule="evenodd" d="M45.3441 24.9504C45.3445 25.0046 45.298 25.0476 45.2403 25.0465L45.2397 24.9484C45.2403 25.0465 45.2403 25.0465 45.2403 25.0465L45.2393 25.0465L45.2367 25.0464L45.2267 25.0462C45.2179 25.0459 45.2049 25.0456 45.1879 25.0451C45.154 25.044 45.1042 25.0422 45.0404 25.0393C44.9127 25.0336 44.7287 25.0234 44.5026 25.006C44.0507 24.9712 43.43 24.9071 42.7553 24.7898C42.6984 24.7799 42.6595 24.7287 42.6686 24.6754C42.6776 24.6221 42.7311 24.5869 42.788 24.5968C43.4539 24.7126 44.0672 24.776 44.5142 24.8104C44.7376 24.8276 44.9193 24.8376 45.0449 24.8433C45.1077 24.8461 45.1564 24.8478 45.1894 24.8489C45.2059 24.8494 45.2185 24.8498 45.2268 24.85L45.2362 24.8502L45.2385 24.8502L45.239 24.8503" fill="#592F72"/>
<path d="M50.0227 23.6611C50.3793 23.3452 50.9474 23.3687 51.2903 23.7119C51.636 24.0555 51.626 24.5891 51.2699 24.9025C50.9133 25.2184 50.3452 25.1949 50.0023 24.8518C49.6588 24.5112 49.6688 23.9776 50.0227 23.6611Z" fill="#605575"/>
<path fill-rule="evenodd" clip-rule="evenodd" d="M50.0973 23.7339C49.7842 24.0141 49.7761 24.4857 50.0789 24.786L50.0792 24.7863C50.382 25.0892 50.8839 25.1102 51.199 24.8309L51.1993 24.8307C51.5136 24.554 51.5227 24.0827 51.2172 23.7789L51.217 23.7787C50.9142 23.4758 50.4125 23.4548 50.0973 23.7339ZM51.3672 23.6462C50.9841 23.263 50.3498 23.237 49.9519 23.5895L49.9519 23.5895L49.9515 23.5898C49.5571 23.9425 49.5451 24.5379 49.929 24.9188C50.3121 25.3019 50.9463 25.328 51.3442 24.9755C51.7419 24.6254 51.7528 24.0297 51.3672 23.6462Z" fill="#605575"/>
<path d="M49.276 26.7451C49.6326 26.4292 50.2007 26.4527 50.5436 26.7958C50.8892 27.1395 50.8793 27.6731 50.5232 27.9865C50.1666 28.3024 49.5985 28.2789 49.2555 27.9358C48.9094 27.5946 48.9194 27.061 49.276 26.7451Z" fill="#FFF9EF"/>
<path fill-rule="evenodd" clip-rule="evenodd" d="M50.4675 26.8627C50.1647 26.5597 49.6629 26.5388 49.3477 26.818C49.0322 27.0975 49.024 27.5688 49.3292 27.8697L49.3298 27.8702C49.6326 28.1732 50.1344 28.1941 50.4496 27.9149L50.4498 27.9147C50.7642 27.638 50.7732 27.1666 50.4677 26.8629L50.4675 26.8627ZM50.6178 26.7302C50.2346 26.347 49.6003 26.3209 49.2024 26.6735C48.8048 27.0257 48.793 27.6214 49.1797 28.0029C49.5628 28.3859 50.1969 28.4119 50.5948 28.0595C50.9924 27.7094 51.0034 27.1137 50.6178 26.7302Z" fill="#FFF9EF"/>
<path d="M43.4609 22.0153C43.8175 21.6994 44.3856 21.7229 44.7285 22.066C45.0741 22.4097 45.0641 22.9433 44.7081 23.2567C44.3515 23.5726 43.7834 23.5491 43.4404 23.206C43.097 22.8653 43.1069 22.3318 43.4609 22.0153Z" fill="#FFF9EF"/>
<path fill-rule="evenodd" clip-rule="evenodd" d="M43.5343 22.0854C43.2211 22.3655 43.2131 22.8371 43.5159 23.1374L43.5162 23.1377C43.819 23.4407 44.3208 23.4616 44.636 23.1824L44.6362 23.1822C44.9506 22.9055 44.9596 22.4341 44.6541 22.1304L44.6539 22.1302C44.3512 21.8273 43.8495 21.8063 43.5343 22.0854ZM44.8042 21.9977C44.421 21.6145 43.7868 21.5884 43.3888 21.941L43.3888 21.941L43.3885 21.9413C42.994 22.294 42.982 22.8893 43.366 23.2703C43.7491 23.6534 44.3832 23.6794 44.7812 23.327C45.1788 22.9769 45.1898 22.3812 44.8042 21.9977Z" fill="#FFF9EF"/>
<path d="M45.3069 23.3427C45.7237 22.9748 46.3878 22.9999 46.7904 23.4016C47.193 23.8032 47.1839 24.4271 46.7671 24.7951C46.3502 25.163 45.6861 25.1379 45.2835 24.7362C44.8809 24.3346 44.8901 23.7107 45.3069 23.3427Z" fill="#605575"/>
<path fill-rule="evenodd" clip-rule="evenodd" d="M46.7145 23.4685C46.3523 23.1071 45.7542 23.0841 45.3785 23.4157C45.0035 23.7468 44.9949 24.3086 45.3577 24.6706C45.72 25.032 46.318 25.055 46.6937 24.7234C47.0687 24.3923 47.0773 23.8305 46.7145 23.4685ZM45.2335 23.271C45.6915 22.8667 46.4217 22.894 46.8647 23.3359C47.307 23.7773 47.2973 24.4632 46.8387 24.8681C46.3808 25.2724 45.6505 25.2451 45.2075 24.8032C44.7652 24.3618 44.7749 23.6759 45.2335 23.271Z" fill="#605575"/>
<path d="M42.1495 24.0723C42.5061 23.7564 43.0742 23.7799 43.4171 24.123C43.7627 24.4667 43.7527 25.0003 43.3967 25.3137C43.0401 25.6296 42.472 25.6061 42.129 25.263C41.7834 24.9193 41.7934 24.3857 42.1495 24.0723Z" fill="#FFF9EF"/>
<path fill-rule="evenodd" clip-rule="evenodd" d="M43.3397 24.1872C43.0369 23.8842 42.535 23.8633 42.2199 24.1425L42.2196 24.1427C41.9053 24.4194 41.8962 24.8908 42.2017 25.1945L42.2019 25.1948C42.5047 25.4977 43.0066 25.5186 43.3217 25.2394L43.322 25.2392C43.6363 24.9625 43.6454 24.4912 43.3399 24.1874L43.3397 24.1872ZM43.4899 24.0547C43.1068 23.6715 42.4726 23.6455 42.0747 23.9979C41.677 24.348 41.6661 24.9437 42.0517 25.3272C42.4348 25.7104 43.069 25.7365 43.4669 25.384C43.8646 25.0339 43.8755 24.4382 43.4899 24.0547Z" fill="#FFF9EF"/>
<path d="M48.0104 28.9637C48.367 28.6478 48.9351 28.6713 49.2781 29.0144C49.6237 29.3581 49.6137 29.8917 49.2576 30.2051C48.901 30.521 48.3329 30.4975 47.99 30.1544C47.6465 29.8138 47.6539 29.2796 48.0104 28.9637Z" fill="#FFF9EF"/>
<path fill-rule="evenodd" clip-rule="evenodd" d="M49.2035 29.0786C48.9007 28.7756 48.3989 28.7547 48.0837 29.0339C47.7685 29.3131 47.7622 29.7851 48.0654 30.0858L48.0658 30.0862C48.3686 30.3891 48.8704 30.41 49.1856 30.1308L49.1858 30.1306C49.5002 29.8539 49.5092 29.3826 49.2037 29.0788L49.2035 29.0786ZM49.3538 28.9461C48.9706 28.5629 48.3363 28.5369 47.9384 28.8894C47.5404 29.242 47.532 29.8381 47.9155 30.2187C48.2986 30.6018 48.9328 30.6279 49.3308 30.2754C49.7284 29.9253 49.7393 29.3296 49.3538 28.9461Z" fill="#FFF9EF"/>
<path d="M47.3862 21.1561C47.7428 20.8402 48.3109 20.8637 48.6539 21.2069C48.9995 21.5505 48.9895 22.0841 48.6334 22.3975C48.2768 22.7134 47.7087 22.6899 47.3658 22.3468C47.0228 22.0037 47.0302 21.4696 47.3862 21.1561Z" fill="#FFF9EF"/>
<path fill-rule="evenodd" clip-rule="evenodd" d="M48.5792 21.271C48.2764 20.9681 47.7746 20.9471 47.4594 21.2263L47.4592 21.2265C47.1451 21.503 47.138 21.975 47.4415 22.2786C47.7443 22.5815 48.2461 22.6025 48.5613 22.3232L48.5615 22.323C48.8759 22.0463 48.8849 21.575 48.5794 21.2712L48.5792 21.271ZM48.7295 21.1385C48.3463 20.7553 47.7121 20.7293 47.3142 21.0817C46.9162 21.4322 46.9086 22.0283 47.2911 22.411C47.6742 22.7942 48.3085 22.8203 48.7065 22.4678C49.1041 22.1177 49.115 21.522 48.7295 21.1385Z" fill="#FFF9EF"/>
<path d="M43.9162 25.3586C44.2728 25.0427 44.8409 25.0662 45.1838 25.4093C45.5295 25.7529 45.5195 26.2865 45.1634 26.6C44.8068 26.9159 44.2387 26.8924 43.8957 26.5492C43.5528 26.2061 43.5601 25.672 43.9162 25.3586Z" fill="#FFF9EF"/>
<path fill-rule="evenodd" clip-rule="evenodd" d="M45.1091 25.4815C44.8064 25.1786 44.3045 25.1577 43.9894 25.4369L43.9891 25.4371C43.6751 25.7135 43.668 26.1855 43.9714 26.4891C44.2742 26.792 44.776 26.813 45.0912 26.5338L45.0915 26.5336C45.4058 26.2568 45.4148 25.7855 45.1094 25.4818L45.1091 25.4815ZM45.2594 25.349C44.8763 24.9659 44.2421 24.9398 43.8442 25.2923C43.4462 25.6427 43.4386 26.2389 43.821 26.6215C44.2041 27.0048 44.8384 27.0309 45.2364 26.6784C45.6341 26.3283 45.645 25.7326 45.2594 25.349Z" fill="#FFF9EF"/>
<path d="M46.7976 23.7752C47.2384 23.3838 47.9433 23.4121 48.3714 23.8371C48.7995 24.262 48.7881 24.924 48.3472 25.3154C47.9063 25.7068 47.2015 25.6785 46.7733 25.2535C46.3452 24.8286 46.3567 24.1666 46.7976 23.7752Z" fill="#FFF9EF"/>
<path fill-rule="evenodd" clip-rule="evenodd" d="M48.2985 23.9015C47.9104 23.5163 47.2717 23.4908 46.8723 23.8454C46.4726 24.2001 46.4624 24.8001 46.8502 25.185C47.2383 25.5702 47.8771 25.5957 48.2765 25.2412C48.6761 24.8864 48.6863 24.2864 48.2985 23.9015ZM46.7268 23.701C47.2092 23.2728 47.9801 23.3039 48.4483 23.7685C48.9167 24.2335 48.904 24.9576 48.4219 25.3855C47.9395 25.8137 47.1686 25.7826 46.7004 25.318C46.232 24.8531 46.2447 24.1289 46.7268 23.701Z" fill="#FFF9EF"/>
<path d="M45.9382 26.5765C46.4057 26.1622 47.1517 26.1912 47.6049 26.6419C48.0581 27.0925 48.047 27.7932 47.5794 28.2075C47.1118 28.6217 46.3658 28.5927 45.9126 28.1421C45.4594 27.6914 45.4706 26.9907 45.9382 26.5765Z" fill="#605575"/>
<path fill-rule="evenodd" clip-rule="evenodd" d="M47.5318 26.7116C47.1188 26.3009 46.4389 26.2745 46.0126 26.6521C45.5865 27.0296 45.5763 27.6682 45.9894 28.079C46.4024 28.4897 47.0823 28.5162 47.5086 28.1386C47.9347 27.7611 47.9449 27.1224 47.5318 26.7116ZM45.8673 26.5076C46.3762 26.0567 47.1884 26.0882 47.6817 26.5788C48.175 27.0693 48.1629 27.8321 47.6539 28.2831C47.1449 28.7339 46.3328 28.7024 45.8395 28.2118C45.3462 27.7213 45.3583 26.9585 45.8673 26.5076Z" fill="#605575"/>
<path d="M44.9679 29.6006C45.4355 29.1863 46.1815 29.2153 46.6346 29.666C47.0878 30.1166 47.0767 30.8174 46.6091 31.2316C46.1415 31.6458 45.3955 31.6168 44.9423 31.1662C44.4892 30.7155 44.5003 30.0148 44.9679 29.6006Z" fill="#FFF9EF"/>
<path fill-rule="evenodd" clip-rule="evenodd" d="M46.5589 29.7303C46.146 29.3197 45.466 29.2932 45.0398 29.6708C44.6137 30.0483 44.6035 30.6869 45.0166 31.0977C45.4296 31.5084 46.1095 31.5349 46.5357 31.1573C46.9618 30.7798 46.9721 30.1411 46.5589 29.7303ZM44.8945 29.5263C45.4034 29.0754 46.2155 29.1069 46.7089 29.5975C47.2021 30.088 47.1901 30.8508 46.681 31.3018C46.1721 31.7526 45.36 31.7211 44.8666 31.2305C44.3734 30.74 44.3854 29.9772 44.8945 29.5263Z" fill="#FFF9EF"/>
<path d="M42.187 26.9899C42.6546 26.5757 43.4006 26.6047 43.8538 27.0553C44.3069 27.506 44.2958 28.2067 43.8282 28.621C43.3606 29.0352 42.6146 29.0062 42.1615 28.5555C41.7088 28.1024 41.7199 27.4017 42.187 26.9899Z" fill="#605575"/>
<path fill-rule="evenodd" clip-rule="evenodd" d="M43.7767 27.1224C43.3637 26.7117 42.6838 26.6852 42.2575 27.0628L42.2573 27.063C41.8323 27.4377 41.8214 28.0763 42.2344 28.4899C42.6474 28.9005 43.3272 28.9269 43.7534 28.5494C44.1796 28.1719 44.1898 27.5332 43.7767 27.1224ZM42.1123 26.9183C42.6212 26.4675 43.4333 26.499 43.9266 26.9896C44.4198 27.4801 44.4078 28.2429 43.8988 28.6939C43.3898 29.1447 42.5777 29.1132 42.0844 28.6226L42.0841 28.6224C41.592 28.1297 41.6034 27.367 42.1123 26.9183Z" fill="#605575"/>
</g>
<defs>
<clipPath id="clip0_1_2">
<rect width="92" height="92" fill="white"/>
</clipPath>
</defs>
</svg>
