<svg width="81" height="54" viewBox="0 0 81 54" fill="none" xmlns="http://www.w3.org/2000/svg">
<path d="M25.8214 51.9742L19.5825 52.0488C17.6875 52.0715 16.1344 50.4027 16.1137 48.3216L15.7008 6.70009C15.6802 4.61901 17.1998 2.9135 19.0948 2.89083L25.3337 2.81619C27.2288 2.79352 28.7818 4.46227 28.8025 6.54335L29.2154 48.1649C29.236 50.246 27.7164 51.9515 25.8214 51.9742Z" fill="#B994DA"/>
<path d="M25.3344 2.81681L20.6552 2.87279C22.5503 2.85012 24.1033 4.51886 24.124 6.59994L24.5369 48.2215C24.5575 50.3026 23.0379 52.0081 21.1429 52.0307L25.822 51.9747C27.7171 51.9521 29.2367 50.2466 29.216 48.1655L28.8031 6.54396C28.7825 4.46288 27.2294 2.79414 25.3344 2.81681Z" fill="#9C71BC"/>
<path d="M13.913 46.7202L8.9219 46.78C7.71592 46.7944 6.72764 45.7325 6.7145 44.4081L6.38146 10.8368C6.36832 9.51247 7.3353 8.42718 8.54127 8.41275L13.5324 8.35304C14.7384 8.33861 15.7266 9.40051 15.7398 10.7249L16.0728 44.2962C16.086 45.6205 15.119 46.7058 13.913 46.7202Z" fill="#B994DA"/>
<path d="M13.5319 8.35334L8.85269 8.40932C10.0587 8.39489 11.047 9.45679 11.0601 10.7811L11.3931 44.3525C11.4063 45.6768 10.4393 46.7621 9.23332 46.7765L13.9125 46.7205C15.1185 46.7061 16.0854 45.6208 16.0723 44.2965L15.7392 10.7252C15.7261 9.40081 14.7378 8.33891 13.5319 8.35334Z" fill="#9C71BC"/>
<path d="M6.61502 34.4734L3.49558 34.5107C2.63415 34.521 1.92826 33.7626 1.91887 32.8166L1.81692 22.5396C1.80753 21.5937 2.49821 20.8185 3.35965 20.8082L6.47909 20.7708L6.61502 34.4734Z" fill="#FFEED2"/>
<path d="M28.9638 22.9469L52.2036 22.6689L52.291 31.4758L29.0511 31.7539L28.9638 22.9469Z" fill="#FFD3DB"/>
<path d="M47.5254 22.7253L52.2045 22.6693L52.2919 31.4763L47.6127 31.5323L47.5254 22.7253Z" fill="#FFB5C3"/>
<path d="M62.1617 51.5346L55.9228 51.6092C54.0277 51.6319 52.4747 49.9632 52.454 47.8821L52.0411 6.26055C52.0205 4.17947 53.54 2.47396 55.4351 2.45129L61.674 2.37665C63.569 2.35398 65.1221 4.02272 65.1428 6.1038L65.5557 47.7254C65.5763 49.8064 64.0567 51.5119 62.1617 51.5346Z" fill="#B994DA"/>
<path d="M61.6746 2.38097L56.9955 2.43695C58.8905 2.41428 60.4436 4.08303 60.4642 6.1641L60.8772 47.7857C60.8978 49.8667 59.3782 51.5722 57.4832 51.5949L62.1623 51.5389C64.0574 51.5163 65.577 49.8108 65.5563 47.7297L65.1434 6.10812C65.1228 4.02705 63.5697 2.3583 61.6746 2.38097Z" fill="#9C71BC"/>
<path d="M72.7153 46.0148L67.7242 46.0745C66.5182 46.0889 65.5299 45.027 65.5168 43.7027L65.1837 10.1314C65.1706 8.80701 66.1376 7.72172 67.3436 7.70729L72.3347 7.64758C73.5406 7.63315 74.5289 8.69505 74.542 10.0194L74.8751 43.5907C74.8882 44.915 73.9213 46.0003 72.7153 46.0148Z" fill="#B994DA"/>
<path d="M72.3341 7.64788L67.655 7.70386C68.8609 7.68943 69.8492 8.75133 69.8624 10.0757L70.1954 43.647C70.2086 44.9713 69.2416 46.0566 68.0356 46.071L72.7148 46.0151C73.9207 46.0006 74.8877 44.9153 74.8746 43.591L74.5415 10.0197C74.5284 8.69535 73.5401 7.63345 72.3341 7.64788Z" fill="#9C71BC"/>
<path d="M77.8966 33.6167L74.7771 33.6541L74.6412 19.9515L77.7606 19.9142C78.6221 19.9039 79.3279 20.6623 79.3373 21.6083L79.4393 31.8853C79.4487 32.8313 78.758 33.6064 77.8966 33.6167Z" fill="#FFEED2"/>
<path d="M77.7466 18.6325L75.797 18.6558L75.7112 10.0061C75.691 7.97552 74.1703 6.3415 72.3212 6.36362L67.3301 6.42333C66.9769 6.42756 66.637 6.49278 66.318 6.60845L66.3129 6.0929C66.2853 3.30682 64.1987 1.06477 61.6616 1.09512L55.4227 1.16976C52.8857 1.20011 50.8441 3.49156 50.8717 6.27763L51.0217 21.4003L30.1215 21.6503L29.9715 6.52768C29.9438 3.7416 27.8572 1.49955 25.3202 1.5299L19.0813 1.60454C16.5442 1.63489 14.5026 3.92634 14.5302 6.71241L14.5353 7.22797C14.2142 7.11995 13.8731 7.06288 13.5198 7.06711L8.52871 7.12682C6.67966 7.14894 5.1917 8.81895 5.21184 10.8495L5.2283 12.5087C5.23534 13.2182 5.7648 13.7871 6.41084 13.7793C7.05687 13.7716 7.57492 13.1902 7.56788 12.4807L7.55142 10.8215C7.54533 10.2076 7.99519 9.70274 8.5542 9.69605L13.5453 9.63634C14.1043 9.62965 14.5641 10.1237 14.5702 10.7375L14.9032 44.3088C14.9093 44.9227 14.4594 45.4276 13.9004 45.4343L8.90933 45.494C8.35033 45.5007 7.89056 45.0067 7.88447 44.3928L7.62241 17.9775C7.61538 17.2681 7.08592 16.6992 6.43988 16.7069C5.79385 16.7146 5.2758 17.296 5.28284 18.0055L5.29765 19.4993L3.34801 19.5226C1.84303 19.5406 0.631836 20.9 0.648232 22.5527L0.750185 32.8296C0.766581 34.4823 2.00446 35.8124 3.50943 35.7944L5.45908 35.7711L5.54489 44.4208C5.56503 46.4514 7.08577 48.0854 8.93482 48.0632L13.9259 48.0035C14.2792 47.9993 14.6191 47.9341 14.938 47.8184L14.9431 48.334C14.9708 51.12 17.0574 53.3621 19.5944 53.3317L25.8333 53.2571C28.3704 53.2268 30.412 50.9353 30.3844 48.1492L30.2343 33.0266L31.9369 33.0062C32.583 32.9985 33.101 32.417 33.094 31.7076C33.0869 30.9981 32.5575 30.4292 31.9114 30.437L30.2088 30.4573L30.147 24.2196L51.0472 23.9695L51.1091 30.2073L36.9824 30.3763C36.3364 30.384 35.8183 30.9655 35.8254 31.6749C35.8324 32.3844 36.3619 32.9533 37.0079 32.9455L51.1346 32.7765L51.2846 47.8992C51.3122 50.6853 53.3989 52.9273 55.9359 52.897L62.1748 52.8223C64.7118 52.792 66.7535 50.5005 66.7258 47.7145L66.7207 47.1989C67.0419 47.3069 67.383 47.364 67.7363 47.3598L72.7273 47.3001C74.5764 47.2779 76.0644 45.6079 76.0442 43.5774L76.027 41.8426C76.02 41.1332 75.4905 40.5643 74.8445 40.572C74.1984 40.5797 73.6804 41.1612 73.6874 41.8706L73.7046 43.6054C73.7107 44.2192 73.2609 44.7241 72.7019 44.7308L67.7108 44.7905C67.1518 44.7972 66.692 44.3032 66.6859 43.6893L66.3529 10.118C66.3468 9.50415 66.7966 8.99925 67.3556 8.99256L72.3467 8.93285C72.9057 8.92616 73.3655 9.42018 73.3716 10.0341L73.6324 36.3259C73.6395 37.0353 74.1689 37.6042 74.815 37.5965C75.461 37.5888 75.979 37.0073 75.972 36.2979L75.9584 34.9276L77.9081 34.9043C79.413 34.8863 80.6242 33.5269 80.6078 31.8742L80.5059 21.5973C80.4895 19.9446 79.2516 18.6145 77.7466 18.6325ZM3.48394 33.2251C3.26901 33.2277 3.09211 33.0376 3.08976 32.8016L2.98781 22.5247C2.98547 22.2887 3.15856 22.0944 3.37349 22.0918L5.32314 22.0685L5.43359 33.2018L3.48394 33.2251ZM28.0448 48.1772C28.0584 49.5466 27.0548 50.673 25.8078 50.6879L19.569 50.7625C18.322 50.7774 17.2963 49.6754 17.2827 48.306L16.8698 6.68442C16.8562 5.31502 17.8598 4.18869 19.1068 4.17377L25.3456 4.09913C26.5926 4.08421 27.6183 5.18627 27.6319 6.55567L28.0448 48.1772ZM64.3862 47.7424C64.3998 49.1118 63.3963 50.2382 62.1493 50.2531L55.9104 50.3277C54.6634 50.3427 53.6378 49.2406 53.6242 47.8712L53.2113 6.24964C53.1977 4.88024 54.2012 3.75391 55.4482 3.73899L61.6871 3.66435C62.9341 3.64943 63.9598 4.75149 63.9733 6.12089L64.3862 47.7424ZM78.2683 31.9022C78.2706 32.1382 78.0975 32.3325 77.8826 32.3351L75.9329 32.3584L75.8225 21.225L77.7721 21.2017C77.987 21.1991 78.164 21.3892 78.1663 21.6253L78.2683 31.9022Z" fill="#73468D"/>
</svg>
