<svg width="94" height="94" viewBox="0 0 94 94" fill="none" xmlns="http://www.w3.org/2000/svg">
<path d="M32.3788 72.1466L26.1399 72.2213C24.2448 72.2439 22.6918 70.5752 22.6711 68.4941L22.2582 26.8726C22.2376 24.7915 23.7571 23.086 25.6522 23.0633L31.8911 22.9887C33.7861 22.966 35.3392 24.6347 35.3599 26.7158L35.7728 68.3374C35.7934 70.4184 34.2738 72.124 32.3788 72.1466Z" fill="#B994DA"/>
<path d="M31.8917 22.9893L27.2126 23.0453C29.1076 23.0226 30.6607 24.6913 30.6814 26.7724L31.0943 68.3939C31.1149 70.475 29.5953 72.1805 27.7003 72.2032L32.3794 72.1472C34.2745 72.1245 35.7941 70.419 35.7734 68.338L35.3605 26.7164C35.3399 24.6354 33.7868 22.9666 31.8917 22.9893Z" fill="#9C71BC"/>
<path d="M20.4704 66.8927L15.4793 66.9524C14.2733 66.9669 13.285 65.905 13.2719 64.5806L12.9388 31.0093C12.9257 29.6849 13.8927 28.5996 15.0986 28.5852L20.0898 28.5255C21.2957 28.5111 22.284 29.573 22.2971 30.8973L22.6302 64.4686C22.6433 65.793 21.6764 66.8783 20.4704 66.8927Z" fill="#B994DA"/>
<path d="M20.0893 28.5258L15.4101 28.5818C16.6161 28.5674 17.6044 29.6293 17.6175 30.9536L17.9505 64.5249C17.9637 65.8493 16.9967 66.9346 15.7907 66.949L20.4699 66.893C21.6759 66.8786 22.6428 65.7933 22.6297 64.4689L22.2967 30.8976C22.2835 29.5733 21.2952 28.5114 20.0893 28.5258Z" fill="#9C71BC"/>
<path d="M13.1724 54.6459L10.053 54.6832C9.19152 54.6935 8.48563 53.935 8.47624 52.989L8.37429 42.7121C8.36491 41.7661 9.05559 40.9909 9.91702 40.9806L13.0365 40.9433L13.1724 54.6459Z" fill="#FFEED2"/>
<path d="M35.5211 43.1194L58.7609 42.8413L58.8483 51.6483L35.6085 51.9263L35.5211 43.1194Z" fill="#FFD3DB"/>
<path d="M54.0827 42.8978L58.7619 42.8418L58.8492 51.6488L54.1701 51.7047L54.0827 42.8978Z" fill="#FFB5C3"/>
<path d="M68.719 71.7071L62.4802 71.7817C60.5851 71.8044 59.032 70.1356 59.0114 68.0546L58.5985 26.433C58.5778 24.3519 60.0974 22.6464 61.9925 22.6238L68.2314 22.5491C70.1264 22.5264 71.6795 24.1952 71.7001 26.2763L72.113 67.8978C72.1337 69.9789 70.6141 71.6844 68.719 71.7071Z" fill="#B994DA"/>
<path d="M68.232 22.5534L63.5529 22.6094C65.4479 22.5867 67.001 24.2555 67.0216 26.3366L67.4345 67.9581C67.4552 70.0392 65.9356 71.7447 64.0405 71.7674L68.7197 71.7114C70.6147 71.6887 72.1343 69.9832 72.1137 67.9021L71.7008 26.2806C71.6801 24.1995 70.1271 22.5308 68.232 22.5534Z" fill="#9C71BC"/>
<path d="M79.2727 66.1872L74.2816 66.2469C73.0756 66.2614 72.0873 65.1995 72.0742 63.8751L71.7411 30.3038C71.728 28.9795 72.695 27.8942 73.901 27.8798L78.8921 27.82C80.098 27.8056 81.0863 28.8675 81.0995 30.1919L81.4325 63.7632C81.4456 65.0875 80.4787 66.1728 79.2727 66.1872Z" fill="#B994DA"/>
<path d="M78.8915 27.8203L74.2123 27.8763C75.4183 27.8619 76.4066 28.9238 76.4197 30.2482L76.7528 63.8194C76.7659 65.1438 75.7989 66.2291 74.593 66.2435L79.2721 66.1875C80.4781 66.1731 81.4451 65.0878 81.4319 63.7635L81.0989 30.1922C81.0858 28.8678 80.0975 27.8059 78.8915 27.8203Z" fill="#9C71BC"/>
<path d="M84.4539 53.7892L81.3345 53.8265L81.1985 40.124L84.318 40.0866C85.1794 40.0763 85.8853 40.8348 85.8947 41.7808L85.9967 52.0577C86.006 53.0037 85.3154 53.7789 84.4539 53.7892Z" fill="#FFEED2"/>
<path d="M84.304 38.805L82.3544 38.8283L82.2685 30.1785C82.2484 28.148 80.7277 26.514 78.8786 26.5361L73.8875 26.5958C73.5342 26.6 73.1944 26.6652 72.8754 26.7809L72.8703 26.2654C72.8427 23.4793 70.756 21.2372 68.219 21.2676L61.9801 21.3422C59.4431 21.3726 57.4014 23.664 57.4291 26.4501L57.5791 41.5728L36.6789 41.8228L36.5288 26.7001C36.5012 23.9141 34.4146 21.672 31.8775 21.7024L25.6386 21.777C23.1016 21.8074 21.06 24.0988 21.0876 26.8849L21.0927 27.4004C20.7716 27.2924 20.4305 27.2353 20.0772 27.2396L15.0861 27.2993C13.237 27.3214 11.7491 28.9914 11.7692 31.022L11.7857 32.6812C11.7927 33.3906 12.3222 33.9595 12.9682 33.9518C13.6142 33.9441 14.1323 33.3626 14.1253 32.6532L14.1088 30.994C14.1027 30.3801 14.5526 29.8752 15.1116 29.8685L20.1027 29.8088C20.6617 29.8021 21.1214 30.2961 21.1275 30.91L21.4606 64.4813C21.4667 65.0952 21.0168 65.6001 20.4578 65.6068L15.4667 65.6665C14.9077 65.6732 14.4479 65.1792 14.4418 64.5653L14.1798 38.15C14.1728 37.4405 13.6433 36.8716 12.9973 36.8794C12.3512 36.8871 11.8332 37.4685 11.8402 38.178L11.855 39.6717L9.90538 39.695C8.4004 39.7131 7.18921 41.0724 7.20561 42.7251L7.30756 53.0021C7.32395 54.6548 8.56183 55.9849 10.0668 55.9668L12.0165 55.9435L12.1023 64.5933C12.1224 66.6238 13.6431 68.2578 15.4922 68.2357L20.4833 68.176C20.8366 68.1718 21.1765 68.1066 21.4954 67.9909L21.5005 68.5064C21.5282 71.2925 23.6148 73.5346 26.1518 73.5042L32.3907 73.4296C34.9277 73.3992 36.9694 71.1078 36.9417 68.3217L36.7917 53.199L38.4943 53.1787C39.1403 53.1709 39.6584 52.5895 39.6513 51.8801C39.6443 51.1706 39.1148 50.6017 38.4688 50.6094L36.7662 50.6298L36.7043 44.392L57.6046 44.142L57.6665 50.3798L43.5398 50.5488C42.8937 50.5565 42.3757 51.1379 42.3827 51.8474C42.3898 52.5568 42.9192 53.1257 43.5653 53.118L57.692 52.949L57.842 68.0717C57.8696 70.8577 59.9562 73.0998 62.4933 73.0694L68.7322 72.9948C71.2692 72.9644 73.3108 70.673 73.2832 67.8869L73.2781 67.3714C73.5993 67.4794 73.9403 67.5365 74.2936 67.5322L79.2847 67.4725C81.1338 67.4504 82.6217 65.7804 82.6016 63.7498L82.5844 62.0151C82.5773 61.3056 82.0479 60.7367 81.4018 60.7445C80.7558 60.7522 80.2378 61.3336 80.2448 62.0431L80.262 63.7778C80.2681 64.3917 79.8182 64.8966 79.2592 64.9033L74.2681 64.963C73.7091 64.9697 73.2494 64.4757 73.2433 63.8618L72.9102 30.2905C72.9041 29.6766 73.354 29.1717 73.913 29.165L78.9041 29.1053C79.4631 29.0986 79.9229 29.5927 79.929 30.2065L80.1898 56.4983C80.1968 57.2078 80.7263 57.7767 81.3723 57.769C82.0184 57.7612 82.5364 57.1798 82.5294 56.4703L82.5158 55.1001L84.4654 55.0768C85.9704 55.0588 87.1816 53.6994 87.1652 52.0467L87.0632 41.7697C87.0469 40.117 85.809 38.787 84.304 38.805ZM10.0413 53.3976C9.82639 53.4002 9.64948 53.2101 9.64714 52.9741L9.54518 42.6971C9.54284 42.4611 9.71594 42.2668 9.93087 42.2643L11.8805 42.241L11.991 53.3743L10.0413 53.3976ZM34.6022 68.3497C34.6157 69.7191 33.6122 70.8454 32.3652 70.8603L26.1263 70.935C24.8793 70.9499 23.8537 69.8479 23.8401 68.4785L23.4272 26.8569C23.4136 25.4875 24.4171 24.3612 25.6641 24.3462L31.903 24.2716C33.15 24.2567 34.1757 25.3587 34.1892 26.7281L34.6022 68.3497ZM70.9436 67.9149C70.9572 69.2843 69.9537 70.4106 68.7067 70.4256L62.4678 70.5002C61.2208 70.5151 60.1951 69.4131 60.1816 68.0437L59.7686 26.4221C59.7551 25.0527 60.7586 23.9264 62.0056 23.9115L68.2445 23.8368C69.4915 23.8219 70.5171 24.924 70.5307 26.2934L70.9436 67.9149ZM84.8256 52.0747C84.828 52.3107 84.6549 52.505 84.4399 52.5075L82.4903 52.5309L82.3798 41.3975L84.3295 41.3742C84.5444 41.3716 84.7213 41.5617 84.7237 41.7977L84.8256 52.0747Z" fill="#73468D"/>
</svg>
