<svg width="94" height="94" viewBox="0 0 94 94" fill="none" xmlns="http://www.w3.org/2000/svg">
<path d="M32.3788 79.102L26.1399 79.1767C24.2448 79.1993 22.6918 77.5306 22.6711 75.4495L22.2582 33.828C22.2376 31.7469 23.7571 30.0414 25.6522 30.0187L31.8911 29.9441C33.7861 29.9214 35.3392 31.5901 35.3599 33.6712L35.7728 75.2928C35.7934 77.3738 34.2738 79.0794 32.3788 79.102Z" fill="#B994DA"/>
<path d="M31.8917 29.9447L27.2126 30.0007C29.1076 29.978 30.6607 31.6467 30.6814 33.7278L31.0943 75.3493C31.1149 77.4304 29.5953 79.1359 27.7003 79.1586L32.3794 79.1026C34.2745 79.0799 35.7941 77.3744 35.7734 75.2934L35.3605 33.6718C35.3399 31.5908 33.7868 29.922 31.8917 29.9447Z" fill="#9C71BC"/>
<path d="M20.4704 73.8481L15.4793 73.9078C14.2733 73.9222 13.285 72.8603 13.2719 71.536L12.9388 37.9647C12.9257 36.6403 13.8927 35.555 15.0986 35.5406L20.0898 35.4809C21.2957 35.4665 22.284 36.5284 22.2971 37.8527L22.6302 71.424C22.6433 72.7484 21.6764 73.8337 20.4704 73.8481Z" fill="#B994DA"/>
<path d="M20.0893 35.4812L15.4101 35.5372C16.6161 35.5228 17.6044 36.5847 17.6175 37.909L17.9505 71.4803C17.9637 72.8047 16.9967 73.89 15.7907 73.9044L20.4699 73.8484C21.6759 73.834 22.6428 72.7487 22.6297 71.4243L22.2967 37.853C22.2835 36.5287 21.2952 35.4668 20.0893 35.4812Z" fill="#9C71BC"/>
<path d="M13.1724 61.6013L10.053 61.6386C9.19152 61.6489 8.48563 60.8904 8.47624 59.9444L8.37429 49.6675C8.36491 48.7215 9.05559 47.9463 9.91702 47.936L13.0365 47.8987L13.1724 61.6013Z" fill="#FFEED2"/>
<path d="M35.5211 50.0748L58.7609 49.7967L58.8483 58.6037L35.6085 58.8817L35.5211 50.0748Z" fill="#FFD3DB"/>
<path d="M54.0827 49.8531L58.7619 49.7972L58.8492 58.6042L54.1701 58.6601L54.0827 49.8531Z" fill="#FFB5C3"/>
<path d="M68.719 78.6625L62.4802 78.7371C60.5851 78.7598 59.032 77.091 59.0114 75.01L58.5985 33.3884C58.5778 31.3073 60.0974 29.6018 61.9925 29.5792L68.2314 29.5045C70.1264 29.4818 71.6795 31.1506 71.7001 33.2317L72.113 74.8532C72.1337 76.9343 70.6141 78.6398 68.719 78.6625Z" fill="#B994DA"/>
<path d="M68.232 29.5088L63.5529 29.5648C65.4479 29.5421 67.001 31.2109 67.0216 33.292L67.4345 74.9135C67.4552 76.9946 65.9356 78.7001 64.0405 78.7228L68.7197 78.6668C70.6147 78.6441 72.1343 76.9386 72.1137 74.8575L71.7008 33.236C71.6801 31.1549 70.1271 29.4862 68.232 29.5088Z" fill="#9C71BC"/>
<path d="M79.2727 73.1426L74.2816 73.2023C73.0756 73.2168 72.0873 72.1549 72.0742 70.8305L71.7411 37.2592C71.728 35.9349 72.695 34.8496 73.901 34.8352L78.8921 34.7754C80.098 34.761 81.0863 35.8229 81.0995 37.1473L81.4325 70.7186C81.4456 72.0429 80.4787 73.1282 79.2727 73.1426Z" fill="#B994DA"/>
<path d="M78.8915 34.7757L74.2123 34.8317C75.4183 34.8173 76.4066 35.8792 76.4197 37.2036L76.7528 70.7748C76.7659 72.0992 75.7989 73.1845 74.593 73.1989L79.2721 73.1429C80.4781 73.1285 81.4451 72.0432 81.4319 70.7189L81.0989 37.1476C81.0858 35.8232 80.0975 34.7613 78.8915 34.7757Z" fill="#9C71BC"/>
<path d="M84.4539 60.7446L81.3345 60.7819L81.1985 47.0794L84.318 47.042C85.1794 47.0317 85.8853 47.7902 85.8947 48.7362L85.9967 59.0131C86.006 59.9591 85.3154 60.7343 84.4539 60.7446Z" fill="#FFEED2"/>
<path d="M84.304 45.7604L82.3544 45.7837L82.2685 37.1339C82.2484 35.1034 80.7277 33.4694 78.8786 33.4915L73.8875 33.5512C73.5342 33.5554 73.1944 33.6206 72.8754 33.7363L72.8703 33.2208C72.8427 30.4347 70.756 28.1926 68.219 28.223L61.9801 28.2976C59.4431 28.328 57.4014 30.6194 57.4291 33.4055L57.5791 48.5282L36.6789 48.7782L36.5288 33.6555C36.5012 30.8695 34.4146 28.6274 31.8775 28.6578L25.6386 28.7324C23.1016 28.7628 21.06 31.0542 21.0876 33.8403L21.0927 34.3558C20.7716 34.2478 20.4305 34.1907 20.0772 34.195L15.0861 34.2547C13.237 34.2768 11.7491 35.9468 11.7692 37.9774L11.7857 39.6366C11.7927 40.346 12.3222 40.9149 12.9682 40.9072C13.6142 40.8995 14.1323 40.318 14.1253 39.6086L14.1088 37.9494C14.1027 37.3355 14.5526 36.8306 15.1116 36.8239L20.1027 36.7642C20.6617 36.7575 21.1214 37.2515 21.1275 37.8654L21.4606 71.4367C21.4667 72.0506 21.0168 72.5555 20.4578 72.5622L15.4667 72.6219C14.9077 72.6286 14.4479 72.1346 14.4418 71.5207L14.1798 45.1054C14.1727 44.3959 13.6433 43.827 12.9973 43.8348C12.3512 43.8425 11.8332 44.4239 11.8402 45.1334L11.855 46.6271L9.90538 46.6504C8.4004 46.6684 7.18921 48.0278 7.20561 49.6805L7.30756 59.9575C7.32395 61.6102 8.56183 62.9403 10.0668 62.9222L12.0165 62.8989L12.1023 71.5487C12.1224 73.5792 13.6431 75.2132 15.4922 75.1911L20.4833 75.1314C20.8366 75.1272 21.1765 75.062 21.4954 74.9463L21.5005 75.4618C21.5282 78.2479 23.6148 80.49 26.1518 80.4596L32.3907 80.385C34.9277 80.3546 36.9694 78.0632 36.9417 75.2771L36.7917 60.1544L38.4943 60.1341C39.1403 60.1263 39.6584 59.5449 39.6513 58.8355C39.6443 58.126 39.1148 57.5571 38.4688 57.5648L36.7662 57.5852L36.7043 51.3474L57.6046 51.0974L57.6665 57.3352L43.5398 57.5042C42.8937 57.5119 42.3757 58.0933 42.3827 58.8028C42.3898 59.5122 42.9192 60.0811 43.5653 60.0734L57.692 59.9044L57.842 75.0271C57.8696 77.8131 59.9562 80.0552 62.4933 80.0248L68.7322 79.9502C71.2692 79.9198 73.3108 77.6284 73.2832 74.8423L73.2781 74.3268C73.5993 74.4348 73.9403 74.4919 74.2936 74.4876L79.2847 74.4279C81.1338 74.4058 82.6217 72.7358 82.6016 70.7052L82.5844 68.9705C82.5773 68.261 82.0479 67.6921 81.4018 67.6999C80.7558 67.7076 80.2378 68.289 80.2448 68.9985L80.262 70.7332C80.2681 71.3471 79.8182 71.852 79.2592 71.8587L74.2681 71.9184C73.7091 71.9251 73.2494 71.4311 73.2433 70.8172L72.9102 37.2459C72.9041 36.632 73.354 36.1271 73.913 36.1204L78.9041 36.0607C79.4631 36.054 79.9229 36.548 79.929 37.1619L80.1898 63.4537C80.1968 64.1632 80.7263 64.7321 81.3723 64.7244C82.0184 64.7166 82.5364 64.1352 82.5294 63.4257L82.5158 62.0555L84.4654 62.0322C85.9704 62.0142 87.1816 60.6548 87.1652 59.0021L87.0632 48.7251C87.0469 47.0724 85.809 45.7424 84.304 45.7604ZM10.0413 60.353C9.82639 60.3556 9.64948 60.1655 9.64714 59.9295L9.54518 49.6525C9.54284 49.4165 9.71594 49.2222 9.93087 49.2197L11.8805 49.1964L11.991 60.3297L10.0413 60.353ZM34.6022 75.3051C34.6157 76.6745 33.6122 77.8008 32.3652 77.8157L26.1263 77.8904C24.8793 77.9053 23.8537 76.8032 23.8401 75.4338L23.4272 33.8123C23.4136 32.4429 24.4171 31.3166 25.6641 31.3016L31.903 31.227C33.15 31.2121 34.1757 32.3141 34.1892 33.6835L34.6022 75.3051ZM70.9436 74.8703C70.9572 76.2397 69.9537 77.366 68.7067 77.381L62.4678 77.4556C61.2208 77.4705 60.1951 76.3685 60.1816 74.9991L59.7687 33.3775C59.7551 32.0081 60.7586 30.8818 62.0056 30.8669L68.2445 30.7922C69.4915 30.7773 70.5171 31.8794 70.5307 33.2488L70.9436 74.8703ZM84.8256 59.0301C84.828 59.2661 84.6549 59.4604 84.4399 59.4629L82.4903 59.4863L82.3798 48.3529L84.3295 48.3296C84.5444 48.327 84.7213 48.5171 84.7237 48.7531L84.8256 59.0301Z" fill="#73468D"/>
</svg>
