<svg width="94" height="94" viewBox="0 0 94 94" fill="none" xmlns="http://www.w3.org/2000/svg">
<g clip-path="url(#clip0_3_1252)">
<path d="M50.3756 20.3538L50.3756 22.9324L43.689 22.9324L43.689 20.3538C43.689 18.4962 45.1855 16.9931 47.0323 16.9931C48.8798 16.9931 50.3756 18.495 50.3756 20.3538V20.3538Z" fill="#592F72"/>
<path d="M70.4307 71.3046C70.4307 74.6776 67.7116 77.4144 64.3524 77.4144L29.7097 77.4144C24.8615 77.4144 22.0098 71.9989 24.6129 67.9756C25.2406 67.0036 26.1422 66.2106 27.2401 65.7209L38.6733 62.3603L55.3888 62.3603L66.822 65.7209C69.0192 66.7025 70.4307 68.8946 70.4307 71.3046V71.3046Z" fill="#E8BEB1"/>
<path d="M70.3897 70.5774C70.3897 72.5421 66.0345 74.491 64.355 74.491C62.824 74.491 61.5751 73.2442 61.5751 71.6968L61.5751 69.7936L51.5178 70.5417C50.4916 70.6891 49.4452 70.5183 48.5182 70.0524C46.8393 69.2086 45.2091 69.2488 43.7853 69.9645C42.7511 70.4843 41.5708 70.6354 40.4387 70.3915L32.4923 69.7936L32.4923 71.6968C32.4923 73.2357 31.2519 74.491 29.7124 74.491C26.6018 74.491 24.0388 73.6055 23.6777 70.5774C23.9297 68.4522 25.2792 66.5967 27.2428 65.7209L38.6761 62.3603L55.3915 62.3603L66.8247 65.7209C68.7962 66.6017 70.1377 68.4581 70.3897 70.5774Z" fill="#FFF0D9"/>
<path d="M58.3354 41.2712C56.5588 50.8279 55.392 47.4422 55.392 62.3584L38.6766 62.3584C38.6766 47.3742 37.5294 50.9338 35.7332 41.2712L40.3816 39.1481C42.1891 38.7365 42.6656 38.8375 50.952 38.8375C51.8815 38.8375 52.8012 38.941 53.6979 39.1432C58.7987 41.4439 58.2723 41.1902 58.3354 41.2712Z" fill="#9C71BC"/>
<path d="M38.6244 57.3186L38.3057 52.2783C38.462 53.5377 38.5662 55.1005 38.6244 57.3186Z" fill="#9C71BC"/>
<path d="M55.764 52.2783L55.4453 57.3186C55.5035 55.1005 55.6077 53.5377 55.764 52.2783Z" fill="#9C71BC"/>
<path d="M55.8625 40.922C55.39 43.4635 54.7829 45.4503 54.3158 47.1579C53.5373 49.976 53.4882 51.5063 53.3823 55.5465C53.3192 57.9546 51.3603 59.8691 48.9685 59.8691L45.0908 59.8691C42.697 59.8691 40.7392 57.9518 40.6769 55.5465C40.5619 51.1067 40.4616 49.7578 39.7435 47.1579C39.2316 45.2869 38.6699 43.4671 38.1968 40.922L42.1843 39.1007C43.7258 38.7497 44.3752 38.8343 49.5289 38.8343C50.3262 38.8343 51.1152 38.9231 51.8844 39.0966C56.2607 41.0703 55.8083 40.8523 55.8625 40.922V40.922Z" fill="#B994DA"/>
<path d="M40.6789 55.5494L40.4055 50.3675C40.5395 51.4479 40.629 53.6468 40.6789 55.5494Z" fill="#B994DA"/>
<path d="M53.6597 50.3675L53.3864 55.5494C53.4362 53.6467 53.5256 51.4478 53.6597 50.3675V50.3675Z" fill="#B994DA"/>
<path d="M67.091 53.5832C67.091 55.6344 65.4329 57.3153 63.3781 57.3153L48.7045 57.3153C47.785 57.3153 47.0334 56.5662 47.0334 55.6344L47.0334 45.5536C47.3885 45.5281 47.7108 45.5634 48.0029 45.6474C50.9112 46.494 50.9112 52.275 50.9112 52.275L59.4519 52.275C58.3331 50.8443 53.0425 44.0688 52.9131 43.9032C52.1654 43.1516 51.9024 42.0992 52.1242 41.1345L52.1242 41.1333C52.3176 40.2888 52.8802 39.5438 53.6971 39.1393C55.3135 39.4992 56.8924 40.1991 58.291 41.2112C66.4069 51.6316 67.091 51.531 67.091 53.5832V53.5832Z" fill="#FFB5C3"/>
<path d="M47.0323 45.5562L47.0323 55.6369C47.0323 56.5686 46.2809 57.3178 45.3613 57.3178L30.6877 57.3178C27.5823 57.3178 25.8512 53.6893 27.7879 51.2543C36.1101 40.7935 35.7157 41.2812 35.759 41.2491C37.1896 40.2043 38.774 39.5113 40.3796 39.1467C42.1872 40.0555 42.578 42.473 41.1527 43.9057C41.0239 44.0706 35.7274 50.8537 34.6139 52.2775L43.1546 52.2775C43.1546 52.2775 43.1546 46.4965 46.0629 45.65C46.3549 45.5659 46.6773 45.5306 47.0323 45.5562V45.5562Z" fill="#FFB5C3"/>
<path d="M67.0584 53.0972C67.0148 53.437 66.9239 53.7634 66.7931 54.0679C66.1411 54.6465 65.2856 54.9961 64.3477 54.9961L49.6741 54.9961C48.7546 54.9961 48.0031 54.247 48.0031 53.3152L48.0031 45.6474C50.9113 46.494 50.9113 52.275 50.9113 52.275L59.452 52.275L58.6862 51.2956L60.4215 51.2956C60.4215 50.4385 60.1406 49.5953 59.5987 48.9021C56.9598 45.5247 58.2441 47.1689 53.8827 41.584C53.3811 41.0798 53.0938 40.3488 53.0938 40.1539C53.1641 39.8482 53.2828 39.551 53.4513 39.2757C53.5312 39.2258 53.6136 39.1807 53.6973 39.1393C56.0857 39.6712 58.1261 40.9993 58.3348 41.2673L66.2781 51.2518C66.7241 51.8127 66.9843 52.4768 67.0584 53.0972V53.0972Z" fill="#FFD0D9"/>
<path d="M46.0647 45.65L46.0647 53.3177C46.0647 54.2494 45.3132 54.9986 44.3936 54.9986L29.7201 54.9986C28.7821 54.9986 27.9266 54.649 27.2747 54.0705C27.1438 53.7659 27.0529 53.4395 27.0093 53.0997C27.0832 52.481 27.3425 51.8164 27.7897 51.2543C36.1119 40.7935 35.7174 41.2812 35.7608 41.2491C37.1913 40.2043 38.7758 39.5113 40.3814 39.1467C40.4614 39.1869 40.5401 39.2307 40.6177 39.2795C40.7849 39.5547 40.9037 39.8507 40.974 40.1565C40.7938 40.945 41.2035 40.2857 34.4691 48.9046C33.9359 49.5868 33.6463 50.4297 33.6463 51.2981L35.3815 51.2981L34.6157 52.2775L43.1564 52.2775C43.1564 52.2775 43.1564 46.4965 46.0647 45.65V45.65Z" fill="#FFD0D9"/>
<path d="M53.7183 28.1483C53.7183 31.6266 52.5951 33.7718 51.6171 36.0024C49.965 39.7769 44.1005 39.7764 42.4487 36.0024L41.5883 34.0401C40.4518 31.4374 40.1952 28.6638 40.4177 27.2566C40.8852 24.3385 43.6318 22.0384 47.0329 22.0384C50.7018 22.0384 53.7183 24.7496 53.7183 28.1483V28.1483Z" fill="#FFB5C3"/>
<path d="M53.647 27.2533C53.3928 29.8982 52.5611 31.5304 51.616 33.6859C49.964 37.4605 44.0994 37.46 42.4476 33.6859C41.4628 31.4397 40.6783 29.9187 40.4166 27.2545C41.1987 22.372 47.8276 20.2327 51.7602 23.8257C52.7527 24.7319 53.4337 25.922 53.647 27.2533V27.2533Z" fill="#FFD0D9"/>
<path d="M53.6979 27.6866C47.0694 24.9204 46.9919 32.4992 40.3598 28.7756C40.3513 28.5673 40.3464 28.3578 40.3464 28.1483C40.3464 24.753 43.3591 22.0384 47.0319 22.0384C50.5045 22.0384 53.437 24.4809 53.6979 27.6866Z" fill="#592F72"/>
<path d="M42.0171 73.2138C38.3158 75.074 37.9593 75.1145 37.4281 75.952C37.1554 76.3808 37.0027 76.8851 37.0027 77.4137L33.6594 77.4137L33.6594 71.1139C43.3871 73.5573 36.8379 71.9123 42.0171 73.2138V73.2138Z" fill="#FFB5C3"/>
<path d="M60.4048 71.1139L60.4048 77.4137L37.0039 77.4137C37.0039 76.4673 37.4942 75.6082 38.2569 75.1201C38.4173 75.0168 38.1772 75.1443 42.0183 73.2138C43.7147 72.0764 44.2822 71.5329 45.524 71.5329C46.9992 71.5329 48.1796 72.4668 48.5995 73.7351L48.7037 74.0531L60.4048 71.1139Z" fill="#FFB5C3"/>
<path d="M39.3863 72.5524C38.4866 73.0053 38.1021 73.1464 37.6704 73.6426C36.6339 74.8357 35.3255 75.4307 33.6594 75.4307L33.6594 71.1139L39.3863 72.5524Z" fill="#FFD0D9"/>
<path d="M60.4074 71.1139L60.4074 75.4307L38.7285 75.4307C38.4982 75.4307 38.3334 75.2943 38.2595 75.1201C38.3371 75.0701 38.4183 75.0239 38.5019 74.9824C42.7298 72.8575 41.5792 73.5094 43.7053 72.0847C45.4356 70.9265 47.9102 71.6446 48.6021 73.7351L48.7064 74.0531L60.4074 71.1139Z" fill="#FFD0D9"/>
<path d="M52.2812 24.3605C50.2889 26.048 44.3008 26.2956 41.449 24.7819C43.9591 21.3157 49.4485 21.0883 52.2812 24.3605Z" fill="#6A3B85"/>
<path d="M50.3756 20.49C48.3781 21.0796 45.6672 21.0647 43.689 20.4145C43.689 17.3033 47.3275 15.9106 49.3977 17.9832C50.0419 18.6334 50.3756 19.4459 50.3756 20.49Z" fill="#6A3B85"/>
<path d="M77.0861 76.4353L69.1869 76.4353C72.8981 72.9156 71.7518 66.8321 67.2185 64.8064C67.1265 64.7653 67.84 64.98 56.3615 61.6061C56.3642 60.3371 56.3743 59.2348 56.3918 58.2715L63.3783 58.2715C67.3385 58.2715 69.453 53.6582 67.0352 50.625L65.1921 48.3082C64.8578 47.888 64.2477 47.8196 63.8296 48.1558C63.4114 48.492 63.3434 49.1052 63.6778 49.5255L65.5216 51.843C66.9376 53.6193 65.6975 56.3227 63.3783 56.3227C47.3915 56.3227 48.5026 56.4101 48.2102 56.1187C47.9145 55.8189 48.0031 56.3651 48.0031 46.6732C49.4605 47.4245 49.9389 50.6349 49.942 52.2568C49.942 52.7949 50.376 53.2313 50.9114 53.2313L59.4521 53.2313C60.2584 53.2313 60.7138 52.2942 60.2145 51.655L55.5517 45.6854C55.2212 45.2623 54.612 45.1881 54.1906 45.5205C53.7694 45.8528 53.6961 46.4654 54.0265 46.8887L55.4683 48.7346C55.2452 49.5756 55.0653 50.3653 54.9204 51.2823L51.8389 51.2823C51.5837 47.9645 50.2977 44.3776 47.0338 44.5602C43.77 44.377 42.4844 47.9563 42.2286 51.2823L39.1471 51.2823C39.0022 50.3653 38.8222 49.5757 38.5991 48.7346L40.0409 46.8887C40.3715 46.4653 40.2981 45.8528 39.8768 45.5205C39.4554 45.1881 38.8461 45.262 38.5158 45.6854L33.8529 51.655C33.355 52.2925 33.807 53.2313 34.6154 53.2313L43.1561 53.2313C43.6907 53.2313 44.1245 52.7952 44.1255 52.2577C44.1285 50.6236 44.61 47.4229 46.0644 46.6732C46.0644 56.3527 46.1508 55.8211 45.8627 56.1132C45.5626 56.4125 46.7467 56.3227 30.6892 56.3227C28.3715 56.3227 27.1288 53.6206 28.5465 51.8423L36.408 41.9606C38.3869 40.5401 40.716 39.79 43.15 39.79C51.0348 39.79 53.9163 39.2917 57.6187 41.9081L58.7238 43.2985C59.0581 43.719 59.6682 43.7876 60.0862 43.4515C60.5045 43.1156 60.5728 42.5024 60.2385 42.0819C58.9745 40.4917 59.0103 40.5127 58.8576 40.4023C56.7137 38.8509 54.171 37.9696 51.5393 37.8548C52.3422 36.9726 52.5557 36.2552 53.366 34.4075C54.2172 32.4588 54.6888 30.33 54.6888 28.1239C54.6888 25.8329 53.5052 23.6361 51.3463 22.2695C51.3463 20.2616 51.5675 18.7647 50.083 17.2668C47.3863 14.5671 42.7208 16.4569 42.7208 20.3349L42.7208 22.2695C40.7038 23.5464 39.3783 25.6704 39.3783 28.1239C39.3783 30.2838 39.8234 32.3979 40.7017 34.4088C41.577 36.4046 41.7635 37.0154 42.5293 37.8563C39.7599 37.9815 37.1977 38.9504 35.1555 40.4659C34.9977 40.5833 35.504 39.9759 27.0326 50.6242C24.5639 53.7213 26.8031 58.2715 30.6889 58.2715L37.6754 58.2715C37.6929 59.2348 37.7029 60.3371 37.7057 61.6061C26.2099 64.9851 26.9411 64.7653 26.8494 64.8061C22.3041 66.8337 21.1807 72.9283 24.8853 76.4353L16.9813 76.4353C16.4459 76.4353 16.0118 76.8717 16.0118 77.4098C16.0118 77.9479 16.4459 78.3843 16.9813 78.3843L77.0861 78.3843C77.6214 78.3843 78.0555 77.9479 78.0555 77.4098C78.0555 76.8717 77.6214 76.4353 77.0861 76.4353V76.4353ZM56.9964 50.6911L57.4582 51.2823L56.8854 51.2823C56.9203 51.0803 56.9573 50.8839 56.9964 50.6911ZM37.0708 50.6911C37.1101 50.8839 37.1469 51.0804 37.1818 51.2823L36.609 51.2823L37.0708 50.6911ZM44.6598 20.3349C44.6598 18.2188 47.2208 17.1519 48.7121 18.6449C49.5266 19.4669 49.4074 20.3081 49.4074 21.3874C47.8662 20.9244 46.2035 20.9237 44.6596 21.3874L44.6596 20.3349L44.6598 20.3349ZM42.9576 24.5244C45.852 21.8798 50.8176 22.7895 52.3432 26.218C49.7086 25.6737 48.047 26.7489 46.6667 27.6435C45.0691 28.6796 43.8889 29.4437 41.3178 28.1573C41.3177 26.7079 41.9387 25.4554 42.9576 24.5244V24.5244ZM41.5027 30.3558C44.0925 31.2991 45.6972 30.5914 47.7176 29.2813C49.1451 28.3557 50.3932 27.5485 52.7471 28.3437C52.6954 31.5185 51.6259 33.5437 50.7302 35.5861C49.4188 38.5836 44.6472 38.5806 43.3367 35.5853C42.4395 33.5396 41.838 32.3662 41.5027 30.3558V30.3558ZM39.2417 73.4965C38.0575 74.0918 36.6586 74.5836 36.1651 76.4159L34.6315 76.4159L34.6315 72.338L39.2417 73.4965ZM38.2696 76.4159C38.6094 75.909 38.6292 75.9833 42.4529 74.0616C42.4738 74.051 42.5205 74.0248 42.553 74.0032C44.3723 72.7841 44.6275 72.4844 45.5617 72.4844C46.525 72.4844 47.3764 73.1015 47.68 74.0199L47.7851 74.3376C47.9451 74.821 48.4486 75.0989 48.9402 74.9755L59.4357 72.338L59.4357 76.416L38.2696 76.416L38.2696 76.4159ZM24.6034 71.2805C24.6034 69.2557 25.7842 67.4402 27.5795 66.6131L38.8148 63.3107L49.3458 63.3107C49.8811 63.3107 50.3152 62.8743 50.3152 62.3362C50.3152 61.7981 49.8811 61.3617 49.3458 61.3617L39.6439 61.3617C39.6407 60.1975 39.6308 59.1757 39.6145 58.2715L45.3625 58.2715C45.9753 58.2715 46.5579 58.0616 47.0331 57.6722C47.5053 58.0603 48.0899 58.2715 48.7046 58.2715L54.4525 58.2715C54.4285 59.6097 54.4221 61.0025 54.4221 62.3411C54.4229 62.5304 54.4789 62.72 54.5887 62.8829C54.8704 63.301 54.1524 62.9874 66.4874 66.6131C69.7099 68.1006 70.4869 72.3797 67.9676 74.912C67.0028 75.8819 65.7197 76.416 64.3549 76.416L61.3745 76.416L61.3745 71.8509L62.3115 71.6154C62.8309 71.4849 63.1468 70.9559 63.0168 70.4337C62.8871 69.9117 62.3615 69.5943 61.8413 69.7246L49.3037 72.8752C48.1511 70.5174 45.2188 69.8741 43.1654 71.2508L41.8381 72.1402L32.2256 69.7246C31.7066 69.5945 31.1798 69.9116 31.05 70.4337C30.9201 70.9559 31.2359 71.4849 31.7553 71.6154L32.6924 71.8509L32.6924 76.416L29.7122 76.416C26.8952 76.4159 24.6034 74.1122 24.6034 71.2805V71.2805Z" fill="#592F72"/>
<path d="M62.0513 46.8937C62.8546 46.8937 63.3192 45.9509 62.8066 45.3091L62.6538 45.1179C62.3187 44.6981 61.7085 44.6311 61.2909 44.9681C60.8735 45.305 60.8068 45.9183 61.142 46.338C61.3433 46.59 61.5541 46.8937 62.0513 46.8937Z" fill="#592F72"/>
</g>
<defs>
<clipPath id="clip0_3_1252">
<rect width="62.0632" height="62.3847" fill="white" transform="translate(16 16)"/>
</clipPath>
</defs>
</svg>
