<svg width="92" height="92" viewBox="0 0 92 92" fill="none" xmlns="http://www.w3.org/2000/svg">
<path d="M15.5991 76.0027L46.9089 22.4924L85.4448 24.5234L86.1656 26.66L60.6636 77.6239L15.5991 76.0027Z" fill="#592F72" stroke="#592F72" stroke-width="1.32201"/>
<path d="M82.9039 28.8957L59.1906 74.2134L13.7036 71.0109L23.8499 49.2151L67.0373 30.4831L82.9039 28.8957Z" fill="#FFD2DB" stroke="#592F72" stroke-width="1.32201"/>
<path d="M57.0632 48.8513L57.0631 48.8514C54.0007 50.5507 51.416 53.878 49.824 57.6017C48.3552 61.0375 47.6898 64.9081 48.3357 68.2938L6.60763 67.4856C5.20995 62.8445 5.46348 57.1537 7.08924 52.0454C8.76982 46.7647 11.8752 42.2296 15.9738 40.1066C18.5683 38.7701 21.3917 38.0965 24.3143 37.4485C24.5058 37.4061 24.6977 37.3637 24.8901 37.3213C27.6085 36.7215 30.4046 36.1046 33.0354 34.9388C39.1987 32.2084 43.3198 27.701 45.3213 20.8976L67.361 21.9496L67.3666 21.9498L84.4453 22.6208C84.5199 25.8937 83.1656 29.449 80.9317 32.7644C78.5696 36.2699 75.2685 39.4389 71.8075 41.6271C69.9907 42.7753 67.299 44.0358 64.5408 45.2906C64.1753 45.4569 63.8087 45.6231 63.443 45.7888C61.0755 46.8618 58.7508 47.9154 57.0632 48.8513Z" fill="#FFD2DB" stroke="#592F72" stroke-width="1.32201"/>
<mask id="path-4-inside-1_2_195" fill="white">
<path d="M6.12009 68.1405C6.12009 68.1405 6.07777 68.0275 6.01429 67.8017C5.94376 67.5585 5.84501 67.2198 5.71805 66.7769C5.56993 66.3339 5.47823 65.7433 5.35127 65.0572C5.1961 64.3711 5.14673 63.5633 5.05503 62.6427C4.94923 60.8101 4.96334 58.5173 5.39359 55.903C5.8309 53.3061 6.6632 50.3705 8.15146 47.4871C8.5394 46.7835 8.90617 46.0279 9.39285 45.3592C9.62561 45.0118 9.84427 44.647 10.0982 44.3083C10.3592 43.9782 10.6272 43.6482 10.8952 43.3181C11.1562 42.9707 11.4524 42.6667 11.7557 42.3628C12.059 42.0588 12.3553 41.7374 12.6797 41.4508C13.3568 40.9297 14.0058 40.3218 14.7746 39.9136C17.7582 38.0636 21.3201 37.2819 25.0302 36.4568C26.8923 36.0399 28.8037 35.6057 30.7293 34.9543C32.6478 34.2855 34.5734 33.391 36.4002 32.1403C37.3172 31.5236 38.2059 30.8115 39.0523 30.0037C39.8987 29.2047 40.6887 28.2928 41.4011 27.2679C42.847 25.2529 43.9403 22.8037 44.6738 20.1634L44.7161 20.0244L44.836 20.0331C50.8314 20.311 57.116 20.6064 63.6403 20.919C70.1576 21.2317 76.9077 21.4488 83.82 21.7354C84.2432 21.7528 84.6664 21.7702 85.0826 21.7875L85.2378 21.7962L85.2519 21.9873C85.3718 23.6635 85.1249 25.3398 84.6805 26.8858C84.483 27.6761 84.1727 28.4057 83.8906 29.1439C83.559 29.8474 83.2487 30.5683 82.8608 31.2284C81.3937 33.9294 79.5104 36.1876 77.5284 38.1678C75.5253 40.1394 73.3528 41.7722 71.0957 43.0663C68.8246 44.3256 66.5252 45.3505 64.2751 46.3753C62.0251 47.4002 59.7962 48.3729 57.6802 49.502C56.6434 50.0926 55.6489 50.7787 54.7813 51.6646C54.3228 52.0642 53.942 52.5766 53.5258 53.0282C53.159 53.5406 52.7499 54.001 52.4184 54.5481C51.0289 56.6499 49.985 59.0297 49.4066 61.5136C48.8 63.9802 48.7295 66.5945 49.3008 68.9308L49.3573 69.1653L49.1598 69.1653C36.1181 68.8787 25.3617 68.6442 17.8569 68.4792C14.1116 68.3836 11.1844 68.3142 9.1742 68.262C8.17967 68.2273 7.42496 68.2099 6.89596 68.1926C6.38107 68.1665 6.12009 68.1405 6.12009 68.1405C6.12009 68.1405 6.38812 68.1318 6.90301 68.1318C7.42496 68.1318 8.18672 68.1404 9.18125 68.1491C11.1915 68.1752 14.1186 68.2186 17.8639 68.2707C25.3758 68.401 36.1322 68.5834 49.1739 68.8005L49.0328 69.035C48.4333 66.6206 48.5038 63.9281 49.1245 61.4094C49.7099 58.8647 50.7679 56.4415 52.1786 54.3049C52.5101 53.7491 52.9263 53.2714 53.3001 52.7503C53.7233 52.29 54.1112 51.7688 54.5838 51.3606C55.4655 50.4487 56.4882 49.7452 57.5462 49.1372C59.6763 47.9908 61.9052 47.018 64.1552 45.9845C66.4053 44.9596 68.6976 43.9261 70.9476 42.6841C73.1835 41.4074 75.3278 39.7833 77.3098 37.8378C79.2706 35.8749 81.1256 33.6428 82.5716 30.9852C82.9525 30.3425 83.2558 29.6303 83.5802 28.9441C83.8553 28.2233 84.1515 27.5111 84.349 26.7468C84.7722 25.2442 85.012 23.6288 84.8992 22.0307L85.0685 22.2218C84.6594 22.2044 84.2291 22.187 83.8059 22.1697C76.8936 21.8831 70.1435 21.6659 63.6262 21.3446C57.1089 21.0319 50.8173 20.7279 44.8219 20.4413L44.9842 20.3024C44.2365 22.9861 43.1221 25.4874 41.6409 27.5371C40.9144 28.5707 40.1032 29.5 39.2427 30.3164C38.3893 31.1415 37.4864 31.8624 36.5483 32.479C34.6933 33.7384 32.7395 34.6329 30.8069 35.3104C28.8672 35.9618 26.9416 36.396 25.0796 36.8042C21.3695 37.6206 17.8216 38.3849 14.8804 40.2002C14.1257 40.5997 13.4768 41.199 12.8137 41.7027C12.4963 41.9893 12.2001 42.302 11.9038 42.5973C11.6006 42.8926 11.3043 43.1879 11.0504 43.5353C10.7824 43.8653 10.5214 44.1867 10.2604 44.508C10.0065 44.838 9.7949 45.2028 9.56214 45.5415C9.08251 46.2103 8.71573 46.9486 8.3278 47.6434C6.83953 50.4834 6.00018 53.3843 5.54877 55.9638C5.1044 58.552 5.06913 60.8275 5.16083 62.6514C5.24547 63.5634 5.28779 64.3711 5.42886 65.0572C5.54877 65.7433 5.62635 66.3252 5.76742 66.7769C5.88027 67.2198 5.97197 67.5672 6.03545 67.8104C6.09893 68.0189 6.12009 68.1405 6.12009 68.1405Z"/>
</mask>
<path d="M6.12009 68.1405C6.12009 68.1405 6.07777 68.0275 6.01429 67.8017C5.94376 67.5585 5.84501 67.2198 5.71805 66.7769C5.56993 66.3339 5.47823 65.7433 5.35127 65.0572C5.1961 64.3711 5.14673 63.5633 5.05503 62.6427C4.94923 60.8101 4.96334 58.5173 5.39359 55.903C5.8309 53.3061 6.6632 50.3705 8.15146 47.4871C8.5394 46.7835 8.90617 46.0279 9.39285 45.3592C9.62561 45.0118 9.84427 44.647 10.0982 44.3083C10.3592 43.9782 10.6272 43.6482 10.8952 43.3181C11.1562 42.9707 11.4524 42.6667 11.7557 42.3628C12.059 42.0588 12.3553 41.7374 12.6797 41.4508C13.3568 40.9297 14.0058 40.3218 14.7746 39.9136C17.7582 38.0636 21.3201 37.2819 25.0302 36.4568C26.8923 36.0399 28.8037 35.6057 30.7293 34.9543C32.6478 34.2855 34.5734 33.391 36.4002 32.1403C37.3172 31.5236 38.2059 30.8115 39.0523 30.0037C39.8987 29.2047 40.6887 28.2928 41.4011 27.2679C42.847 25.2529 43.9403 22.8037 44.6738 20.1634L44.7161 20.0244L44.836 20.0331C50.8314 20.311 57.116 20.6064 63.6403 20.919C70.1576 21.2317 76.9077 21.4488 83.82 21.7354C84.2432 21.7528 84.6664 21.7702 85.0826 21.7875L85.2378 21.7962L85.2519 21.9873C85.3718 23.6635 85.1249 25.3398 84.6805 26.8858C84.483 27.6761 84.1727 28.4057 83.8906 29.1439C83.559 29.8474 83.2487 30.5683 82.8608 31.2284C81.3937 33.9294 79.5104 36.1876 77.5284 38.1678C75.5253 40.1394 73.3528 41.7722 71.0957 43.0663C68.8246 44.3256 66.5252 45.3505 64.2751 46.3753C62.0251 47.4002 59.7962 48.3729 57.6802 49.502C56.6434 50.0926 55.6489 50.7787 54.7813 51.6646C54.3228 52.0642 53.942 52.5766 53.5258 53.0282C53.159 53.5406 52.7499 54.001 52.4184 54.5481C51.0289 56.6499 49.985 59.0297 49.4066 61.5136C48.8 63.9802 48.7295 66.5945 49.3008 68.9308L49.3573 69.1653L49.1598 69.1653C36.1181 68.8787 25.3617 68.6442 17.8569 68.4792C14.1116 68.3836 11.1844 68.3142 9.1742 68.262C8.17967 68.2273 7.42496 68.2099 6.89596 68.1926C6.38107 68.1665 6.12009 68.1405 6.12009 68.1405C6.12009 68.1405 6.38812 68.1318 6.90301 68.1318C7.42496 68.1318 8.18672 68.1404 9.18125 68.1491C11.1915 68.1752 14.1186 68.2186 17.8639 68.2707C25.3758 68.401 36.1322 68.5834 49.1739 68.8005L49.0328 69.035C48.4333 66.6206 48.5038 63.9281 49.1245 61.4094C49.7099 58.8647 50.7679 56.4415 52.1786 54.3049C52.5101 53.7491 52.9263 53.2714 53.3001 52.7503C53.7233 52.29 54.1112 51.7688 54.5838 51.3606C55.4655 50.4487 56.4882 49.7452 57.5462 49.1372C59.6763 47.9908 61.9052 47.018 64.1552 45.9845C66.4053 44.9596 68.6976 43.9261 70.9476 42.6841C73.1835 41.4074 75.3278 39.7833 77.3098 37.8378C79.2706 35.8749 81.1256 33.6428 82.5716 30.9852C82.9525 30.3425 83.2558 29.6303 83.5802 28.9441C83.8553 28.2233 84.1515 27.5111 84.349 26.7468C84.7722 25.2442 85.012 23.6288 84.8992 22.0307L85.0685 22.2218C84.6594 22.2044 84.2291 22.187 83.8059 22.1697C76.8936 21.8831 70.1435 21.6659 63.6262 21.3446C57.1089 21.0319 50.8173 20.7279 44.8219 20.4413L44.9842 20.3024C44.2365 22.9861 43.1221 25.4874 41.6409 27.5371C40.9144 28.5707 40.1032 29.5 39.2427 30.3164C38.3893 31.1415 37.4864 31.8624 36.5483 32.479C34.6933 33.7384 32.7395 34.6329 30.8069 35.3104C28.8672 35.9618 26.9416 36.396 25.0796 36.8042C21.3695 37.6206 17.8216 38.3849 14.8804 40.2002C14.1257 40.5997 13.4768 41.199 12.8137 41.7027C12.4963 41.9893 12.2001 42.302 11.9038 42.5973C11.6006 42.8926 11.3043 43.1879 11.0504 43.5353C10.7824 43.8653 10.5214 44.1867 10.2604 44.508C10.0065 44.838 9.7949 45.2028 9.56214 45.5415C9.08251 46.2103 8.71573 46.9486 8.3278 47.6434C6.83953 50.4834 6.00018 53.3843 5.54877 55.9638C5.1044 58.552 5.06913 60.8275 5.16083 62.6514C5.24547 63.5634 5.28779 64.3711 5.42886 65.0572C5.54877 65.7433 5.62635 66.3252 5.76742 66.7769C5.88027 67.2198 5.97197 67.5672 6.03545 67.8104C6.09893 68.0189 6.12009 68.1405 6.12009 68.1405Z" fill="#592F72"/>
<path d="M6.12009 68.1405L4.88214 68.6044L5.17065 69.3743L5.98876 69.4559L6.12009 68.1405ZM6.01429 67.8017L7.28701 67.4439L7.28397 67.4335L6.01429 67.8017ZM5.71805 66.7769L6.98889 66.4126L6.98095 66.3849L6.97182 66.3576L5.71805 66.7769ZM5.35127 65.0572L6.65122 64.8167L6.64647 64.791L6.64072 64.7656L5.35127 65.0572ZM5.05503 62.6427L3.73522 62.7189L3.7368 62.7464L3.73953 62.7737L5.05503 62.6427ZM5.39359 55.903L4.08993 55.6835L4.08913 55.6883L5.39359 55.903ZM8.15146 47.4871L6.9938 46.8487L6.98503 46.8646L6.9767 46.8807L8.15146 47.4871ZM9.39285 45.3592L10.4618 46.1371L10.4769 46.1163L10.4911 46.095L9.39285 45.3592ZM10.0982 44.3083L9.0612 43.4883L9.05063 43.5017L9.0404 43.5153L10.0982 44.3083ZM10.8952 43.3181L11.9214 44.1515L11.9372 44.1321L11.9522 44.1122L10.8952 43.3181ZM12.6797 41.4508L11.8734 40.4032L11.838 40.4304L11.8045 40.46L12.6797 41.4508ZM14.7746 39.9136L15.3945 41.0812L15.4336 41.0604L15.4712 41.0371L14.7746 39.9136ZM25.0302 36.4568L25.3172 37.7473L25.319 37.7469L25.0302 36.4568ZM30.7293 34.9543L31.1529 36.2066L31.1644 36.2026L30.7293 34.9543ZM36.4002 32.1403L35.6624 31.0432L35.6534 31.0494L36.4002 32.1403ZM39.0523 30.0037L38.1447 29.0424L38.1396 29.0473L39.0523 30.0037ZM41.4011 27.2679L40.327 26.4971L40.3212 26.5052L40.3155 26.5133L41.4011 27.2679ZM44.6738 20.1634L43.4092 19.7782L43.4044 19.7938L43.4001 19.8095L44.6738 20.1634ZM44.7161 20.0244L44.8114 18.7059L43.7589 18.6298L43.4515 19.6393L44.7161 20.0244ZM44.836 20.0331L44.7407 21.3517L44.7578 21.3529L44.7748 21.3537L44.836 20.0331ZM63.6403 20.919L63.7037 19.5985L63.7036 19.5985L63.6403 20.919ZM83.82 21.7354L83.7653 23.0563L83.7658 23.0563L83.82 21.7354ZM85.0826 21.7875L85.1563 20.4676L85.147 20.4671L85.1377 20.4667L85.0826 21.7875ZM85.2378 21.7962L86.5562 21.6989L86.4707 20.541L85.3115 20.4763L85.2378 21.7962ZM85.2519 21.9873L86.5705 21.893L86.5703 21.8899L85.2519 21.9873ZM84.6805 26.8858L83.41 26.5205L83.4036 26.5428L83.398 26.5653L84.6805 26.8858ZM83.8906 29.1439L85.0864 29.7074L85.1077 29.6624L85.1255 29.6159L83.8906 29.1439ZM82.8608 31.2284L81.721 30.5585L81.7097 30.5778L81.6991 30.5974L82.8608 31.2284ZM77.5284 38.1678L78.4558 39.1101L78.4628 39.103L77.5284 38.1678ZM71.0957 43.0663L71.7368 44.2225L71.7451 44.2179L71.7533 44.2132L71.0957 43.0663ZM57.6802 49.502L57.0579 48.3356L57.0418 48.3442L57.0259 48.3533L57.6802 49.502ZM54.7813 51.6646L55.6498 52.6613L55.6892 52.627L55.7258 52.5896L54.7813 51.6646ZM53.5258 53.0282L52.5536 52.1324L52.4983 52.1924L52.4508 52.2588L53.5258 53.0282ZM52.4184 54.5481L53.5212 55.2772L53.5356 55.2555L53.5491 55.2332L52.4184 54.5481ZM49.4066 61.5136L50.6904 61.8294L50.6923 61.8214L50.6942 61.8135L49.4066 61.5136ZM49.3008 68.9308L50.5862 68.6215L50.585 68.6168L49.3008 68.9308ZM49.3573 69.1653L49.3573 70.4873L51.0351 70.4873L50.6426 68.856L49.3573 69.1653ZM49.1598 69.1653L49.1307 70.487L49.1452 70.4873L49.1598 70.4873L49.1598 69.1653ZM17.8569 68.4792L17.8232 69.8008L17.8278 69.8009L17.8569 68.4792ZM9.1742 68.262L9.12804 69.5833L9.13994 69.5836L9.1742 68.262ZM6.89596 68.1926L6.82915 69.5129L6.84086 69.5135L6.85258 69.5139L6.89596 68.1926ZM9.18125 68.1491L9.19838 66.8272L9.19279 66.8272L9.18125 68.1491ZM17.8639 68.2707L17.8869 66.9489L17.8823 66.9489L17.8639 68.2707ZM49.1739 68.8005L50.3067 69.4819L51.4887 67.5169L49.1959 67.4787L49.1739 68.8005ZM49.0328 69.035L47.7497 69.3536L48.5194 72.4533L50.1657 69.7165L49.0328 69.035ZM49.1245 61.4094L50.4081 61.7258L50.4106 61.7158L50.4128 61.7058L49.1245 61.4094ZM52.1786 54.3049L53.2818 55.0333L53.2985 55.0081L53.314 54.9821L52.1786 54.3049ZM53.3001 52.7503L52.3269 51.8555L52.2726 51.9146L52.2259 51.9797L53.3001 52.7503ZM54.5838 51.3606L55.448 52.3611L55.493 52.3223L55.5343 52.2795L54.5838 51.3606ZM57.5462 49.1372L56.9197 47.9731L56.9035 47.9818L56.8876 47.991L57.5462 49.1372ZM64.1552 45.9845L63.6072 44.7814L63.6034 44.7832L64.1552 45.9845ZM70.9476 42.6841L71.5865 43.8415L71.5949 43.8369L71.6032 43.8322L70.9476 42.6841ZM77.3098 37.8378L78.2359 38.7813L78.2451 38.7721L77.3098 37.8378ZM82.5716 30.9852L81.4343 30.3112L81.4219 30.3321L81.4103 30.3534L82.5716 30.9852ZM83.5802 28.9441L84.7753 29.5093L84.7972 29.4631L84.8154 29.4155L83.5802 28.9441ZM84.349 26.7468L83.0765 26.3884L83.0726 26.4022L83.0691 26.416L84.349 26.7468ZM84.8992 22.0307L85.8887 21.1541L83.3061 18.239L83.5805 22.1239L84.8992 22.0307ZM85.0685 22.2218L85.0124 23.5426L88.1219 23.6747L86.058 21.3451L85.0685 22.2218ZM83.8059 22.1697L83.7511 23.4905L83.7517 23.4906L83.8059 22.1697ZM63.6262 21.3446L63.6913 20.0242L63.6896 20.0241L63.6262 21.3446ZM44.8219 20.4413L43.9619 19.4373L41.4337 21.6029L44.7588 21.7618L44.8219 20.4413ZM44.9842 20.3024L46.2577 20.6571L47.4236 16.4721L44.1241 19.2983L44.9842 20.3024ZM41.6409 27.5371L40.5694 26.7628L40.5643 26.7698L40.5593 26.7769L41.6409 27.5371ZM39.2427 30.3164L38.3328 29.3573L38.3238 29.3659L39.2427 30.3164ZM36.5483 32.479L35.8222 31.3743L35.8139 31.3797L35.8058 31.3852L36.5483 32.479ZM30.8069 35.3104L31.2278 36.5636L31.236 36.5608L31.2442 36.558L30.8069 35.3104ZM25.0796 36.8042L24.7965 35.5129L24.7954 35.5131L25.0796 36.8042ZM14.8804 40.2002L15.4989 41.3686L15.5375 41.3481L15.5747 41.3252L14.8804 40.2002ZM12.8137 41.7027L12.014 40.6501L11.9693 40.684L11.9277 40.7215L12.8137 41.7027ZM11.9038 42.5973L12.8261 43.5445L12.8317 43.5391L12.8372 43.5336L11.9038 42.5973ZM11.0504 43.5353L12.0766 44.3687L12.0978 44.3425L12.1177 44.3154L11.0504 43.5353ZM10.2604 44.508L9.23419 43.6746L9.22323 43.6881L9.21263 43.7019L10.2604 44.508ZM9.56214 45.5415L10.6364 46.312L10.6442 46.3012L10.6517 46.2903L9.56214 45.5415ZM8.3278 47.6434L7.17351 46.9989L7.16496 47.0142L7.15682 47.0298L8.3278 47.6434ZM5.54877 55.9638L4.24654 55.7359L4.24582 55.7401L5.54877 55.9638ZM5.16083 62.6514L3.84048 62.7178L3.84189 62.7457L3.84447 62.7736L5.16083 62.6514ZM5.42886 65.0572L6.73113 64.8296L6.72775 64.8102L6.72379 64.791L5.42886 65.0572ZM5.76742 66.7769L7.0485 66.4505L7.03981 66.4163L7.0293 66.3827L5.76742 66.7769ZM6.03545 67.8104L4.7563 68.1443L4.76303 68.1701L4.77079 68.1956L6.03545 67.8104ZM6.12009 68.1405C7.35803 67.6766 7.35807 67.6767 7.3581 67.6768C7.35812 67.6768 7.35815 67.6769 7.35818 67.6769C7.35822 67.6771 7.35827 67.6772 7.35832 67.6773C7.35841 67.6776 7.3585 67.6778 7.35859 67.6781C7.35877 67.6785 7.35894 67.679 7.35909 67.6794C7.35941 67.6802 7.35968 67.681 7.35991 67.6816C7.36037 67.6828 7.36066 67.6837 7.3608 67.684C7.36107 67.6848 7.36071 67.6838 7.35975 67.6811C7.35784 67.6756 7.35354 67.6632 7.34718 67.6438C7.33448 67.6051 7.31353 67.5385 7.28697 67.444L4.74161 68.1595C4.77853 68.2908 4.81048 68.3936 4.8348 68.4677C4.84696 68.5048 4.85721 68.5347 4.86521 68.5575C4.86921 68.5689 4.87265 68.5785 4.87549 68.5863C4.87691 68.5902 4.87817 68.5937 4.87929 68.5967C4.87984 68.5982 4.88036 68.5996 4.88083 68.6009C4.88107 68.6015 4.8813 68.6021 4.88152 68.6027C4.88163 68.603 4.88174 68.6033 4.88184 68.6036C4.88189 68.6037 4.88194 68.6038 4.88199 68.604C4.88202 68.604 4.88206 68.6041 4.88207 68.6042C4.88211 68.6043 4.88214 68.6044 6.12009 68.1405ZM7.28397 67.4335C7.21298 67.1887 7.1151 66.853 6.98889 66.4126L4.44721 67.1411C4.57492 67.5867 4.67453 67.9284 4.74461 68.17L7.28397 67.4335ZM6.97182 66.3576C6.86215 66.0297 6.79271 65.5813 6.65122 64.8167L4.05133 65.2977C4.16376 65.9053 4.27771 66.6382 4.46428 67.1961L6.97182 66.3576ZM6.64072 64.7656C6.50933 64.1846 6.47043 63.5147 6.37053 62.5117L3.73953 62.7737C3.82302 63.612 3.88286 64.5575 4.06183 65.3488L6.64072 64.7656ZM6.37484 62.5665C6.27317 60.8054 6.28732 58.6134 6.69805 56.1177L4.08913 55.6883C3.63935 58.4212 3.62529 60.8149 3.73522 62.7189L6.37484 62.5665ZM6.69725 56.1225C7.11662 53.6322 7.9126 50.8323 9.32623 48.0934L6.9767 46.8807C5.4138 49.9088 4.54518 52.9801 4.08994 55.6835L6.69725 56.1225ZM9.30913 48.1254C9.74238 47.3397 10.0399 46.7168 10.4618 46.1371L8.32393 44.5813C7.77245 45.3391 7.33641 46.2274 6.9938 46.8487L9.30913 48.1254ZM10.4911 46.095C10.7762 45.6695 10.9272 45.4065 11.156 45.1012L9.0404 43.5153C8.76136 43.8875 8.47502 44.354 8.29456 44.6233L10.4911 46.095ZM11.1352 45.1283C11.3899 44.8061 11.6525 44.4827 11.9214 44.1515L9.869 42.4847C9.60191 42.8136 9.32841 43.1504 9.0612 43.4883L11.1352 45.1283ZM11.9522 44.1122C12.1519 43.8463 12.3888 43.6 12.6916 43.2965L10.8199 41.429C10.5161 41.7335 10.1605 42.0951 9.83823 42.5241L11.9522 44.1122ZM12.6916 43.2965C13.0449 42.9424 13.2718 42.6918 13.555 42.4416L11.8045 40.46C11.4388 40.7831 11.0732 41.1751 10.8199 41.429L12.6916 43.2965ZM13.486 42.4985C14.3025 41.8701 14.7561 41.4202 15.3945 41.0812L14.1546 38.7459C13.2554 39.2234 12.4112 39.9893 11.8734 40.4032L13.486 42.4985ZM15.4712 41.0371C18.2288 39.3273 21.5554 38.5839 25.3172 37.7473L24.7432 35.1664C21.0848 35.98 17.2875 36.7999 14.0779 38.79L15.4712 41.0371ZM25.319 37.7469C27.1759 37.3312 29.1521 36.8834 31.1529 36.2066L30.3057 33.702C28.4554 34.3279 26.6086 34.7487 24.7413 35.1668L25.319 37.7469ZM31.1644 36.2026C33.1692 35.5038 35.2047 34.5609 37.147 33.2311L35.6534 31.0494C33.9421 32.221 32.1265 33.0672 30.2941 33.7059L31.1644 36.2026ZM37.138 33.2373C38.1178 32.5783 39.065 31.819 39.965 30.9601L38.1396 29.0473C37.3468 29.8039 36.5165 30.4689 35.6625 31.0433L37.138 33.2373ZM39.9598 30.965C40.8729 30.1031 41.7224 29.1218 42.4866 28.0225L40.3155 26.5133C39.6549 27.4637 38.9245 28.3063 38.1448 29.0424L39.9598 30.965ZM42.4751 28.0387C44.0295 25.8726 45.1816 23.2744 45.9476 20.5173L43.4001 19.8095C42.699 22.3329 41.6645 24.6333 40.327 26.4971L42.4751 28.0387ZM45.9385 20.5486L45.9808 20.4096L43.4515 19.6393L43.4092 19.7782L45.9385 20.5486ZM44.6208 21.343L44.7407 21.3517L44.9314 18.7145L44.8114 18.7059L44.6208 21.343ZM44.7748 21.3537C50.7696 21.6316 57.0535 21.9269 63.5771 22.2395L63.7036 19.5985C57.1785 19.2858 50.8932 18.9905 44.8973 18.7125L44.7748 21.3537ZM63.577 22.2395C70.0974 22.5523 76.8721 22.7705 83.7653 23.0563L83.8748 20.4145C76.9433 20.1271 70.2179 19.911 63.7037 19.5985L63.577 22.2395ZM83.7658 23.0563C84.189 23.0737 84.6118 23.0911 85.0274 23.1084L85.1377 20.4667C84.7211 20.4493 84.2974 20.4319 83.8742 20.4145L83.7658 23.0563ZM85.0089 23.1075L85.164 23.1162L85.3115 20.4763L85.1563 20.4676L85.0089 23.1075ZM83.9193 21.8936L83.9334 22.0846L86.5703 21.8899L86.5562 21.6989L83.9193 21.8936ZM83.9332 22.0816C84.0397 23.57 83.8217 25.0882 83.41 26.5205L85.9511 27.251C86.4281 25.5913 86.7038 23.757 86.5705 21.893L83.9332 22.0816ZM83.398 26.5653C83.2257 27.2548 82.9611 27.8727 82.6557 28.672L85.1255 29.6159C85.3843 28.9386 85.7404 28.0974 85.9631 27.2062L83.398 26.5653ZM82.6947 28.5804C82.3367 29.3401 82.0686 29.9671 81.721 30.5585L84.0005 31.8982C84.4288 31.1694 84.7814 30.3548 85.0864 29.7074L82.6947 28.5804ZM81.6991 30.5974C80.3111 33.1528 78.518 35.3103 76.594 37.2326L78.4628 39.103C80.5028 37.0649 82.4763 34.7061 84.0225 31.8593L81.6991 30.5974ZM76.6011 37.2256C74.6784 39.1179 72.5966 40.6819 70.4382 41.9194L71.7533 44.2132C74.109 42.8625 76.3721 41.1608 78.4558 39.11L76.6011 37.2256ZM70.4547 41.9101C68.2392 43.1386 65.9938 44.1398 63.7271 45.1723L64.8231 47.5784C67.0565 46.5612 69.41 45.5127 71.7368 44.2225L70.4547 41.9101ZM63.7271 45.1723C61.5048 46.1845 59.2213 47.1813 57.0579 48.3356L58.3026 50.6684C60.3712 49.5646 62.5454 48.6159 64.8231 47.5784L63.7271 45.1723ZM57.0259 48.3533C55.9248 48.9805 54.8187 49.737 53.8368 50.7396L55.7258 52.5896C56.479 51.8205 57.362 51.2047 58.3346 50.6507L57.0259 48.3533ZM53.9128 50.668C53.6141 50.9282 53.357 51.2108 53.1414 51.4579C52.904 51.73 52.7473 51.9222 52.5536 52.1324L54.498 53.924C54.7205 53.6826 54.9622 53.3927 55.1339 53.1959C55.3275 52.974 55.49 52.8006 55.6498 52.6613L53.9128 50.668ZM52.4508 52.2588C52.2839 52.4919 52.1199 52.6964 51.9093 52.9714C51.7116 53.2295 51.4914 53.5269 51.2877 53.8631L53.5491 55.2332C53.6769 55.0222 53.827 54.8158 54.0085 54.5789C54.177 54.3588 54.4009 54.0769 54.6008 53.7977L52.4508 52.2588ZM51.3156 53.8191C49.8425 56.0473 48.7342 58.5718 48.1191 61.2138L50.6942 61.8135C51.2357 59.4876 52.2153 57.2526 53.5212 55.2772L51.3156 53.8191ZM48.1229 61.1979C47.473 63.8405 47.3877 66.6728 48.0167 69.2448L50.585 68.6168C50.0713 66.5162 50.1271 64.12 50.6904 61.8294L48.1229 61.1979ZM48.0155 69.2401L48.0719 69.4746L50.6426 68.856L50.5861 68.6215L48.0155 69.2401ZM49.3573 67.8433L49.1598 67.8433L49.1598 70.4873L49.3573 70.4873L49.3573 67.8433ZM49.1888 67.8436C36.1457 67.557 25.3919 67.3225 17.886 67.1575L17.8278 69.8009C25.3315 69.9659 36.0905 70.2004 49.1307 70.487L49.1888 67.8436ZM17.8906 67.1576C14.1391 67.0619 11.2212 66.9926 9.20846 66.9405L9.13994 69.5836C11.1477 69.6357 14.084 69.7054 17.8232 69.8008L17.8906 67.1576ZM9.22035 66.9408C8.23885 66.9066 7.43683 66.8876 6.93935 66.8713L6.85258 69.5139C7.4131 69.5323 8.1205 69.548 9.12805 69.5832L9.22035 66.9408ZM6.96278 66.8722C6.71628 66.8598 6.53317 66.8474 6.41432 66.8385C6.35489 66.834 6.31153 66.8304 6.28434 66.828C6.27075 66.8268 6.2612 66.8259 6.2557 66.8254C6.25296 66.8251 6.25122 66.825 6.25051 66.8249C6.25015 66.8249 6.25005 66.8249 6.2502 66.8249C6.25027 66.8249 6.25041 66.8249 6.25061 66.8249C6.25071 66.8249 6.25083 66.8249 6.25096 66.8249C6.25103 66.825 6.2511 66.825 6.25118 66.825C6.25121 66.825 6.25127 66.825 6.25129 66.825C6.25135 66.825 6.25141 66.825 6.12009 68.1405C5.98876 69.4559 5.98883 69.4559 5.98889 69.4559C5.98891 69.4559 5.98898 69.456 5.98902 69.456C5.98911 69.456 5.98921 69.456 5.98931 69.456C5.9895 69.456 5.98971 69.456 5.98994 69.4561C5.9904 69.4561 5.99092 69.4561 5.99151 69.4562C5.99268 69.4563 5.9941 69.4565 5.99578 69.4566C5.99914 69.4569 6.00351 69.4574 6.00891 69.4579C6.0197 69.4589 6.03456 69.4602 6.05348 69.4619C6.09132 69.4652 6.14538 69.4697 6.21556 69.475C6.35592 69.4856 6.56075 69.4993 6.82915 69.5129L6.96278 66.8722ZM6.12009 68.1405C6.16294 69.4618 6.16291 69.4618 6.16287 69.4618C6.16286 69.4618 6.16282 69.4618 6.1628 69.4618C6.16275 69.4618 6.16271 69.4618 6.16267 69.4618C6.1626 69.4618 6.16254 69.4618 6.1625 69.4618C6.16241 69.4618 6.1624 69.4618 6.16244 69.4618C6.16254 69.4618 6.16289 69.4618 6.1635 69.4618C6.16473 69.4617 6.167 69.4617 6.1703 69.4616C6.1769 69.4614 6.18765 69.4611 6.20248 69.4607C6.23216 69.46 6.27822 69.459 6.34033 69.4579C6.46456 69.4559 6.653 69.4538 6.90301 69.4538L6.90301 66.8098C6.63813 66.8098 6.4351 66.812 6.29659 66.8143C6.22734 66.8154 6.17421 66.8166 6.13754 66.8175C6.11921 66.8179 6.10498 66.8183 6.09492 66.8186C6.08989 66.8188 6.08589 66.8189 6.08294 66.819C6.08147 66.819 6.08025 66.819 6.0793 66.8191C6.07882 66.8191 6.07841 66.8191 6.07807 66.8191C6.0779 66.8191 6.07774 66.8191 6.0776 66.8191C6.07753 66.8191 6.07746 66.8191 6.0774 66.8191C6.07737 66.8191 6.07733 66.8191 6.07731 66.8191C6.07727 66.8191 6.07723 66.8191 6.12009 68.1405ZM6.90301 69.4538C7.41727 69.4538 8.16807 69.4623 9.1697 69.4711L9.19279 66.8272C8.20538 66.8185 7.43265 66.8098 6.90301 66.8098L6.90301 69.4538ZM9.16411 69.471C11.1737 69.4971 14.0981 69.5405 17.8456 69.5926L17.8823 66.9489C14.1391 66.8968 11.2093 66.8533 9.19838 66.8272L9.16411 69.471ZM17.841 69.5925C25.3533 69.7228 36.11 69.9052 49.1519 70.1223L49.1959 67.4787C36.1544 67.2616 25.3983 67.0792 17.8869 66.9489L17.841 69.5925ZM48.041 68.1191L47.8999 68.3536L50.1657 69.7165L50.3067 69.4819L48.041 68.1191ZM50.3158 68.7164C49.7751 66.5387 49.8313 64.0662 50.4081 61.7258L47.8409 61.0931C47.1763 63.7901 47.0914 66.7024 47.7497 69.3536L50.3158 68.7164ZM50.4128 61.7058C50.9618 59.3195 51.9556 57.042 53.2818 55.0333L51.0754 53.5765C49.5803 55.8409 48.458 58.4098 47.8361 61.113L50.4128 61.7058ZM53.314 54.9821C53.6143 54.4786 53.8969 54.1863 54.3743 53.5209L52.2259 51.9797C51.9556 52.3565 51.406 53.0195 51.0432 53.6278L53.314 54.9821ZM54.2733 53.645C54.4965 53.4023 54.7454 53.1041 54.9184 52.9064C55.1152 52.6815 55.2823 52.5042 55.448 52.3611L53.7196 50.3602C53.4128 50.6253 53.1496 50.9127 52.9285 51.1654C52.6835 51.4454 52.5269 51.638 52.3269 51.8555L54.2733 53.645ZM55.5343 52.2795C56.2982 51.4894 57.206 50.8575 58.2049 50.2835L56.8876 47.991C55.7704 48.6329 54.6328 49.408 53.6334 50.4418L55.5343 52.2795ZM58.1728 50.3014C60.2548 49.1808 62.4251 48.234 64.7071 47.1858L63.6034 44.7832C61.3853 45.8021 59.0979 46.8008 56.9197 47.9731L58.1728 50.3014ZM64.7032 47.1876C66.9418 46.168 69.2834 45.1128 71.5865 43.8415L70.3088 41.5267C68.1118 42.7394 65.8687 43.7513 63.6072 44.7814L64.7032 47.1876ZM71.6032 43.8322C73.942 42.4967 76.1764 40.8027 78.2358 38.7812L76.3837 36.8943C74.4791 38.7638 72.4251 40.3181 70.2921 41.5361L71.6032 43.8322ZM78.2451 38.7721C80.2641 36.751 82.2085 34.4188 83.7328 31.617L81.4103 30.3534C80.0428 32.8669 78.2771 34.9989 76.3745 36.9035L78.2451 38.7721ZM83.7089 31.6592C84.1316 30.9458 84.4817 30.1304 84.7753 29.5093L82.3851 28.379C82.0299 29.1302 81.7733 29.7391 81.4343 30.3112L83.7089 31.6592ZM84.8154 29.4155C85.0714 28.7445 85.4076 27.9344 85.629 27.0775L83.0691 26.416C82.8955 27.0878 82.6392 27.7021 82.3451 28.4728L84.8154 29.4155ZM85.6215 27.1052C86.0747 25.4964 86.3441 23.7247 86.2179 21.9376L83.5805 22.1239C83.68 23.5329 83.4698 24.9921 83.0765 26.3884L85.6215 27.1052ZM83.9097 22.9074L84.079 23.0985L86.058 21.3451L85.8887 21.1541L83.9097 22.9074ZM85.1246 20.901C84.7142 20.8836 84.2822 20.8661 83.8601 20.8488L83.7517 23.4906C84.176 23.508 84.6045 23.5253 85.0124 23.5426L85.1246 20.901ZM83.8607 20.8488C76.9301 20.5614 70.2035 20.3453 63.6913 20.0242L63.5611 22.665C70.0836 22.9866 76.8572 23.2047 83.7511 23.4905L83.8607 20.8488ZM63.6896 20.0241C57.173 19.7115 50.8804 19.4074 44.8851 19.1208L44.7588 21.7618C50.7542 22.0484 57.0448 22.3524 63.5629 22.6651L63.6896 20.0241ZM45.682 21.4453L45.8442 21.3064L44.1241 19.2983L43.9619 19.4373L45.682 21.4453ZM43.7107 19.9476C42.9952 22.5158 41.9397 24.8665 40.5694 26.7628L42.7124 28.3115C44.3044 26.1084 45.4778 23.4564 46.2577 20.6571L43.7107 19.9476ZM40.5593 26.7769C39.8845 27.737 39.1312 28.5999 38.3328 29.3573L40.1526 31.2754C41.0753 30.4001 41.9443 29.4044 42.7224 28.2974L40.5593 26.7769ZM38.3238 29.3659C37.5288 30.1346 36.6903 30.8036 35.8222 31.3743L37.2745 33.5837C38.2825 32.9211 39.2498 32.1484 40.1616 31.2669L38.3238 29.3659ZM35.8058 31.3852C34.0673 32.5655 32.2225 33.4133 30.3696 34.0628L31.2442 36.558C33.2566 35.8526 35.3193 34.9113 37.2909 33.5728L35.8058 31.3852ZM30.386 34.0572C28.5219 34.6832 26.6603 35.1043 24.7965 35.5129L25.3626 38.0956C27.223 37.6878 29.2125 37.2404 31.2278 36.5636L30.386 34.0572ZM24.7954 35.5131C21.1412 36.3172 17.3549 37.1195 14.1861 39.0751L15.5747 41.3252C18.2884 39.6504 21.5977 38.9241 25.3637 38.0954L24.7954 35.5131ZM14.2619 39.0318C13.3808 39.4982 12.5366 40.253 12.014 40.6501L13.6135 42.7554C14.4169 42.145 14.8705 41.7012 15.4989 41.3686L14.2619 39.0318ZM11.9277 40.7215C11.5782 41.0372 11.2307 41.4016 10.9705 41.661L12.8372 43.5336C13.1694 43.2024 13.4145 42.9415 13.6997 42.6839L11.9277 40.7215ZM10.9816 41.6501C10.6796 41.9441 10.3098 42.3082 9.98309 42.7552L12.1177 44.3154C12.2989 44.0675 12.5215 43.8411 12.8261 43.5445L10.9816 41.6501ZM10.0242 42.7019C9.89016 42.8669 9.75792 43.0297 9.62654 43.1915C9.49517 43.3532 9.36468 43.5139 9.23419 43.6746L11.2866 45.3414C11.4171 45.1807 11.5476 45.0201 11.679 44.8583C11.8103 44.6966 11.9426 44.5337 12.0766 44.3687L10.0242 42.7019ZM9.21263 43.7019C8.94255 44.0529 8.6164 44.5835 8.47258 44.7928L10.6517 46.2903C10.9734 45.8221 11.0704 45.6232 11.3082 45.3141L9.21263 43.7019ZM8.48785 44.7711C7.95029 45.5206 7.51983 46.3786 7.17351 46.9989L9.48208 48.2878C9.91163 47.5185 10.2147 46.9 10.6364 46.312L8.48785 44.7711ZM7.15682 47.0298C5.59255 50.0149 4.71633 53.0514 4.24655 55.7359L6.85099 56.1917C7.28403 53.7171 8.08652 50.952 9.49877 48.257L7.15682 47.0298ZM4.24582 55.7401C3.78142 58.445 3.74511 60.8207 3.84048 62.7178L6.48117 62.585C6.39316 60.8344 6.42739 58.659 6.85171 56.1875L4.24582 55.7401ZM3.84447 62.7736C3.92132 63.6016 3.97333 64.5423 4.13393 65.3234L6.72379 64.791C6.60226 64.1999 6.56961 63.5251 6.47718 62.5292L3.84447 62.7736ZM4.12659 65.2848C4.23026 65.878 4.33047 66.6106 4.50553 67.171L7.0293 66.3827C6.92224 66.0399 6.86728 65.6086 6.73113 64.8296L4.12659 65.2848ZM4.48633 67.1033C4.60044 67.5512 4.69369 67.9045 4.7563 68.1443L7.3146 67.4765C7.25025 67.23 7.1601 66.8885 7.0485 66.4505L4.48633 67.1033ZM4.77079 68.1956C4.7936 68.2705 4.80735 68.325 4.8144 68.3551C4.81793 68.3702 4.81976 68.379 4.8202 68.3812C4.82043 68.3823 4.8203 68.3817 4.81986 68.3794C4.81964 68.3782 4.81934 68.3766 4.81897 68.3746C4.81879 68.3735 4.81858 68.3724 4.81836 68.3712C4.81825 68.3705 4.81813 68.3699 4.81801 68.3692C4.81796 68.3689 4.81789 68.3685 4.81783 68.3682C4.8178 68.368 4.81777 68.3678 4.81774 68.3676C4.81772 68.3675 4.8177 68.3674 4.81769 68.3673C4.81767 68.3672 4.81764 68.3671 6.12009 68.1405C7.42253 67.9138 7.42251 67.9137 7.42248 67.9136C7.42247 67.9135 7.42245 67.9134 7.42243 67.9133C7.4224 67.9131 7.42237 67.9129 7.42233 67.9127C7.42227 67.9123 7.4222 67.9119 7.42213 67.9115C7.42199 67.9107 7.42184 67.9099 7.42169 67.9091C7.42138 67.9073 7.42105 67.9055 7.4207 67.9035C7.41999 67.8996 7.41917 67.8952 7.41825 67.8903C7.41641 67.8805 7.41413 67.8688 7.41137 67.8552C7.40587 67.8281 7.39844 67.7935 7.38874 67.7521C7.36935 67.6693 7.34078 67.5588 7.30011 67.4253L4.77079 68.1956Z" fill="#592F72" mask="url(#path-4-inside-1_2_195)"/>
<mask id="path-6-inside-2_2_195" fill="white">
<path d="M56.9151 21.0778C56.8869 21.0691 56.9715 20.739 57.0138 20.1311C57.0491 19.5318 57.0209 18.6286 56.6753 17.6298C56.3438 16.6483 55.6808 15.554 54.6439 14.946C53.6141 14.3381 52.2599 14.2078 51.0185 14.7897C49.77 15.3542 48.8672 16.6049 48.3946 17.899C47.9079 19.1931 47.8374 20.5306 47.9785 21.5902C48.1195 22.6585 48.4511 23.4662 48.712 23.9786C48.9801 24.4911 49.1776 24.7343 49.1564 24.7603C49.1423 24.7777 48.9095 24.5692 48.5992 24.0742C48.2888 23.5791 47.915 22.7627 47.7316 21.6423C47.5553 20.5393 47.5905 19.1149 48.0984 17.734C48.578 16.3617 49.5373 14.9981 50.8915 14.3902C52.2246 13.7735 53.6847 13.9212 54.785 14.5986C55.9065 15.2761 56.5906 16.4746 56.908 17.5255C57.2395 18.5938 57.2325 19.5405 57.1549 20.1571C57.1126 20.4698 57.0632 20.7043 57.0138 20.8606C56.9574 21.0083 56.9292 21.0865 56.9151 21.0778Z"/>
</mask>
<path d="M56.9151 21.0778C56.8869 21.0691 56.9715 20.739 57.0138 20.1311C57.0491 19.5318 57.0209 18.6286 56.6753 17.6298C56.3438 16.6483 55.6808 15.554 54.6439 14.946C53.6141 14.3381 52.2599 14.2078 51.0185 14.7897C49.77 15.3542 48.8672 16.6049 48.3946 17.899C47.9079 19.1931 47.8374 20.5306 47.9785 21.5902C48.1195 22.6585 48.4511 23.4662 48.712 23.9786C48.9801 24.4911 49.1776 24.7343 49.1564 24.7603C49.1423 24.7777 48.9095 24.5692 48.5992 24.0742C48.2888 23.5791 47.915 22.7627 47.7316 21.6423C47.5553 20.5393 47.5905 19.1149 48.0984 17.734C48.578 16.3617 49.5373 14.9981 50.8915 14.3902C52.2246 13.7735 53.6847 13.9212 54.785 14.5986C55.9065 15.2761 56.5906 16.4746 56.908 17.5255C57.2395 18.5938 57.2325 19.5405 57.1549 20.1571C57.1126 20.4698 57.0632 20.7043 57.0138 20.8606C56.9574 21.0083 56.9292 21.0865 56.9151 21.0778Z" fill="#592F72"/>
<path d="M56.9151 21.0778L57.6082 19.952L57.4649 19.8638L57.3041 19.8143L56.9151 21.0778ZM57.0138 20.1311L58.3327 20.2229L58.3332 20.2158L58.3336 20.2087L57.0138 20.1311ZM56.6753 17.6298L55.4228 18.0528L55.426 18.0621L56.6753 17.6298ZM54.6439 14.946L53.9718 16.0844L53.9752 16.0864L54.6439 14.946ZM51.0185 14.7897L51.5632 15.9943L51.5714 15.9905L51.5796 15.9867L51.0185 14.7897ZM48.3946 17.899L49.6321 18.3644L49.6364 18.3525L48.3946 17.899ZM47.9785 21.5902L49.2891 21.4171L49.2889 21.4158L47.9785 21.5902ZM48.712 23.9786L47.534 24.5786L47.5373 24.585L47.5406 24.5914L48.712 23.9786ZM49.1564 24.7603L48.1302 23.9269L49.1564 24.7603ZM47.7316 21.6423L46.4262 21.851L46.427 21.8559L47.7316 21.6423ZM48.0984 17.734L49.3392 18.1903L49.3428 18.1803L49.3464 18.1702L48.0984 17.734ZM50.8915 14.3902L51.4329 15.5962L51.4398 15.5932L51.4465 15.59L50.8915 14.3902ZM54.785 14.5986L54.0919 15.7244L54.1014 15.7302L54.785 14.5986ZM56.908 17.5255L55.6425 17.9078L55.6454 17.9173L56.908 17.5255ZM57.1549 20.1571L58.465 20.3345L58.4666 20.3222L57.1549 20.1571ZM57.0138 20.8606L58.2487 21.3326L58.2627 21.2961L58.2745 21.2588L57.0138 20.8606ZM57.3041 19.8143C57.627 19.9137 57.8449 20.1136 57.9745 20.2883C58.0949 20.4506 58.1506 20.6039 58.1766 20.6899C58.2265 20.8551 58.2301 20.9892 58.231 21.0233C58.2325 21.0756 58.2301 21.1145 58.2291 21.1287C58.2279 21.1458 58.2267 21.1567 58.2266 21.1577C58.2265 21.1583 58.2275 21.1496 58.2317 21.1207C58.2361 21.0895 58.2397 21.0652 58.2466 21.0171C58.2717 20.8427 58.3083 20.5726 58.3327 20.2229L55.695 20.0393C55.677 20.2975 55.6502 20.4964 55.6294 20.6412C55.6212 20.6983 55.6065 20.7961 55.5987 20.8657C55.5958 20.8927 55.585 20.9866 55.588 21.0958C55.5892 21.1409 55.5938 21.2835 55.6456 21.4548C55.6793 21.5663 55.8662 22.1381 56.5261 22.3413L57.3041 19.8143ZM58.3336 20.2087C58.3756 19.4941 58.3431 18.4069 57.9246 17.1975L55.426 18.0621C55.6987 18.8502 55.7226 19.5695 55.6941 20.0534L58.3336 20.2087ZM57.9278 17.2067C57.5359 16.0466 56.7185 14.6299 55.3126 13.8056L53.9752 16.0864C54.6431 16.478 55.1516 17.2501 55.4228 18.0528L57.9278 17.2067ZM55.316 13.8076C53.9274 12.9878 52.1122 12.817 50.4574 13.5927L51.5796 15.9867C52.4076 15.5986 53.3008 15.6883 53.9718 16.0844L55.316 13.8076ZM50.4738 13.5851C48.7926 14.3453 47.6992 15.9494 47.1528 17.4455L49.6364 18.3525C50.0352 17.2604 50.7474 16.3631 51.5632 15.9943L50.4738 13.5851ZM47.1572 17.4336C46.5832 18.96 46.5025 20.5211 46.668 21.7647L49.2889 21.4158C49.1724 20.5401 49.2327 19.4262 49.632 18.3644L47.1572 17.4336ZM46.6678 21.7633C46.8331 23.0145 47.2225 23.967 47.534 24.5786L49.8901 23.3787C49.6796 22.9654 49.406 22.3025 49.2891 21.4171L46.6678 21.7633ZM47.5406 24.5914C47.6974 24.8912 47.8341 25.1129 47.9222 25.2536C47.9456 25.2908 47.9591 25.3123 47.9731 25.3347C47.9869 25.357 47.989 25.3607 47.9862 25.3559C47.9844 25.3528 47.9774 25.3405 47.968 25.322C47.9598 25.3059 47.9407 25.2675 47.9204 25.2145C47.9047 25.1739 47.8601 25.0541 47.843 24.8906C47.8287 24.7539 47.8058 24.3264 48.1302 23.9269L50.1826 25.5937C50.5097 25.191 50.4877 24.7585 50.4727 24.6151C50.4548 24.445 50.4079 24.3168 50.3884 24.266C50.346 24.1558 50.296 24.0688 50.281 24.0426C50.2441 23.9781 50.1905 23.894 50.1631 23.8502C50.0907 23.7347 49.9947 23.5785 49.8835 23.3659L47.5406 24.5914ZM48.1302 23.9269C48.3975 23.5977 48.7486 23.4774 49.0025 23.448C49.2315 23.4215 49.4116 23.4617 49.4974 23.485C49.6702 23.5319 49.7899 23.6036 49.8225 23.6232C49.91 23.6759 49.9651 23.7243 49.9729 23.731C50.003 23.7571 50.0053 23.7632 49.9798 23.7343C49.9347 23.6833 49.8413 23.5666 49.7193 23.372L47.4791 24.7764C47.6674 25.0768 47.8455 25.3119 47.9979 25.4845C48.0712 25.5674 48.1538 25.6533 48.2412 25.7291C48.2776 25.7607 48.3556 25.8264 48.4598 25.889C48.5007 25.9136 48.6271 25.9885 48.805 26.0368C48.8555 26.0505 49.6322 26.2714 50.1826 25.5937L48.1302 23.9269ZM49.7193 23.372C49.4985 23.0199 49.1901 22.3687 49.0363 21.4288L46.427 21.8559C46.6399 23.1567 47.0791 24.1384 47.4791 24.7764L49.7193 23.372ZM49.037 21.4336C48.8899 20.5135 48.9225 19.3232 49.3392 18.1903L46.8576 17.2777C46.2586 18.9067 46.2206 20.5651 46.4262 21.851L49.037 21.4336ZM49.3464 18.1702C49.7538 17.0046 50.5218 16.0053 51.4329 15.5962L50.3501 13.1841C48.5528 13.991 47.4023 15.7188 46.8504 17.2978L49.3464 18.1702ZM51.4465 15.59C52.3646 15.1654 53.3567 15.2717 54.0919 15.7244L55.4781 13.4729C54.0126 12.5706 52.0846 12.3817 50.3365 13.1903L51.4465 15.59ZM54.1014 15.7302C54.8496 16.1822 55.3826 17.0472 55.6425 17.9078L58.1736 17.1433C57.7987 15.902 56.9633 14.37 55.4685 13.467L54.1014 15.7302ZM55.6454 17.9173C55.9104 18.7713 55.9022 19.5232 55.8432 19.9921L58.4666 20.3222C58.5628 19.5578 58.5687 18.4163 58.1707 17.1337L55.6454 17.9173ZM55.8448 19.9798C55.8074 20.2566 55.7704 20.4079 55.7532 20.4625L58.2745 21.2588C58.356 21.0007 58.4178 20.683 58.465 20.3345L55.8448 19.9798ZM55.7789 20.3887C55.7629 20.4308 55.7531 20.4565 55.7434 20.4816C55.7335 20.5073 55.7317 20.5113 55.7341 20.5057C55.7356 20.5022 55.7419 20.4875 55.7523 20.4665C55.7607 20.4495 55.7843 20.4024 55.8226 20.344C55.844 20.3114 55.9501 20.1459 56.1525 20.0013C56.2643 19.9215 56.4652 19.8047 56.7448 19.7678C57.0537 19.727 57.3575 19.7977 57.6082 19.952L56.222 22.2035C56.4744 22.3589 56.7802 22.4301 57.091 22.389C57.3726 22.3518 57.5757 22.2341 57.6896 22.1526C57.8965 22.0048 58.0076 21.8336 58.0345 21.7926C58.1087 21.6793 58.1536 21.5722 58.1631 21.55C58.193 21.4804 58.2291 21.3841 58.2487 21.3326L55.7789 20.3887Z" fill="#592F72" mask="url(#path-6-inside-2_2_195)"/>
<mask id="path-8-inside-3_2_195" fill="white">
<path d="M63.668 21.0778C63.6398 21.0691 63.7244 20.739 63.7668 20.1311C63.802 19.5318 63.7738 18.6286 63.4282 17.6298C63.0967 16.6483 62.4337 15.554 61.3968 14.946C60.367 14.3381 59.0128 14.2078 57.7714 14.7897C56.523 15.3542 55.6201 16.6049 55.1475 17.899C54.6609 19.1931 54.5903 20.5306 54.7314 21.5902C54.8725 22.6585 55.204 23.4662 55.465 23.9786C55.733 24.4911 55.9305 24.7343 55.9093 24.7603C55.8952 24.7777 55.6625 24.5692 55.3521 24.0742C55.0418 23.5791 54.6679 22.7627 54.4845 21.6423C54.3082 20.5393 54.3435 19.1149 54.8513 17.734C55.3309 16.3617 56.2902 14.9981 57.6444 14.3902C58.9775 13.7735 60.4376 13.9212 61.5379 14.5986C62.6594 15.2761 63.3436 16.4746 63.661 17.5255C63.9925 18.5938 63.9854 19.5405 63.9078 20.1571C63.8655 20.4698 63.8161 20.7043 63.7668 20.8606C63.7033 21.0083 63.6751 21.0865 63.668 21.0778Z"/>
</mask>
<path d="M63.668 21.0778C63.6398 21.0691 63.7244 20.739 63.7668 20.1311C63.802 19.5318 63.7738 18.6286 63.4282 17.6298C63.0967 16.6483 62.4337 15.554 61.3968 14.946C60.367 14.3381 59.0128 14.2078 57.7714 14.7897C56.523 15.3542 55.6201 16.6049 55.1475 17.899C54.6609 19.1931 54.5903 20.5306 54.7314 21.5902C54.8725 22.6585 55.204 23.4662 55.465 23.9786C55.733 24.4911 55.9305 24.7343 55.9093 24.7603C55.8952 24.7777 55.6625 24.5692 55.3521 24.0742C55.0418 23.5791 54.6679 22.7627 54.4845 21.6423C54.3082 20.5393 54.3435 19.1149 54.8513 17.734C55.3309 16.3617 56.2902 14.9981 57.6444 14.3902C58.9775 13.7735 60.4376 13.9212 61.5379 14.5986C62.6594 15.2761 63.3436 16.4746 63.661 17.5255C63.9925 18.5938 63.9854 19.5405 63.9078 20.1571C63.8655 20.4698 63.8161 20.7043 63.7668 20.8606C63.7033 21.0083 63.6751 21.0865 63.668 21.0778Z" fill="#592F72"/>
<path d="M63.668 21.0778L64.6942 20.2444L64.441 19.9325L64.057 19.8143L63.668 21.0778ZM63.7668 20.1311L65.0856 20.2229L65.0861 20.2158L65.0865 20.2087L63.7668 20.1311ZM63.4282 17.6298L62.1757 18.0528L62.1789 18.0621L63.4282 17.6298ZM61.3968 14.946L60.7247 16.0844L60.7281 16.0864L61.3968 14.946ZM57.7714 14.7897L58.3161 15.9943L58.3243 15.9905L58.3325 15.9867L57.7714 14.7897ZM55.1475 17.899L56.385 18.3644L56.3893 18.3525L55.1475 17.899ZM54.7314 21.5902L56.042 21.4171L56.0419 21.4158L54.7314 21.5902ZM55.465 23.9786L54.2869 24.5786L54.2902 24.585L54.2935 24.5914L55.465 23.9786ZM55.9093 24.7603L54.8831 23.9269L55.9093 24.7603ZM54.4845 21.6423L53.1791 21.851L53.1799 21.8559L54.4845 21.6423ZM54.8513 17.734L56.0921 18.1903L56.0958 18.1803L56.0993 18.1702L54.8513 17.734ZM57.6444 14.3902L58.1859 15.5962L58.1927 15.5932L58.1995 15.59L57.6444 14.3902ZM61.5379 14.5986L60.8448 15.7244L60.8544 15.7302L61.5379 14.5986ZM63.661 17.5255L62.3954 17.9078L62.3984 17.9173L63.661 17.5255ZM63.9078 20.1571L65.218 20.3345L65.2195 20.3222L63.9078 20.1571ZM63.7668 20.8606L64.9813 21.3828L65.0075 21.3219L65.0274 21.2588L63.7668 20.8606ZM64.057 19.8143C64.3799 19.9137 64.5978 20.1136 64.7274 20.2883C64.8478 20.4506 64.9035 20.6039 64.9295 20.6899C64.9794 20.8551 64.983 20.9892 64.9839 21.0233C64.9854 21.0756 64.983 21.1145 64.982 21.1287C64.9809 21.1458 64.9796 21.1567 64.9795 21.1577C64.9795 21.1583 64.9805 21.1496 64.9846 21.1207C64.989 21.0895 64.9926 21.0652 64.9995 21.0171C65.0246 20.8427 65.0612 20.5726 65.0856 20.2229L62.4479 20.0393C62.43 20.2975 62.4032 20.4964 62.3824 20.6412C62.3742 20.6983 62.3594 20.7961 62.3517 20.8657C62.3487 20.8927 62.3379 20.9866 62.3409 21.0958C62.3422 21.1409 62.3468 21.2835 62.3985 21.4548C62.4322 21.5663 62.6191 22.1381 63.2791 22.3413L64.057 19.8143ZM65.0865 20.2087C65.1286 19.4941 65.096 18.4069 64.6775 17.1975L62.1789 18.0621C62.4516 18.8502 62.4755 19.5695 62.447 20.0534L65.0865 20.2087ZM64.6807 17.2067C64.2888 16.0466 63.4714 14.6299 62.0655 13.8056L60.7281 16.0864C61.396 16.478 61.9046 17.2501 62.1757 18.0528L64.6807 17.2067ZM62.0689 13.8076C60.6803 12.9878 58.8651 12.817 57.2103 13.5927L58.3325 15.9867C59.1605 15.5986 60.0538 15.6883 60.7247 16.0844L62.0689 13.8076ZM57.2267 13.5851C55.5456 14.3453 54.4521 15.9494 53.9057 17.4455L56.3893 18.3525C56.7882 17.2604 57.5004 16.3631 58.3161 15.9943L57.2267 13.5851ZM53.9102 17.4336C53.3361 18.96 53.2554 20.5211 53.421 21.7647L56.0419 21.4158C55.9253 20.5401 55.9856 19.4262 56.3849 18.3644L53.9102 17.4336ZM53.4208 21.7633C53.586 23.0145 53.9755 23.967 54.2869 24.5786L56.643 23.3787C56.4325 22.9654 56.1589 22.3025 56.042 21.4171L53.4208 21.7633ZM54.2935 24.5914C54.4503 24.8912 54.587 25.1128 54.6752 25.2536C54.6985 25.2908 54.7121 25.3123 54.726 25.3347C54.7398 25.3569 54.7419 25.3607 54.7391 25.3559C54.7373 25.3528 54.7303 25.3405 54.7209 25.322C54.7127 25.3059 54.6936 25.2675 54.6733 25.2145C54.6576 25.1739 54.6131 25.054 54.5959 24.8906C54.5816 24.7539 54.5587 24.3264 54.8831 23.9269L56.9355 25.5937C57.2626 25.191 57.2406 24.7585 57.2256 24.6152C57.2078 24.445 57.1608 24.3168 57.1413 24.266C57.099 24.1559 57.0489 24.0688 57.0339 24.0426C56.997 23.9782 56.9434 23.894 56.916 23.8502C56.8437 23.7347 56.7476 23.5785 56.6364 23.3659L54.2935 24.5914ZM54.8831 23.9269C55.1504 23.5977 55.5015 23.4774 55.7554 23.448C55.9844 23.4215 56.1645 23.4617 56.2504 23.485C56.4232 23.5319 56.5428 23.6036 56.5754 23.6232C56.6629 23.6759 56.718 23.7243 56.7258 23.731C56.7559 23.7571 56.7582 23.7632 56.7327 23.7343C56.6877 23.6833 56.5942 23.5666 56.4722 23.372L54.232 24.7764C54.4203 25.0768 54.5984 25.3119 54.7508 25.4845C54.8241 25.5674 54.9067 25.6533 54.9941 25.7291C55.0305 25.7606 55.1085 25.8264 55.2127 25.889C55.2536 25.9136 55.38 25.9885 55.5579 26.0368C55.6084 26.0505 56.3852 26.2714 56.9355 25.5937L54.8831 23.9269ZM56.4722 23.372C56.2515 23.0199 55.943 22.3687 55.7892 21.4288L53.1799 21.8559C53.3928 23.1567 53.832 24.1384 54.232 24.7764L56.4722 23.372ZM55.79 21.4336C55.6429 20.5135 55.6754 19.3232 56.0921 18.1903L53.6105 17.2777C53.0115 18.9067 52.9735 20.5651 53.1791 21.851L55.79 21.4336ZM56.0993 18.1702C56.5067 17.0046 57.2747 16.0053 58.1859 15.5962L57.103 13.1841C55.3057 13.991 54.1552 15.7188 53.6033 17.2978L56.0993 18.1702ZM58.1995 15.59C59.1176 15.1654 60.1096 15.2717 60.8448 15.7244L62.231 13.4729C60.7656 12.5706 58.8375 12.3817 57.0894 13.1903L58.1995 15.59ZM60.8544 15.7302C61.6026 16.1822 62.1355 17.0472 62.3954 17.9078L64.9265 17.1433C64.5516 15.902 63.7162 14.37 62.2215 13.467L60.8544 15.7302ZM62.3984 17.9173C62.6634 18.7713 62.6552 19.5232 62.5962 19.9921L65.2195 20.3222C65.3157 19.5578 65.3216 18.4163 64.9236 17.1337L62.3984 17.9173ZM62.5978 19.9798C62.5603 20.2565 62.5234 20.4079 62.5061 20.4625L65.0274 21.2588C65.1089 21.0007 65.1707 20.6831 65.2179 20.3345L62.5978 19.9798ZM62.5523 20.3385C62.5337 20.3816 62.518 20.419 62.5058 20.4483C62.4919 20.4815 62.4862 20.4953 62.4817 20.5057C62.4714 20.5296 62.4886 20.4867 62.5192 20.431C62.5208 20.4281 62.5925 20.2887 62.7298 20.1493C62.7824 20.0959 63.007 19.8689 63.3909 19.7861C63.6149 19.7378 63.8815 19.7422 64.1493 19.8468C64.408 19.9477 64.5846 20.1093 64.6942 20.2444L62.6418 21.9112C62.7519 22.0468 62.9289 22.2087 63.1881 22.3099C63.4565 22.4146 63.7237 22.4191 63.9483 22.3707C64.3334 22.2876 64.5594 22.0596 64.6136 22.0047C64.754 21.8621 64.8295 21.7169 64.8358 21.7055C64.8757 21.633 64.9052 21.563 64.9108 21.55C64.9222 21.5234 64.9358 21.4906 64.9453 21.4678C64.9564 21.4413 64.9681 21.4135 64.9813 21.3828L62.5523 20.3385Z" fill="#592F72" mask="url(#path-8-inside-3_2_195)"/>
<mask id="path-10-inside-4_2_195" fill="white">
<path d="M68.7871 21.5146C68.7518 21.5059 68.8294 21.1672 68.8435 20.5592C68.8506 19.9512 68.78 19.0567 68.3921 18.0839C68.0183 17.1199 67.3059 16.0776 66.2338 15.5478C65.1828 15.0093 63.8145 14.9746 62.6083 15.6434C61.3881 16.2948 60.5417 17.6062 60.1326 18.9264C59.7024 20.2552 59.7024 21.5927 59.8857 22.6436C60.0762 23.7032 60.443 24.4849 60.7322 24.9713C61.0213 25.4663 61.2329 25.7008 61.2118 25.7269C61.1977 25.7443 60.9579 25.5532 60.6263 25.0755C60.2948 24.5978 59.8787 23.8161 59.6459 22.7131C59.4132 21.6188 59.392 20.2031 59.8293 18.7874C60.2455 17.3804 61.1412 15.956 62.4602 15.2525C63.7651 14.5403 65.2251 14.5838 66.3537 15.1917C67.5034 15.791 68.244 16.9375 68.6108 17.971C68.9917 19.0132 69.0269 19.9599 68.9775 20.5853C68.9493 20.8979 68.907 21.1411 68.8647 21.2974C68.8224 21.4364 68.8012 21.5146 68.7871 21.5146Z"/>
</mask>
<path d="M68.7871 21.5146C68.7518 21.5059 68.8294 21.1672 68.8435 20.5592C68.8506 19.9512 68.78 19.0567 68.3921 18.0839C68.0183 17.1199 67.3059 16.0776 66.2338 15.5478C65.1828 15.0093 63.8145 14.9746 62.6083 15.6434C61.3881 16.2948 60.5417 17.6062 60.1326 18.9264C59.7024 20.2552 59.7024 21.5927 59.8857 22.6436C60.0762 23.7032 60.443 24.4849 60.7322 24.9713C61.0213 25.4663 61.2329 25.7008 61.2118 25.7269C61.1977 25.7443 60.9579 25.5532 60.6263 25.0755C60.2948 24.5978 59.8787 23.8161 59.6459 22.7131C59.4132 21.6188 59.392 20.2031 59.8293 18.7874C60.2455 17.3804 61.1412 15.956 62.4602 15.2525C63.7651 14.5403 65.2251 14.5838 66.3537 15.1917C67.5034 15.791 68.244 16.9375 68.6108 17.971C68.9917 19.0132 69.0269 19.9599 68.9775 20.5853C68.9493 20.8979 68.907 21.1411 68.8647 21.2974C68.8224 21.4364 68.8012 21.5146 68.7871 21.5146Z" fill="#592F72"/>
<path d="M68.7871 21.5146L68.471 22.7982L68.6267 22.8366L68.7871 22.8366L68.7871 21.5146ZM68.8435 20.5592L70.1652 20.5899L70.1654 20.5822L70.1655 20.5745L68.8435 20.5592ZM68.3921 18.0839L67.1595 18.5619L67.1641 18.5736L68.3921 18.0839ZM66.2338 15.5478L65.6309 16.7244L65.6395 16.7288L65.6481 16.733L66.2338 15.5478ZM62.6083 15.6434L63.2309 16.8096L63.2402 16.8047L63.2494 16.7996L62.6083 15.6434ZM60.1326 18.9264L61.3903 19.3336L61.3929 19.3257L61.3954 19.3177L60.1326 18.9264ZM59.8857 22.6436L58.5834 22.8709L58.5846 22.8775L59.8857 22.6436ZM60.7322 24.9713L61.8737 24.3044L61.8685 24.2956L60.7322 24.9713ZM61.2118 25.7269L62.238 26.5603L61.2118 25.7269ZM59.6459 22.7131L60.9395 22.4402L60.939 22.4381L59.6459 22.7131ZM59.8293 18.7874L61.0924 19.1776L61.0948 19.17L61.097 19.1624L59.8293 18.7874ZM62.4602 15.2525L63.0824 16.419L63.0936 16.413L62.4602 15.2525ZM66.3537 15.1917L65.7267 16.3556L65.7346 16.3599L65.7426 16.364L66.3537 15.1917ZM68.6108 17.971L67.3648 18.4132L67.3691 18.4248L68.6108 17.971ZM68.9775 20.5853L70.2942 20.7041L70.2949 20.6967L70.2954 20.6893L68.9775 20.5853ZM68.8647 21.2974L70.1294 21.6826L70.1354 21.6628L70.1408 21.6429L68.8647 21.2974ZM69.1032 20.2309C69.6728 20.3712 69.9165 20.8052 69.992 20.977C70.0706 21.1559 70.0881 21.3074 70.0931 21.3531C70.1 21.4164 70.1001 21.4646 70.1 21.4839C70.0998 21.5067 70.0989 21.5221 70.0987 21.5259C70.0984 21.5319 70.0985 21.5272 70.1013 21.4993C70.104 21.472 70.107 21.4436 70.1118 21.3978C70.1299 21.2226 70.1569 20.9456 70.1652 20.5899L67.5219 20.5285C67.516 20.7807 67.4972 20.9771 67.4818 21.1254C67.4759 21.1824 67.4642 21.2883 67.4594 21.3684C67.4576 21.3989 67.4505 21.5096 67.4646 21.6388C67.4707 21.6958 67.4902 21.856 67.5715 22.0411C67.6498 22.2192 67.897 22.6569 68.471 22.7982L69.1032 20.2309ZM70.1655 20.5745C70.1738 19.8522 70.0906 18.7742 69.6201 17.5942L67.1641 18.5736C67.4694 19.3391 67.5273 20.0503 67.5216 20.5439L70.1655 20.5745ZM69.6247 17.606C69.1792 16.4572 68.2887 15.0887 66.8195 14.3626L65.6481 16.733C66.3231 17.0666 66.8573 17.7826 67.1595 18.5619L69.6247 17.606ZM66.8366 14.3713C65.401 13.6357 63.5661 13.6007 61.9673 14.4872L63.2494 16.7996C64.0629 16.3485 64.9646 16.383 65.6309 16.7244L66.8366 14.3713ZM61.9858 14.4771C60.3587 15.3457 59.3428 17.0088 58.8698 18.5351L61.3954 19.3177C61.7406 18.2037 62.4176 17.2438 63.2309 16.8096L61.9858 14.4771ZM58.8749 18.5191C58.3669 20.088 58.37 21.6479 58.5834 22.8709L61.1881 22.4164C61.0347 21.5376 61.0378 20.4224 61.3903 19.3336L58.8749 18.5191ZM58.5846 22.8775C58.8076 24.1182 59.2399 25.0482 59.5958 25.6469L61.8685 24.2956C61.6461 23.9216 61.3448 23.2883 61.1869 22.4098L58.5846 22.8775ZM59.5906 25.6381C59.7611 25.9298 59.9091 26.1452 60.0044 26.2817C60.0298 26.3182 60.044 26.3384 60.0593 26.3603C60.0743 26.382 60.0764 26.3854 60.0732 26.3804C60.0711 26.3772 60.0633 26.3649 60.0526 26.3463C60.0434 26.3302 60.0218 26.2915 59.9982 26.2378C59.9804 26.1971 59.9277 26.0737 59.9038 25.9029C59.8831 25.7553 59.8481 25.309 60.1856 24.8935L62.238 26.5603C62.5781 26.1415 62.5439 25.6903 62.5223 25.5361C62.4974 25.3589 62.4421 25.2272 62.42 25.1767C62.3715 25.066 62.3158 24.9795 62.2997 24.9545C62.2596 24.8918 62.2013 24.8098 62.1723 24.7682C62.0948 24.6572 61.9924 24.5078 61.8737 24.3045L59.5906 25.6381ZM60.1856 24.8935C60.4438 24.5755 60.7775 24.4564 61.0112 24.4209C61.2268 24.3881 61.3991 24.4169 61.4845 24.4352C61.6553 24.472 61.776 24.5347 61.8111 24.5532C61.9022 24.601 61.9605 24.6467 61.9699 24.654C62.0034 24.6799 62.0078 24.6876 61.9825 24.6617C61.9381 24.6164 61.8418 24.5081 61.7124 24.3218L59.5403 25.8292C59.7424 26.1206 59.9318 26.3467 60.0937 26.5119C60.1715 26.5914 60.2593 26.6735 60.3521 26.7453C60.3911 26.7755 60.4731 26.8369 60.5812 26.8938C60.6249 26.9167 60.7525 26.9823 60.9285 27.0201C60.9826 27.0318 61.7175 27.2012 62.238 26.5603L60.1856 24.8935ZM61.7124 24.3218C61.4702 23.9727 61.132 23.3524 60.9395 22.4402L58.3524 22.9861C58.6254 24.2799 59.1195 25.2229 59.5403 25.8292L61.7124 24.3218ZM60.939 22.4381C60.7475 21.5376 60.7294 20.3529 61.0924 19.1776L58.5662 18.3972C58.0546 20.0533 58.0789 21.7 58.3528 22.9881L60.939 22.4381ZM61.097 19.1624C61.4513 17.9646 62.1784 16.9011 63.0824 16.419L61.8381 14.0861C60.1041 15.0109 59.0396 16.7962 58.5616 18.4125L61.097 19.1624ZM63.0936 16.413C64.0069 15.9145 64.9927 15.9602 65.7267 16.3556L66.9807 14.0279C65.4576 13.2073 63.5233 13.1662 61.8269 14.0921L63.0936 16.413ZM65.7426 16.364C66.4981 16.7578 67.0664 17.572 67.3649 18.4131L69.8567 17.5289C69.4216 16.3029 68.5087 14.8242 66.9647 14.0194L65.7426 16.364ZM67.3691 18.4248C67.6711 19.2512 67.6976 20.0009 67.6596 20.4812L70.2954 20.6893C70.3563 19.919 70.3122 18.7752 69.8525 17.5172L67.3691 18.4248ZM67.6609 20.4664C67.6368 20.7337 67.6041 20.8949 67.5886 20.952L70.1408 21.6429C70.21 21.3872 70.2619 21.0622 70.2942 20.7041L67.6609 20.4664ZM67.6 20.9123C67.5908 20.9425 67.5762 20.991 67.5717 21.006C67.5637 21.0324 67.5613 21.0396 67.5615 21.0388C67.5619 21.0377 67.5653 21.0277 67.5711 21.0123C67.5761 20.9993 67.5893 20.9652 67.6108 20.9211C67.6257 20.8905 67.6786 20.7826 67.778 20.6636C67.8296 20.6018 67.9258 20.4978 68.0733 20.4027C68.2265 20.3038 68.4713 20.1925 68.7871 20.1925L68.7871 22.8366C69.4052 22.8366 69.7469 22.4308 69.8075 22.3582C69.9109 22.2344 69.9681 22.1194 69.9877 22.0793C70.0329 21.9864 70.0609 21.9019 70.0691 21.8774C70.089 21.8179 70.1161 21.726 70.1294 21.6826L67.6 20.9123Z" fill="#592F72" mask="url(#path-10-inside-4_2_195)"/>
<mask id="path-12-inside-5_2_195" fill="white">
<path d="M74.2842 21.8929C74.249 21.8842 74.3124 21.5455 74.2983 20.9375C74.2842 20.3296 74.1714 19.4437 73.7411 18.497C73.325 17.559 72.5703 16.5602 71.477 16.0999C70.4049 15.6309 69.0436 15.6917 67.8586 16.4299C66.6666 17.1595 65.8837 18.5317 65.531 19.8693C65.1572 21.2241 65.2136 22.5617 65.4464 23.5952C65.6791 24.6374 66.0812 25.393 66.3915 25.8707C66.7019 26.3484 66.9205 26.5655 66.8994 26.5916C66.8923 26.609 66.6384 26.4353 66.2857 25.9836C65.933 25.532 65.4887 24.7764 65.2065 23.6907C64.9315 22.6138 64.8468 21.1981 65.2206 19.7563C65.5733 18.332 66.4056 16.8468 67.6964 16.0564C68.973 15.2574 70.426 15.214 71.5828 15.7351C72.7607 16.2562 73.5436 17.3592 73.9527 18.358C74.3759 19.3742 74.4535 20.3209 74.4324 20.9462C74.4183 21.2589 74.39 21.5021 74.3548 21.6584C74.3195 21.8147 74.2983 21.9016 74.2842 21.8929Z"/>
</mask>
<path d="M74.2842 21.8929C74.249 21.8842 74.3124 21.5455 74.2983 20.9375C74.2842 20.3296 74.1714 19.4437 73.7411 18.497C73.325 17.559 72.5703 16.5602 71.477 16.0999C70.4049 15.6309 69.0436 15.6917 67.8586 16.4299C66.6666 17.1595 65.8837 18.5317 65.531 19.8693C65.1572 21.2241 65.2136 22.5617 65.4464 23.5952C65.6791 24.6374 66.0812 25.393 66.3915 25.8707C66.7019 26.3484 66.9205 26.5655 66.8994 26.5916C66.8923 26.609 66.6384 26.4353 66.2857 25.9836C65.933 25.532 65.4887 24.7764 65.2065 23.6907C64.9315 22.6138 64.8468 21.1981 65.2206 19.7563C65.5733 18.332 66.4056 16.8468 67.6964 16.0564C68.973 15.2574 70.426 15.214 71.5828 15.7351C72.7607 16.2562 73.5436 17.3592 73.9527 18.358C74.3759 19.3742 74.4535 20.3209 74.4324 20.9462C74.4183 21.2589 74.39 21.5021 74.3548 21.6584C74.3195 21.8147 74.2983 21.9016 74.2842 21.8929Z" fill="#592F72"/>
<path d="M74.2842 21.8929L74.9773 20.7671L74.8012 20.6587L74.6004 20.6092L74.2842 21.8929ZM73.7411 18.497L72.5326 19.0331L72.5376 19.044L73.7411 18.497ZM71.477 16.0999L70.9472 17.3111L70.9555 17.3147L70.964 17.3183L71.477 16.0999ZM67.8586 16.4299L68.5488 17.5575L68.5577 17.552L67.8586 16.4299ZM65.531 19.8693L66.8054 20.2209L66.8074 20.2136L66.8093 20.2063L65.531 19.8693ZM65.4464 23.5952L66.7366 23.3071L66.7361 23.3048L65.4464 23.5952ZM66.8994 26.5916L65.8731 25.7582L65.7487 25.9114L65.6745 26.0942L66.8994 26.5916ZM65.2065 23.6907L63.9256 24.0179L63.927 24.0232L65.2065 23.6907ZM65.2206 19.7563L66.5003 20.0881L66.5022 20.0811L66.5039 20.0741L65.2206 19.7563ZM67.6964 16.0564L68.3868 17.1839L68.3978 17.1771L67.6964 16.0564ZM71.5828 15.7351L71.0398 16.9405L71.0479 16.9441L71.5828 15.7351ZM73.9527 18.358L72.7293 18.8591L72.7323 18.8663L73.9527 18.358ZM74.4324 20.9462L75.753 21.0058L75.7534 20.9984L75.7536 20.9909L74.4324 20.9462ZM74.6004 20.6092C75.1538 20.7455 75.3972 21.1609 75.4728 21.3201C75.5538 21.4905 75.5764 21.6359 75.5831 21.681C75.5922 21.7426 75.5942 21.7896 75.5949 21.8086C75.5956 21.8308 75.5954 21.8459 75.5953 21.8495C75.5952 21.855 75.5952 21.85 75.5968 21.8217C75.5984 21.7934 75.6002 21.766 75.603 21.7191C75.6136 21.5422 75.6283 21.264 75.62 20.9069L72.9767 20.9682C72.9825 21.2191 72.9725 21.4142 72.9637 21.5608C72.9604 21.6166 72.9532 21.7227 72.9518 21.8014C72.9512 21.8321 72.9488 21.9411 72.9675 22.0675C72.9758 22.124 73.0007 22.2781 73.0846 22.4547C73.1632 22.6202 73.4103 23.0392 73.9681 23.1765L74.6004 20.6092ZM75.62 20.9069C75.6029 20.1705 75.4669 19.0991 74.9447 17.95L72.5376 19.044C72.8758 19.7883 72.9656 20.4886 72.9767 20.9682L75.62 20.9069ZM74.9495 17.9609C74.4538 16.8436 73.5024 15.5182 71.99 14.8815L70.964 17.3183C71.6381 17.6021 72.1961 18.2744 72.5327 19.0331L74.9495 17.9609ZM72.0068 14.8887C70.5247 14.2403 68.7043 14.3454 67.1596 15.3079L68.5577 17.552C69.3828 17.0379 70.2851 17.0214 70.9472 17.3111L72.0068 14.8887ZM67.1685 15.3023C65.5881 16.2696 64.6578 17.9959 64.2527 19.5322L66.8093 20.2063C67.1096 19.0676 67.7451 18.0493 68.5487 17.5575L67.1685 15.3023ZM64.2566 19.5176C63.8165 21.1129 63.8837 22.6737 64.1567 23.8857L66.7361 23.3048C66.5435 22.4497 66.4979 21.3354 66.8054 20.2209L64.2566 19.5176ZM64.1561 23.8834C64.4307 25.1127 64.9077 26.0134 65.2829 26.591L67.5001 25.1505C67.2546 24.7727 66.9275 24.1621 66.7366 23.3071L64.1561 23.8834ZM65.2829 26.591C65.4665 26.8736 65.6237 27.0798 65.7246 27.21C65.7516 27.245 65.7662 27.2636 65.7822 27.2844C65.7979 27.3048 65.7993 27.307 65.7949 27.3009C65.7923 27.2972 65.7831 27.2842 65.7708 27.2648C65.7601 27.2479 65.7351 27.2077 65.7078 27.1515C65.6871 27.1091 65.6257 26.9797 65.596 26.7985C65.5682 26.6294 65.5326 26.1775 65.8731 25.7582L67.9256 27.425C68.2687 27.0025 68.2339 26.5457 68.2051 26.3704C68.1744 26.1829 68.1101 26.0457 68.0849 25.9939C68.0295 25.8802 67.9671 25.7931 67.9502 25.7693C67.907 25.7086 67.8444 25.6291 67.8149 25.591C67.7342 25.4867 67.6268 25.3455 67.5001 25.1505L65.2829 26.591ZM65.6745 26.0942C65.8718 25.6082 66.2818 25.3807 66.5904 25.3069C66.8475 25.2454 67.0555 25.2779 67.1338 25.2923C67.3057 25.3238 67.4284 25.3832 67.4554 25.3961C67.5389 25.4361 67.593 25.4739 67.6005 25.4791C67.6306 25.4998 67.6328 25.5046 67.607 25.4813C67.561 25.4398 67.4612 25.341 67.3277 25.17L65.2437 26.7973C65.4629 27.0779 65.6664 27.2917 65.8372 27.4457C65.9199 27.5201 66.0089 27.5932 66.0996 27.6558C66.1375 27.6819 66.2153 27.734 66.3155 27.7818C66.3508 27.7987 66.4799 27.8605 66.6565 27.8929C66.7372 27.9077 66.947 27.9402 67.2056 27.8784C67.5155 27.8042 67.9264 27.576 68.1242 27.089L65.6745 26.0942ZM67.3277 25.17C67.0808 24.8539 66.7206 24.2606 66.4861 23.3582L63.927 24.0232C64.2568 25.2922 64.7853 26.2102 65.2437 26.7973L67.3277 25.17ZM66.4874 23.3636C66.2606 22.4756 66.1892 21.2882 66.5003 20.0881L63.941 19.4245C63.5045 21.108 63.6023 22.7519 63.9257 24.0179L66.4874 23.3636ZM66.5039 20.0741C66.8047 18.8592 67.4884 17.734 68.3867 17.1839L67.006 14.929C65.3229 15.9596 64.3419 17.8047 63.9374 19.4386L66.5039 20.0741ZM68.3978 17.1771C69.3002 16.6122 70.2863 16.601 71.0398 16.9404L72.1258 14.5297C70.5657 13.8269 68.6459 13.9026 66.995 14.9358L68.3978 17.1771ZM71.0479 16.9441C71.8036 17.2784 72.3956 18.0442 72.7294 18.8591L75.1761 17.857C74.6917 16.6742 73.7178 15.234 72.1176 14.5261L71.0479 16.9441ZM72.7323 18.8663C73.0669 19.6697 73.1274 20.4198 73.1111 20.9015L75.7536 20.9909C75.7796 20.2219 75.6849 19.0787 75.1731 17.8498L72.7323 18.8663ZM73.1117 20.8866C73.1057 21.0198 73.097 21.1296 73.0875 21.2154C73.0776 21.3047 73.0685 21.3527 73.0652 21.3675L75.6444 21.9493C75.7046 21.6822 75.7375 21.35 75.753 21.0058L73.1117 20.8866ZM73.0652 21.3675C73.0453 21.4554 73.0396 21.4773 73.0403 21.4747C73.0415 21.4706 73.0458 21.4556 73.0533 21.4339C73.0593 21.4164 73.0762 21.3683 73.1057 21.3073C73.1194 21.2787 73.2045 21.0949 73.3919 20.9215C73.4945 20.8265 73.7017 20.6655 74.0152 20.5996C74.3705 20.525 74.7124 20.604 74.9773 20.7671L73.5911 23.0186C73.8578 23.1828 74.2016 23.2622 74.5587 23.1872C74.8741 23.1209 75.0832 22.9588 75.1878 22.862C75.3792 22.6849 75.4685 22.4945 75.4868 22.4565C75.5446 22.3369 75.5752 22.2272 75.5828 22.2003C75.6065 22.1174 75.6289 22.0177 75.6444 21.9493L73.0652 21.3675Z" fill="#592F72" mask="url(#path-12-inside-5_2_195)"/>
<mask id="path-14-inside-6_2_195" fill="white">
<path d="M79.7824 21.7309C79.7471 21.7223 79.8035 21.3835 79.7753 20.7756C79.7471 20.1763 79.6131 19.2817 79.1617 18.3524C78.7244 17.4318 77.9485 16.459 76.8482 16.0334C75.7619 15.5992 74.4006 15.7034 73.2368 16.4851C72.0589 17.2581 71.3113 18.6477 70.9868 20.0026C70.6482 21.3662 70.7329 22.7037 70.9868 23.7286C71.2478 24.7621 71.6639 25.509 71.9813 25.9693C72.3058 26.4383 72.5244 26.6468 72.5103 26.6728C72.5033 26.6902 72.2494 26.5252 71.8826 26.0822C71.5229 25.6393 71.0573 24.901 70.754 23.8241C70.4508 22.7558 70.3379 21.3488 70.6765 19.8897C71.0009 18.4479 71.7979 16.9367 73.0676 16.1029C74.323 15.2605 75.7831 15.1649 76.9469 15.6513C78.1319 16.1377 78.943 17.2059 79.3733 18.1961C79.8176 19.1949 79.9234 20.1416 79.9093 20.7669C79.9023 21.0796 79.8811 21.3227 79.8458 21.4878C79.8176 21.6528 79.7965 21.7309 79.7824 21.7309Z"/>
</mask>
<path d="M79.7824 21.7309C79.7471 21.7223 79.8035 21.3835 79.7753 20.7756C79.7471 20.1763 79.6131 19.2817 79.1617 18.3524C78.7244 17.4318 77.9485 16.459 76.8482 16.0334C75.7619 15.5992 74.4006 15.7034 73.2368 16.4851C72.0589 17.2581 71.3113 18.6477 70.9868 20.0026C70.6482 21.3662 70.7329 22.7037 70.9868 23.7286C71.2478 24.7621 71.6639 25.509 71.9813 25.9693C72.3058 26.4383 72.5244 26.6468 72.5103 26.6728C72.5033 26.6902 72.2494 26.5252 71.8826 26.0822C71.5229 25.6393 71.0573 24.901 70.754 23.8241C70.4508 22.7558 70.3379 21.3488 70.6765 19.8897C71.0009 18.4479 71.7979 16.9367 73.0676 16.1029C74.323 15.2605 75.7831 15.1649 76.9469 15.6513C78.1319 16.1377 78.943 17.2059 79.3733 18.1961C79.8176 19.1949 79.9234 20.1416 79.9093 20.7669C79.9023 21.0796 79.8811 21.3227 79.8458 21.4878C79.8176 21.6528 79.7965 21.7309 79.7824 21.7309Z" fill="#592F72"/>
<path d="M79.7824 21.7309L79.4662 23.0146L79.622 23.0529L79.7824 23.0529L79.7824 21.7309ZM79.7753 20.7756L81.0959 20.7143L81.0959 20.7134L79.7753 20.7756ZM79.1617 18.3524L77.9675 18.9197L77.9725 18.93L79.1617 18.3524ZM76.8482 16.0334L76.3574 17.261L76.3643 17.2638L76.3713 17.2664L76.8482 16.0334ZM73.2368 16.4851L73.9621 17.5903L73.9681 17.5865L73.9739 17.5825L73.2368 16.4851ZM70.9868 20.0026L72.2699 20.3212L72.2725 20.3105L70.9868 20.0026ZM70.9868 23.7286L69.7036 24.0465L69.705 24.0522L70.9868 23.7286ZM71.9813 25.9693L70.893 26.7198L70.8941 26.7214L71.9813 25.9693ZM72.5103 26.6728L71.3478 26.0434L71.313 26.1077L71.2855 26.1754L72.5103 26.6728ZM71.8826 26.0822L70.8563 26.9157L70.8643 26.9254L71.8826 26.0822ZM70.754 23.8241L72.0266 23.4657L72.0258 23.463L70.754 23.8241ZM70.6765 19.8897L71.9643 20.1885L71.9662 20.1799L70.6765 19.8897ZM73.0676 16.1029L73.7933 17.208L73.8042 17.2007L73.0676 16.1029ZM76.9469 15.6513L76.4371 16.8711L76.4449 16.8743L76.9469 15.6513ZM79.3733 18.1961L78.1607 18.723L78.1654 18.7334L79.3733 18.1961ZM79.8458 21.4878L78.553 21.2115L78.5473 21.2381L78.5427 21.265L79.8458 21.4878ZM80.0985 20.4473C80.6441 20.5817 80.8872 20.988 80.9626 21.1411C81.0445 21.3072 81.0695 21.4494 81.077 21.4942C81.0871 21.5548 81.0901 21.6012 81.0911 21.6199C81.0923 21.6418 81.0923 21.6566 81.0924 21.6601C81.0924 21.6653 81.0923 21.6601 81.0933 21.6316C81.0943 21.6026 81.0954 21.5759 81.0972 21.5284C81.104 21.3506 81.1125 21.0719 81.0959 20.7143L78.4547 20.8368C78.4663 21.0872 78.4607 21.2818 78.4551 21.4276C78.453 21.4827 78.4481 21.5889 78.4483 21.6669C78.4484 21.6976 78.4483 21.8056 78.4692 21.9305C78.4786 21.9865 78.506 22.1375 78.5909 22.3098C78.6694 22.4691 78.9162 22.8791 79.4662 23.0146L80.0985 20.4473ZM81.0959 20.7134C81.0617 19.9888 80.901 18.9074 80.3508 17.7748L77.9725 18.93C78.3252 19.656 78.4324 20.3637 78.4548 20.8377L81.0959 20.7134ZM80.3558 17.7852C79.8343 16.6873 78.8521 15.3911 77.325 14.8004L76.3713 17.2664C77.0448 17.527 77.6144 18.1763 77.9675 18.9196L80.3558 17.7852ZM77.3389 14.8059C75.8365 14.2052 74.0166 14.3688 72.4997 15.3876L73.9739 17.5825C74.7847 17.038 75.6874 16.9931 76.3574 17.261L77.3389 14.8059ZM72.5115 15.3798C70.9587 16.3988 70.0734 18.1402 69.7011 19.6947L72.2725 20.3105C72.5491 19.1552 73.1592 18.1173 73.9621 17.5903L72.5115 15.3798ZM69.7038 19.684C69.3061 21.2855 69.4056 22.8435 69.7036 24.0465L72.27 23.4106C72.0602 22.5639 71.9904 21.4469 72.2699 20.3212L69.7038 19.684ZM69.705 24.0522C70.0111 25.2644 70.5028 26.1539 70.893 26.7198L73.0697 25.2189C72.8251 24.8641 72.4845 24.2598 72.2686 23.4049L69.705 24.0522ZM70.8941 26.7214C71.0844 26.9965 71.2447 27.1963 71.3505 27.3253C71.3632 27.3409 71.3751 27.3553 71.3855 27.3679C71.3962 27.381 71.4048 27.3914 71.4126 27.4009C71.43 27.4221 71.4341 27.4274 71.433 27.426C71.432 27.4246 71.4251 27.4157 71.4151 27.4016C71.4065 27.3895 71.3852 27.3588 71.3602 27.3157C71.3417 27.2836 71.2845 27.1829 71.2422 27.0396C71.2201 26.9646 71.1904 26.8393 71.189 26.681C71.1876 26.5187 71.2164 26.286 71.3478 26.0434L73.6729 27.3022C73.9287 26.8299 73.8088 26.3952 73.7783 26.2919C73.7343 26.1425 73.6734 26.0342 73.6497 25.993C73.5972 25.9021 73.5419 25.831 73.5255 25.8097C73.4863 25.7589 73.425 25.6854 73.3951 25.649C73.314 25.5501 73.2027 25.4111 73.0685 25.2172L70.8941 26.7214ZM71.2855 26.1754C71.4786 25.6998 71.8754 25.4736 72.1727 25.3954C72.4238 25.3293 72.629 25.3551 72.7088 25.3675C72.8819 25.3944 73.0064 25.4505 73.0346 25.4631C73.1202 25.5013 73.176 25.5383 73.184 25.5435C73.2153 25.5639 73.2181 25.569 73.1916 25.5463C73.1445 25.506 73.0415 25.409 72.9008 25.2391L70.8643 26.9254C71.0904 27.1984 71.2978 27.4054 71.4711 27.554C71.5548 27.6257 71.6454 27.6965 71.7377 27.7568C71.7762 27.782 71.8559 27.8325 71.9582 27.8781C71.9947 27.8944 72.1257 27.9527 72.3035 27.9803C72.3857 27.9931 72.5927 28.0189 72.8452 27.9524C73.1439 27.8739 73.5416 27.6469 73.7352 27.1702L71.2855 26.1754ZM72.9088 25.2488C72.6504 24.9306 72.2759 24.3513 72.0266 23.4657L69.4815 24.1824C69.8387 25.4508 70.3954 26.348 70.8564 26.9156L72.9088 25.2488ZM72.0258 23.463C71.7778 22.5895 71.6808 21.4102 71.9643 20.1885L69.3887 19.5909C68.995 21.2874 69.1237 22.9221 69.4823 24.1851L72.0258 23.463ZM71.9662 20.1799C72.2441 18.945 72.9035 17.7923 73.7932 17.208L72.3419 14.9979C70.6924 16.0812 69.7577 17.9509 69.3867 19.5994L71.9662 20.1799ZM73.8042 17.2007C74.6986 16.6005 75.6913 16.5594 76.4371 16.8711L77.4567 14.4315C75.8749 13.7705 73.9475 13.9204 72.3309 15.0052L73.8042 17.2007ZM76.4449 16.8743C77.2063 17.1868 77.8145 17.9261 78.1608 18.7229L80.5857 17.6692C80.0715 16.4858 79.0574 15.0885 77.4489 14.4283L76.4449 16.8743ZM78.1654 18.7334C78.518 19.5261 78.5981 20.274 78.5876 20.7371L81.231 20.7967C81.2488 20.0091 81.1172 18.8636 80.5811 17.6587L78.1654 18.7334ZM78.5876 20.7371C78.5811 21.026 78.5619 21.17 78.553 21.2115L81.1387 21.764C81.2003 21.4755 81.2234 21.1331 81.231 20.7967L78.5876 20.7371ZM78.5427 21.265C78.5304 21.3374 78.5258 21.352 78.5304 21.3345C78.5322 21.3275 78.5365 21.3117 78.5436 21.2899C78.5499 21.2706 78.5636 21.23 78.5864 21.1787C78.6032 21.1411 78.6559 21.0251 78.7589 20.8973C78.8222 20.8188 79.161 20.4089 79.7824 20.4089L79.7824 23.0529C80.4072 23.0529 80.7498 22.6406 80.817 22.5572C80.924 22.4245 80.981 22.3011 81.0021 22.2536C81.0504 22.145 81.0767 22.0481 81.0872 22.0079C81.113 21.9101 81.1331 21.8032 81.1489 21.7105L78.5427 21.265Z" fill="#592F72" mask="url(#path-14-inside-6_2_195)"/>
<mask id="path-16-inside-7_2_195" fill="white">
<path d="M84.429 22.5114C84.3937 22.5027 84.4572 22.164 84.4501 21.5561C84.4431 20.9481 84.3373 20.0535 83.9141 19.1068C83.505 18.1688 82.7644 17.1614 81.6782 16.6837C80.606 16.1973 79.2447 16.2407 78.0527 16.9616C76.8537 17.6738 76.0566 19.0287 75.6899 20.3662C75.309 21.7124 75.3442 23.0499 75.5699 24.0921C75.7957 25.1431 76.1836 25.8987 76.4939 26.3764C76.7972 26.854 77.0159 27.0799 76.9947 27.1059C76.9877 27.1233 76.7337 26.9496 76.3881 26.4892C76.0425 26.0289 75.5982 25.2647 75.3301 24.179C75.0621 23.102 74.9916 21.6863 75.3795 20.2446C75.7463 18.8202 76.5927 17.3524 77.8905 16.5794C79.1742 15.7978 80.6272 15.7717 81.784 16.3189C82.9548 16.8574 83.7307 17.9691 84.1257 18.9765C84.5418 20.0014 84.6124 20.9481 84.5771 21.5734C84.563 21.8861 84.5277 22.1293 84.4925 22.2856C84.4642 22.4333 84.436 22.5114 84.429 22.5114Z"/>
</mask>
<path d="M84.429 22.5114C84.3937 22.5027 84.4572 22.164 84.4501 21.5561C84.4431 20.9481 84.3373 20.0535 83.9141 19.1068C83.505 18.1688 82.7644 17.1614 81.6782 16.6837C80.606 16.1973 79.2447 16.2407 78.0527 16.9616C76.8537 17.6738 76.0566 19.0287 75.6899 20.3662C75.309 21.7124 75.3442 23.0499 75.5699 24.0921C75.7957 25.1431 76.1836 25.8987 76.4939 26.3764C76.7972 26.854 77.0159 27.0799 76.9947 27.1059C76.9877 27.1233 76.7337 26.9496 76.3881 26.4892C76.0425 26.0289 75.5982 25.2647 75.3301 24.179C75.0621 23.102 74.9916 21.6863 75.3795 20.2446C75.7463 18.8202 76.5927 17.3524 77.8905 16.5794C79.1742 15.7978 80.6272 15.7717 81.784 16.3189C82.9548 16.8574 83.7307 17.9691 84.1257 18.9765C84.5418 20.0014 84.6124 20.9481 84.5771 21.5734C84.563 21.8861 84.5277 22.1293 84.4925 22.2856C84.4642 22.4333 84.436 22.5114 84.429 22.5114Z" fill="#592F72"/>
<path d="M84.429 22.5114L84.1129 23.7951L84.2686 23.8334L84.429 23.8334L84.429 22.5114ZM83.9141 19.1068L82.7022 19.6353L82.7072 19.6463L83.9141 19.1068ZM81.6782 16.6837L81.132 17.8876L81.139 17.8907L81.146 17.8938L81.6782 16.6837ZM78.0527 16.9616L78.7279 18.0982L78.7368 18.0928L78.0527 16.9616ZM75.6899 20.3662L76.962 20.7261L76.9648 20.7158L75.6899 20.3662ZM75.5699 24.0921L76.8625 23.8145L76.862 23.8123L75.5699 24.0921ZM76.4939 26.3764L77.6101 25.6677L77.6025 25.6561L76.4939 26.3764ZM76.9947 27.1059L75.9685 26.2725L75.8441 26.4257L75.7698 26.6085L76.9947 27.1059ZM75.3301 24.179L76.6136 23.8621L76.613 23.8597L75.3301 24.179ZM75.3795 20.2446L76.6561 20.5881L76.658 20.5812L76.6598 20.5743L75.3795 20.2446ZM77.8905 16.5794L78.567 17.7153L78.5781 17.7086L77.8905 16.5794ZM81.784 16.3189L81.2187 17.5139L81.2251 17.517L81.2316 17.52L81.784 16.3189ZM84.1257 18.9765L82.8949 19.4591L82.8978 19.4665L82.9008 19.4739L84.1257 18.9765ZM84.5771 21.5734L83.2572 21.499L83.2568 21.5064L83.2564 21.5139L84.5771 21.5734ZM84.4925 22.2856L83.2029 21.9947L83.198 22.016L83.1939 22.0375L84.4925 22.2856ZM84.7451 21.2278C85.2987 21.3641 85.5421 21.7795 85.6178 21.9392C85.6989 22.11 85.7214 22.2556 85.7281 22.3011C85.7372 22.3631 85.7391 22.4103 85.7398 22.4297C85.7405 22.4522 85.7402 22.4675 85.7401 22.4714C85.74 22.4776 85.74 22.473 85.7416 22.4455C85.7432 22.4188 85.7452 22.39 85.7482 22.3448C85.7596 22.1706 85.7762 21.8948 85.7721 21.5407L83.1282 21.5714C83.1312 21.8253 83.1196 22.0228 83.1098 22.1722C83.106 22.2301 83.0983 22.3357 83.0967 22.4166C83.096 22.4479 83.0934 22.5574 83.112 22.6845C83.1203 22.7413 83.1451 22.8957 83.2291 23.0727C83.3078 23.2386 83.5549 23.6577 84.1129 23.7951L84.7451 21.2278ZM85.7721 21.5407C85.7635 20.8024 85.6361 19.7195 85.121 18.5673L82.7072 19.6463C83.0385 20.3875 83.1227 21.0938 83.1282 21.5714L85.7721 21.5407ZM85.1259 18.5783C84.6409 17.4664 83.7099 16.133 82.2103 15.4735L81.146 17.8938C81.8188 18.1897 82.3691 18.8712 82.7023 19.6353L85.1259 18.5783ZM82.2243 15.4797C80.7456 14.8089 78.9245 14.8894 77.3686 15.8303L78.7368 18.0928C79.565 17.592 80.4665 17.5857 81.132 17.8876L82.2243 15.4797ZM77.3776 15.8249C75.7865 16.77 74.8368 18.4779 74.4149 20.0166L76.9648 20.7158C77.2764 19.5794 77.9209 18.5775 78.7278 18.0982L77.3776 15.8249ZM74.4178 20.0063C73.971 21.5855 74.0121 23.1446 74.2779 24.372L76.862 23.8123C76.6764 22.9552 76.647 21.8393 76.9619 20.7261L74.4178 20.0063ZM74.2774 24.3697C74.5419 25.6011 75.001 26.505 75.3853 27.0966L77.6025 25.6561C77.3662 25.2924 77.0494 24.685 76.8625 23.8145L74.2774 24.3697ZM75.3779 27.085C75.5569 27.3669 75.7113 27.5748 75.8099 27.7058C75.8359 27.7403 75.8512 27.7604 75.8665 27.7808C75.8819 27.8014 75.8835 27.8041 75.8796 27.7984C75.8771 27.7948 75.8684 27.7821 75.8567 27.7631C75.8466 27.7467 75.8228 27.7073 75.7969 27.6524C75.7773 27.6111 75.7189 27.4845 75.6906 27.3079C75.6652 27.1494 75.6255 26.6948 75.9685 26.2725L78.0209 27.9393C78.3665 27.5138 78.3277 27.0544 78.3013 26.8895C78.2719 26.7064 78.2107 26.5718 78.1866 26.5209C78.1335 26.4088 78.0735 26.3224 78.0565 26.2978C78.0136 26.2356 77.9524 26.1556 77.9221 26.1152C77.8408 26.0074 77.7343 25.8635 77.61 25.6677L75.3779 27.085ZM75.7698 26.6085C75.9672 26.1225 76.3773 25.8949 76.6862 25.8211C76.9437 25.7596 77.152 25.7924 77.2306 25.8069C77.4032 25.8387 77.5261 25.8986 77.5536 25.9118C77.6381 25.9524 77.6928 25.991 77.7012 25.9969C77.733 26.019 77.7367 26.0251 77.7127 26.0031C77.6701 25.964 77.574 25.8669 77.4453 25.6955L75.3309 27.283C75.5479 27.5719 75.7515 27.7918 75.9241 27.9503C76.0077 28.0271 76.0977 28.1021 76.1899 28.1664C76.2285 28.1933 76.3069 28.2462 76.408 28.2948C76.4438 28.3119 76.5733 28.3742 76.7505 28.4069C76.8314 28.4219 77.0415 28.4547 77.3005 28.3928C77.6108 28.3187 78.0218 28.0904 78.2196 27.6033L75.7698 26.6085ZM77.4453 25.6955C77.1937 25.3603 76.8342 24.7557 76.6136 23.8621L74.0467 24.4959C74.3621 25.7736 74.8914 26.6976 75.3309 27.283L77.4453 25.6955ZM76.613 23.8597C76.3931 22.9763 76.3327 21.7901 76.6561 20.5881L74.1029 19.9011C73.6504 21.5826 73.731 23.2278 74.0472 24.4983L76.613 23.8597ZM76.6598 20.5743C76.9721 19.3614 77.6649 18.2525 78.567 17.7153L77.214 15.4436C75.5204 16.4523 74.5205 18.2791 74.0993 19.9149L76.6598 20.5743ZM78.5781 17.7086C79.4836 17.1572 80.4658 17.1578 81.2187 17.5139L82.3493 15.1238C80.7886 14.3856 78.8649 14.4383 77.2029 15.4503L78.5781 17.7086ZM81.2316 17.52C81.9879 17.8678 82.5754 18.6443 82.8949 19.4591L85.3565 18.494C84.8859 17.2938 83.9218 15.8469 82.3363 15.1178L81.2316 17.52ZM82.9008 19.4739C83.2313 20.2879 83.2834 21.0343 83.2572 21.499L85.897 21.6479C85.9413 20.8619 85.8523 19.7149 85.3506 18.4792L82.9008 19.4739ZM83.2564 21.5139C83.2451 21.7646 83.2178 21.9286 83.2029 21.9947L85.7821 22.5765C85.8377 22.33 85.8809 22.0076 85.8978 21.633L83.2564 21.5139ZM83.1939 22.0375C83.1864 22.0772 83.1824 22.0876 83.1871 22.0721C83.1881 22.0688 83.1986 22.0333 83.2204 21.9817C83.2285 21.9626 83.2575 21.8944 83.3085 21.812C83.331 21.7757 83.3905 21.6822 83.4898 21.5816C83.5406 21.5303 83.6314 21.4465 83.7632 21.3695C83.8931 21.2937 84.1236 21.1894 84.429 21.1894L84.429 23.8334C84.9953 23.8334 85.3278 23.4834 85.3712 23.4394C85.4717 23.3376 85.5327 23.2423 85.5567 23.2035C85.6107 23.1163 85.6432 23.0409 85.6554 23.0121C85.6854 22.9413 85.706 22.877 85.7185 22.8356C85.7461 22.7442 85.7703 22.6417 85.791 22.5337L83.1939 22.0375Z" fill="#592F72" mask="url(#path-16-inside-7_2_195)"/>
<path d="M85.0082 31.7618L85.5072 33.9579C86.4393 38.0598 83.7585 42.6399 79.4052 44.1398L40.5466 57.5279L36.6389 40.331L75.4975 26.9428C79.8345 25.4486 84.0759 27.6591 85.0082 31.7618Z" fill="#592F72" stroke="#592F72" stroke-width="1.32201"/>
<path d="M35.4796 41.1622L39.2019 57.5431L21.7817 54.7205L35.4796 41.1622Z" fill="#FFF0D9" stroke="#592F72" stroke-width="1.32201"/>
<path d="M21.7803 54.7037L26.5755 49.9628C27.6075 50.6059 28.1844 51.2767 28.4905 51.8956C28.8294 52.5807 28.8604 53.2501 28.7536 53.8498C28.6448 54.4607 28.3906 55.007 28.1536 55.4095C28.0845 55.5269 28.0181 55.63 27.9592 55.7165L21.7803 54.7037Z" fill="#592F72" stroke="#592F72" stroke-width="1.32201"/>
<path opacity="0.3" d="M39.4438 55.6399L38.5415 51.6689" stroke="#592F72" stroke-width="1.32201"/>
<mask id="path-22-inside-8_2_195" fill="white">
<path d="M73.3607 26.6899C73.5788 26.6148 74.7072 30.7674 75.8864 35.9567C77.0656 41.1461 77.8512 45.4168 77.6331 45.4919C77.4149 45.5671 76.2865 41.4145 75.1073 36.2251C73.9282 31.0358 73.1425 26.7651 73.3607 26.6899Z"/>
</mask>
<path d="M73.3607 26.6899C73.5788 26.6148 74.7072 30.7674 75.8864 35.9567C77.0656 41.1461 77.8512 45.4168 77.6331 45.4919C77.4149 45.5671 76.2865 41.4145 75.1073 36.2251C73.9282 31.0358 73.1425 26.7651 73.3607 26.6899Z" fill="#592F72"/>
<path d="M73.6536 27.9791C73.1349 28.1578 72.7539 27.9482 72.623 27.8595C72.4804 27.7628 72.3999 27.6569 72.3764 27.6253C72.3221 27.5525 72.3041 27.5048 72.3207 27.5406C72.345 27.5931 72.3939 27.7163 72.4675 27.9348C72.6102 28.3583 72.8006 29.0034 73.0268 29.8341C73.4773 31.4883 74.0496 33.8047 74.6365 36.3874L77.1363 35.5261C76.544 32.9194 75.9626 30.5648 75.4995 28.8642C75.2689 28.0175 75.0627 27.3142 74.8955 26.818C74.8142 26.5767 74.73 26.3473 74.6463 26.1668C74.6088 26.0861 74.543 25.9518 74.4477 25.8239C74.4036 25.7648 74.3043 25.6392 74.1446 25.5309C73.9965 25.4305 73.6001 25.2174 73.0677 25.4008L73.6536 27.9791ZM74.6365 36.3874C75.2234 38.9701 75.7104 41.3158 76.0225 43.0177C76.1793 43.8724 76.2884 44.5455 76.3449 44.9986C76.3741 45.2324 76.3843 45.369 76.3856 45.4294C76.3865 45.4706 76.3818 45.4183 76.3975 45.3214C76.4043 45.2793 76.4284 45.1374 76.5096 44.9637C76.584 44.8041 76.8214 44.3815 77.3401 44.2028L77.926 46.7811C78.4584 46.5977 78.7074 46.1621 78.7916 45.9817C78.8825 45.7871 78.9145 45.6163 78.9272 45.5376C78.9548 45.3673 78.9545 45.2104 78.9525 45.1175C78.9479 44.9098 78.9233 44.6599 78.8911 44.4016C78.8248 43.8707 78.7047 43.1377 78.545 42.2666C78.224 40.517 77.7286 38.1328 77.1363 35.5261L74.6365 36.3874ZM77.3401 44.2028C77.8589 44.0241 78.2399 44.2336 78.3708 44.3224C78.5134 44.4191 78.5938 44.525 78.6173 44.5566C78.6716 44.6294 78.6897 44.6771 78.6731 44.6413C78.6487 44.5888 78.5998 44.4655 78.5262 44.2471C78.3836 43.8236 78.1932 43.1785 77.9669 42.3477C77.5165 40.6936 76.9441 38.3772 76.3572 35.7945L73.8574 36.6558C74.4497 39.2624 75.0312 41.6171 75.4943 43.3177C75.7248 44.1644 75.9311 44.8677 76.0982 45.3638C76.1795 45.6052 76.2638 45.8346 76.3475 46.015C76.3849 46.0957 76.4507 46.23 76.5461 46.358C76.5901 46.4171 76.6895 46.5426 76.8492 46.651C76.9972 46.7514 77.3936 46.9645 77.926 46.7811L77.3401 44.2028ZM76.3572 35.7945C75.7704 33.2118 75.2834 30.866 74.9712 29.1642C74.8145 28.3095 74.7054 27.6364 74.6488 27.1833C74.6196 26.9495 74.6095 26.8129 74.6082 26.7524C74.6073 26.7112 74.612 26.7636 74.5963 26.8605C74.5895 26.9026 74.5653 27.0444 74.4842 27.2182C74.4097 27.3777 74.1723 27.8004 73.6536 27.9791L73.0677 25.4008C72.5354 25.5842 72.2863 26.0197 72.2021 26.2002C72.1112 26.3948 72.0793 26.5656 72.0665 26.6443C72.0389 26.8146 72.0393 26.9714 72.0413 27.0643C72.0458 27.2721 72.0704 27.522 72.1027 27.7803C72.1689 28.3112 72.289 29.0442 72.4488 29.9152C72.7697 31.6649 73.2651 34.0491 73.8574 36.6558L76.3572 35.7945Z" fill="#592F72" mask="url(#path-22-inside-8_2_195)"/>
<mask id="path-24-inside-9_2_195" fill="white">
<path d="M70.4757 27.897C70.6938 27.8218 71.8017 31.8842 72.957 36.9682C74.1122 42.0523 74.8773 46.2327 74.6592 46.3079C74.441 46.3831 73.3331 42.3207 72.1779 37.2367C71.0226 32.1526 70.2575 27.9721 70.4757 27.897Z"/>
</mask>
<path d="M70.4757 27.897C70.6938 27.8218 71.8017 31.8842 72.957 36.9682C74.1122 42.0523 74.8773 46.2327 74.6592 46.3079C74.441 46.3831 73.3331 42.3207 72.1779 37.2367C71.0226 32.1526 70.2575 27.9721 70.4757 27.897Z" fill="#592F72"/>
<path d="M70.7686 29.1861C70.261 29.361 69.8847 29.1634 69.749 29.0737C69.6042 28.978 69.522 28.872 69.4971 28.8393C69.4406 28.7648 69.4212 28.7148 69.4371 28.7487C69.46 28.7974 69.5075 28.9156 69.5798 29.1288C69.7198 29.5414 69.9068 30.1713 70.1289 30.984C70.571 32.602 71.1322 34.8691 71.7071 37.3989L74.2069 36.5376C73.6265 33.9833 73.0561 31.6772 72.6009 30.0118C72.3744 29.1828 72.1712 28.4935 72.006 28.0066C71.9258 27.7701 71.8419 27.5436 71.7579 27.3647C71.7204 27.2847 71.6537 27.1502 71.5564 27.022C71.5112 26.9623 71.4103 26.8372 71.2484 26.7303C71.0956 26.6293 70.7039 26.4283 70.1827 26.6078L70.7686 29.1861ZM71.7071 37.3989C72.2819 39.9287 72.7577 42.2251 73.0617 43.8907C73.2144 44.7274 73.3201 45.3853 73.3743 45.8274C73.4023 46.0559 73.4115 46.1873 73.4125 46.2436C73.4132 46.2827 73.4087 46.2275 73.4256 46.1278C73.433 46.0839 73.4587 45.9408 73.5421 45.7664C73.6203 45.603 73.8587 45.1936 74.3663 45.0188L74.9521 47.597C75.4733 47.4175 75.7234 46.9954 75.8115 46.8114C75.9047 46.6165 75.9383 46.4451 75.9518 46.3652C75.9809 46.1934 75.9812 46.0358 75.9796 45.9435C75.976 45.7369 75.9522 45.4897 75.9211 45.2362C75.8571 44.7145 75.7403 43.9954 75.5845 43.1421C75.2717 41.4276 74.7873 39.0919 74.2069 36.5376L71.7071 37.3989ZM74.3663 45.0188C74.8738 44.8439 75.2501 45.0415 75.3859 45.1312C75.5307 45.2269 75.6129 45.3329 75.6377 45.3656C75.6942 45.4401 75.7136 45.4901 75.6977 45.4562C75.6749 45.4075 75.6273 45.2892 75.555 45.0761C75.415 44.6635 75.2281 44.0336 75.006 43.2208C74.5638 41.6029 74.0026 39.3358 73.4278 36.806L70.928 37.6673C71.5084 40.2215 72.0788 42.5277 72.5339 44.1931C72.7605 45.0221 72.9636 45.7114 73.1288 46.1982C73.2091 46.4348 73.2929 46.6613 73.3769 46.8402C73.4144 46.9201 73.4811 47.0547 73.5784 47.1829C73.6236 47.2425 73.7246 47.3676 73.8865 47.4746C74.0393 47.5756 74.4309 47.7766 74.9521 47.597L74.3663 45.0188ZM73.4278 36.806C72.8529 34.2762 72.3771 31.9797 72.0732 30.3142C71.9205 29.4775 71.8148 28.8196 71.7606 28.3774C71.7326 28.149 71.7233 28.0176 71.7223 27.9613C71.7217 27.9222 71.7262 27.9773 71.7093 28.0771C71.7018 28.121 71.6762 28.2641 71.5927 28.4384C71.5145 28.6019 71.2762 29.0113 70.7686 29.1861L70.1827 26.6078C69.6615 26.7874 69.4114 27.2095 69.3234 27.3935C69.2301 27.5884 69.1966 27.7598 69.183 27.8397C69.1539 28.0114 69.1536 28.1691 69.1552 28.2614C69.1589 28.468 69.1826 28.7152 69.2137 28.9687C69.2777 29.4904 69.3946 30.2094 69.5503 31.0628C69.8632 32.7773 70.3476 35.113 70.928 37.6673L73.4278 36.806Z" fill="#592F72" mask="url(#path-24-inside-9_2_195)"/>
<mask id="path-26-inside-10_2_195" fill="white">
<path d="M39.1161 52.842C39.0682 52.6314 46.6812 49.8301 56.108 46.5822C65.5348 43.3343 73.2229 40.8639 73.2708 41.0745C73.3186 41.2851 65.7213 44.081 56.2789 47.3343C46.8521 50.5821 39.1639 53.0526 39.1161 52.842Z"/>
</mask>
<path d="M39.1161 52.842C39.0682 52.6314 46.6812 49.8301 56.108 46.5822C65.5348 43.3343 73.2229 40.8639 73.2708 41.0745C73.3186 41.2851 65.7213 44.081 56.2789 47.3343C46.8521 50.5821 39.1639 53.0526 39.1161 52.842Z" fill="#FFB5C3"/>
<path d="M40.366 52.4113C40.4885 52.9504 40.2528 53.3794 40.1536 53.5314C40.0456 53.6967 39.9326 53.7976 39.8934 53.8318C39.8422 53.8764 39.8008 53.9055 39.7822 53.9182C39.761 53.9326 39.7464 53.9414 39.7417 53.9442C39.7346 53.9484 39.7672 53.9296 39.8678 53.8828C40.056 53.7954 40.3593 53.6668 40.781 53.4975C41.6171 53.1618 42.8445 52.6957 44.3784 52.1308C47.4427 51.0023 51.6933 49.4933 56.4009 47.8713L55.815 45.293C51.0958 46.919 46.8266 48.4345 43.7396 49.5713C42.198 50.1391 40.942 50.6158 40.0695 50.966C39.6369 51.1397 39.2796 51.2899 39.0238 51.4087C38.9025 51.465 38.7672 51.5311 38.6492 51.6011C38.5997 51.6305 38.4893 51.6975 38.3744 51.7976C38.3218 51.8434 38.1992 51.9546 38.0853 52.1291C37.9801 52.2901 37.7422 52.727 37.8662 53.2726L40.366 52.4113ZM56.4009 47.8713C61.1085 46.2494 65.3779 44.823 68.4728 43.8294C70.0221 43.332 71.2677 42.9461 72.1239 42.6987C72.5557 42.574 72.8691 42.4901 73.0669 42.4446C73.1726 42.4202 73.2084 42.4155 73.2006 42.4164C73.1954 42.4171 73.1791 42.4189 73.155 42.4201C73.1337 42.4211 73.0861 42.4227 73.0235 42.4173C72.9756 42.4132 72.8365 42.3991 72.6745 42.3268C72.5256 42.2603 72.1433 42.0442 72.0209 41.5051L74.5207 40.6438C74.3967 40.0982 74.0092 39.8768 73.8514 39.8064C73.6805 39.7301 73.5288 39.7133 73.4646 39.7078C73.3242 39.6956 73.2016 39.7089 73.1468 39.7155C73.0165 39.731 72.873 39.761 72.7456 39.7904C72.4768 39.8523 72.1082 39.9522 71.6652 40.0802C70.7718 40.3383 69.4972 40.7335 67.9401 41.2334C64.8223 42.2344 60.5343 43.6671 55.815 45.293L56.4009 47.8713ZM72.0209 41.5051C71.8986 40.9672 72.1331 40.5387 72.2325 40.3862C72.3405 40.2207 72.4534 40.1196 72.4928 40.0852C72.5441 40.0405 72.5855 40.0114 72.6042 39.9986C72.6254 39.9841 72.6401 39.9753 72.6449 39.9725C72.6522 39.9681 72.6199 39.9869 72.5194 40.0335C72.3317 40.1207 72.029 40.2492 71.608 40.4182C70.7731 40.7535 69.5472 41.2191 68.0142 41.7837C64.952 42.9114 60.7014 44.4205 55.9859 46.0451L56.5718 48.6234C61.2988 46.9948 65.568 45.4792 68.6531 44.3431C70.1938 43.7757 71.4484 43.2995 72.3196 42.9496C72.7517 42.7761 73.1084 42.6261 73.3639 42.5074C73.4851 42.4511 73.6203 42.3851 73.7382 42.315C73.7878 42.2856 73.8982 42.2185 74.0133 42.1182C74.0659 42.0723 74.1885 41.9609 74.3023 41.7862C74.4077 41.6247 74.6444 41.1884 74.5207 40.6438L72.0209 41.5051ZM55.9859 46.0451C51.2783 47.6671 47.0089 49.0935 43.914 50.087C42.3647 50.5844 41.1191 50.9703 40.2629 51.2177C39.8312 51.3424 39.5177 51.4263 39.32 51.4719C39.2143 51.4962 39.1784 51.501 39.1863 51.5C39.1915 51.4994 39.2077 51.4975 39.2319 51.4964C39.2532 51.4953 39.3008 51.4937 39.3633 51.4991C39.4113 51.5033 39.5504 51.5174 39.7124 51.5897C39.8613 51.6561 40.2435 51.8723 40.366 52.4113L37.8662 53.2726C37.9902 53.8182 38.3776 54.0397 38.5354 54.1101C38.7064 54.1864 38.858 54.2031 38.9223 54.2087C39.0627 54.2208 39.1852 54.2075 39.24 54.201C39.3703 54.1854 39.5138 54.1555 39.6413 54.1261C39.91 54.0642 40.2787 53.9642 40.7217 53.8362C41.6151 53.5781 42.8896 53.1829 44.4467 52.683C47.5646 51.6821 51.8526 50.2493 56.5718 48.6234L55.9859 46.0451Z" fill="#592F72" mask="url(#path-26-inside-10_2_195)"/>
<mask id="path-28-inside-11_2_195" fill="white">
<path d="M37.4127 45.3635C37.3649 45.1529 44.9778 42.3516 54.4046 39.1037C63.8314 35.8558 71.5195 33.3854 71.5674 33.596C71.6152 33.8066 64.0179 36.6025 54.5755 39.8558C45.1487 43.1037 37.4606 45.5741 37.4127 45.3635Z"/>
</mask>
<path d="M37.4127 45.3635C37.3649 45.1529 44.9778 42.3516 54.4046 39.1037C63.8314 35.8558 71.5195 33.3854 71.5674 33.596C71.6152 33.8066 64.0179 36.6025 54.5755 39.8558C45.1487 43.1037 37.4606 45.5741 37.4127 45.3635Z" fill="#FFB5C3"/>
<path d="M38.6626 44.9329C38.7851 45.4719 38.5495 45.9009 38.4502 46.0529C38.3422 46.2182 38.2293 46.3191 38.19 46.3533C38.1388 46.3979 38.0974 46.427 38.0788 46.4397C38.0577 46.4541 38.043 46.4629 38.0383 46.4657C38.0312 46.4699 38.0638 46.4511 38.1645 46.4043C38.3527 46.3169 38.656 46.1883 39.0776 46.019C39.9137 45.6833 41.1411 45.2172 42.6751 44.6523C45.7393 43.5238 49.9899 42.0148 54.6975 40.3929L54.1117 37.8146C49.3925 39.4405 45.1232 40.956 42.0363 42.0929C40.4946 42.6606 39.2386 43.1373 38.3661 43.4876C37.9335 43.6613 37.5762 43.8114 37.3205 43.9302C37.1991 43.9866 37.0638 44.0527 36.9459 44.1226C36.8963 44.152 36.7859 44.219 36.671 44.3191C36.6184 44.3649 36.4959 44.4762 36.3819 44.6506C36.2767 44.8116 36.0388 45.2485 36.1628 45.7941L38.6626 44.9329ZM54.6975 40.3929C59.4051 38.7709 63.6746 37.3445 66.7695 36.3509C68.3187 35.8535 69.5644 35.4676 70.4206 35.2203C70.8523 35.0955 71.1658 35.0117 71.3635 34.9661C71.4692 34.9417 71.505 34.937 71.4972 34.938C71.492 34.9386 71.4758 34.9404 71.4516 34.9416C71.4303 34.9426 71.3827 34.9442 71.3202 34.9388C71.2722 34.9347 71.1331 34.9206 70.9711 34.8483C70.8222 34.7818 70.44 34.5657 70.3175 34.0266L72.8173 33.1654C72.6933 32.6197 72.3058 32.3983 72.148 32.3279C71.9771 32.2516 71.8255 32.2348 71.7612 32.2293C71.6208 32.2171 71.4982 32.2304 71.4435 32.237C71.3131 32.2526 71.1697 32.2825 71.0422 32.3119C70.7735 32.3738 70.4048 32.4737 69.9618 32.6017C69.0684 32.8599 67.7939 33.2551 66.2368 33.7549C63.1189 34.7559 58.8309 36.1886 54.1117 37.8146L54.6975 40.3929ZM70.3175 34.0266C70.1952 33.4887 70.4298 33.0602 70.5292 32.9078C70.6371 32.7422 70.7501 32.6411 70.7894 32.6068C70.8407 32.5621 70.8821 32.5329 70.9008 32.5201C70.922 32.5056 70.9368 32.4968 70.9415 32.494C70.9488 32.4896 70.9165 32.5084 70.8161 32.555C70.6283 32.6423 70.3256 32.7707 69.9046 32.9397C69.0698 33.275 67.8438 33.7406 66.3109 34.3052C63.2486 35.433 58.998 36.942 54.2826 38.5666L54.8684 41.1449C59.5954 39.5163 63.8647 38.0008 66.9497 36.8646C68.4904 36.2972 69.745 35.821 70.6163 35.4711C71.0483 35.2976 71.4051 35.1476 71.6605 35.029C71.7817 34.9727 71.9169 34.9066 72.0349 34.8365C72.0844 34.8071 72.1949 34.74 72.3099 34.6397C72.3625 34.5938 72.4851 34.4824 72.599 34.3077C72.7043 34.1462 72.941 33.7099 72.8173 33.1654L70.3175 34.0266ZM54.2826 38.5666C49.575 40.1886 45.3055 41.615 42.2107 42.6086C40.6614 43.1059 39.4157 43.4919 38.5596 43.7392C38.1278 43.864 37.8143 43.9478 37.6166 43.9934C37.5109 44.0178 37.4751 44.0225 37.4829 44.0215C37.4881 44.0209 37.5044 44.0191 37.5285 44.0179C37.5498 44.0169 37.5974 44.0153 37.6599 44.0207C37.7079 44.0248 37.847 44.0389 38.009 44.1112C38.1579 44.1777 38.5401 44.3938 38.6626 44.9329L36.1628 45.7941C36.2868 46.3398 36.6743 46.5612 36.8321 46.6316C37.003 46.7079 37.1547 46.7247 37.2189 46.7302C37.3593 46.7423 37.4819 46.7291 37.5366 46.7225C37.667 46.7069 37.8104 46.677 37.9379 46.6476C38.2066 46.5857 38.5753 46.4857 39.0183 46.3578C39.9117 46.0996 41.1863 45.7044 42.7433 45.2046C45.8612 44.2036 50.1492 42.7709 54.8684 41.1449L54.2826 38.5666Z" fill="#592F72" mask="url(#path-28-inside-11_2_195)"/>
</svg>
