<svg width="92" height="92" viewBox="0 0 92 92" fill="none" xmlns="http://www.w3.org/2000/svg">
<path d="M18.1671 16.0021C18.139 12.3757 21.038 9.40383 24.664 9.34189L69.6991 8.57258C71.1654 8.54753 72.372 9.72073 72.3881 11.1872L72.7677 45.7879V70.1452C72.7677 70.8407 72.2039 71.4046 71.5083 71.4046V71.4046C70.8128 71.4046 70.249 71.9684 70.249 72.6639V77.9163C70.249 78.5889 70.8417 79.1074 71.5083 79.0178V79.0178C72.175 78.9283 72.7677 79.4467 72.7677 80.1194V82.1191C72.7677 82.7448 72.2652 83.2545 71.6395 83.2632L25.3443 83.9115C21.6779 83.9628 18.6703 81.0199 18.6419 77.3532L18.1671 16.0021Z" fill="#73468D"/>
<path d="M21.8559 11.6686C20.1844 12.2675 19.4084 13.7711 19.2822 15.2344C19.0148 18.447 18.9408 21.6987 19.5008 24.9129C20.5376 23.882 21.5836 22.8577 22.0355 21.4024C23.8902 21.9942 25.6781 21.8771 27.39 20.8581C27.3953 17.5374 27.4006 14.2166 27.4072 10.9038C25.5388 10.9783 23.5685 10.3742 21.8559 11.6686Z" fill="#592F72"/>
<path d="M22.5889 61.5827C21.2178 62.1374 20.6775 63.3651 20.1373 64.5929C19.7556 67.801 19.7534 70.9998 20.2543 74.2C20.6668 72.5653 21.8456 71.5583 23.1657 70.6644C24.775 69.9872 26.4924 70.3033 28.1606 70.1503C28.1002 67.0111 28.0462 63.8626 27.9937 60.722C26.1363 60.6731 24.2552 60.4421 22.5889 61.5827Z" fill="#592F72"/>
<path d="M22.1201 24.6643C20.8486 25.3717 20.0103 26.4246 19.5789 27.8115C19.2037 30.638 19.2158 33.4537 19.6509 36.2767C20.161 34.5036 21.2908 33.2622 22.9453 32.4719C24.4649 32.1181 26.0047 32.0198 27.5514 32.1471C27.5081 29.3854 27.4648 26.6237 27.4229 23.8699C25.6264 23.8914 23.7889 23.6772 22.1201 24.6643Z" fill="#592F72"/>
<path d="M27.4161 10.8996C41.1704 10.6731 54.926 10.4545 68.6761 10.2044C70.0667 10.1808 70.5609 10.7829 70.5836 12.1231C70.835 31.391 71.1178 50.6534 71.385 69.9186C70.7362 70.2907 70.0149 70.2463 69.3031 70.257C56.5323 70.4498 43.7643 70.6583 30.9922 70.8432C29.9889 70.8561 28.9626 70.9701 28.0664 70.3408C27.5743 69.8436 27.4449 69.1941 27.4285 68.5411C27.3701 65.8792 27.1896 63.2143 27.3899 60.5478C27.0508 55.1575 27.1319 49.7588 27.0436 44.3652C26.979 40.2712 26.7543 36.189 26.9655 32.0955C26.774 29.3677 26.6784 26.6314 26.8507 23.8969C26.724 22.8906 26.6774 21.8785 26.8094 20.8676C26.5293 18.2363 26.6287 15.5955 26.6073 12.9595C26.6018 12.1832 26.7896 11.446 27.4161 10.8996Z" fill="#9C71BC"/>
<path d="M27.5603 32.1537C27.6618 71.8769 30.8082 56.1465 19.896 64.1207C19.8937 54.194 18.9719 44.808 19.8886 34.6645C20.9407 32.0926 25.416 30.3654 27.5603 32.1537Z" fill="#FFF0D9" fill-opacity="0.6264"/>
<path d="M28.1634 70.1688C41.7602 69.9698 55.3635 69.7615 68.9603 69.5624C69.785 69.5483 70.6299 69.4173 71.3755 69.927C71.3879 70.3702 71.4094 70.8199 71.4218 71.2631C71.0129 72.1279 70.268 72.2739 69.4245 72.2265C55.1122 72.4612 40.7957 72.6722 26.4885 72.8898C25.3395 72.9038 24.2072 72.8743 23.4863 73.9959C23.2642 74.5366 22.9474 75.0453 22.8321 75.6402C22.4514 77.6904 23.8264 79.3455 25.8936 79.3416C26.5988 79.3402 27.3164 79.2233 28.009 79.4751C28.8398 80.1481 29.5957 79.5063 30.3824 79.3206C31.2813 79.2207 32.1888 79.2164 33.0863 79.2948C33.8522 79.3152 34.4401 80.5488 35.3489 79.6213C45.2046 79.3129 55.0637 79.3036 64.92 79.0923C65.8316 78.9254 66.7545 79.0561 67.6705 78.9612C68.2769 78.9042 68.9791 79.0247 69.3524 78.3281C69.467 78.1948 69.6042 78.098 69.7705 78.0285C70.6691 78.2525 70.9942 79.0947 71.5435 79.6872C71.7188 80.8794 71.2835 81.36 70.0058 81.3802C55.1271 81.5759 40.2543 81.8516 25.3729 82.0315C21.5462 82.0829 19.3067 78.5379 20.2663 74.225C20.0478 71.9473 21.7608 71.0739 23.306 70.0759C24.9334 69.5494 26.5684 69.1593 28.1634 70.1688Z" fill="#9C71BC"/>
<path d="M19.513 24.9341C20.2568 21.6628 23.5242 20.5429 27.4009 20.8714C27.6799 22.7985 27.3046 23.5765 26.8512 23.9065C26.045 24.4923 24.9979 23.695 23.5792 24.0231C22.2235 24.3403 21.3058 25.4962 20.6975 26.5657C20.3122 27.0539 19.8325 27.5586 19.5454 27.4466C19.1279 27.2846 19.276 25.947 19.513 24.9341Z" fill="#FFF0D9" fill-opacity="0.6264"/>
<path d="M69.7379 71.7319C70.3028 71.5768 70.8664 71.4139 71.4314 71.2587C71.4736 74.0611 71.508 76.8648 71.5517 79.675C70.6394 79.5586 69.8209 79.3288 69.8677 78.1547C69.4136 78.0152 69.3058 77.6291 69.2281 77.2297C69.1781 76.8497 69.1267 76.4619 69.1647 76.0747C69.1475 75.6971 69.1147 75.3223 69.1475 74.9522C69.1225 74.576 69.1067 74.2063 69.1317 73.8376C69.1231 73.5557 69.0895 73.27 69.1296 72.9877C69.1535 72.4734 69.2513 72.0111 69.7379 71.7319Z" fill="#592F72"/>
<path d="M37.0794 46.316C37.0231 42.4554 36.9496 38.5897 36.9089 34.7263C36.8924 32.5834 37.5155 31.9243 39.6257 31.8886C45.9302 31.7698 52.2453 31.6655 58.5514 31.6031C61.1661 31.5767 61.7865 32.2054 61.8384 34.8766C61.9613 42.0049 62.0607 49.1374 62.16 56.2699C62.1704 56.9806 62.0678 57.6948 62.0202 58.3995C61.9365 59.5477 61.2798 60.1074 60.1558 60.1252C53.1933 60.2371 46.2308 60.349 39.2656 60.4452C37.6805 60.4703 37.2805 59.4307 37.2657 58.0892C37.197 54.1579 37.1389 50.2409 37.0794 46.316Z" fill="#FFF0D9" fill-opacity="0.6264"/>
<path d="M49.2427 23.5012C45.6682 23.5573 42.0989 23.5962 38.5285 23.6758C37.478 23.6969 36.4877 23.505 36.4605 22.279C36.4351 21.1094 37.3019 20.7316 38.4102 20.7166C45.5541 20.6217 52.7031 20.5097 59.8414 20.3833C60.9248 20.3646 61.7656 20.5824 61.7657 21.8861C61.7582 23.2396 60.8001 23.3255 59.7811 23.3412C56.2695 23.3862 52.7529 23.4483 49.2427 23.5012Z" fill="#FFF0D9" fill-opacity="0.6264"/>
<path d="M28.254 74.8391C30.125 74.0354 32.097 74.5096 34.0218 74.4333C34.7873 74.4052 34.6796 75.1365 34.7029 75.6426C34.7817 77.1187 34.8198 78.5939 34.8815 80.0649C34.0644 81.519 33.8484 79.5809 33.2574 79.773C32.1603 79.1544 31.0739 78.9227 29.9967 79.8148C29.4112 79.6658 28.948 81.9408 28.2611 79.9067C28.0291 79.5989 27.767 79.3045 27.7522 78.8941C27.7023 78.5142 27.6694 78.1393 27.6995 77.7535C27.6823 77.3759 27.6587 77.0076 27.6902 76.6296C27.6651 76.2534 27.6716 75.8717 27.7609 75.4999C27.8338 75.22 27.9778 74.9763 28.254 74.8391Z" fill="#9C71BC"/>
<path d="M30.0074 79.8215C31.5571 78.1507 31.5571 78.1507 33.2681 79.7797C32.1769 79.7998 31.0921 79.8107 30.0074 79.8215Z" fill="#FFEED2"/>
<path d="M69.7356 71.7248C54.9897 71.9378 40.2438 72.1509 25.4914 72.3731C24.2216 72.3919 23.1622 72.8275 22.741 74.1803C21.1802 77.4158 22.7678 79.9651 26.32 79.921C26.9674 79.9135 27.6149 79.906 28.2636 79.9063C28.253 79.5195 28.2437 79.1405 28.2345 78.7615C28.2293 78.4062 28.232 78.0494 28.2269 77.6941C28.2217 77.3387 28.2073 76.9768 28.2022 76.6214C28.197 76.2661 28.1984 75.9015 28.1932 75.5461C28.2042 75.4227 28.2086 75.3086 28.2195 75.1852C29.319 75.2123 30.4133 75.0702 31.5165 75.0723C33.8845 75.0727 33.8701 75.0833 34.0218 77.3969C34.0876 78.3328 33.7331 79.4634 34.8775 80.0737C35.5878 80.0552 36.3034 80.0196 37.0151 80.009C46.4738 79.8427 55.934 79.6842 65.3927 79.5179C66.4631 79.5177 67.5358 79.4846 68.5973 79.5264C69.5773 79.5661 69.8801 79.1166 69.7004 78.2248L69.8496 78.1503C69.8102 77.7847 69.7722 77.4269 69.7329 77.0613C69.7185 76.6994 69.7106 76.3283 69.6962 75.9665C69.7002 75.6176 69.6965 75.2701 69.7005 74.9212C69.694 74.5579 69.6783 74.1882 69.6717 73.825C69.6635 73.5916 69.646 73.3517 69.6378 73.1183C69.6778 72.6498 69.7021 72.1841 69.7356 71.7248Z" fill="#FFEED2"/>
</svg>
