<svg width="94" height="94" viewBox="0 0 94 94" fill="none" xmlns="http://www.w3.org/2000/svg">
<g clip-path="url(#clip0_3_1237)">
<path d="M47.4498 23.5787C14.8806 24.1582 1.39282 47.3109 1.39282 47.3109C1.39282 47.3109 14.8806 70.4634 47.4498 71.0429C80.019 70.4634 93.5068 47.3107 93.5068 47.3107C93.5068 47.3107 80.019 24.1582 47.4498 23.5787Z" fill="#FFF0D9"/>
<path d="M87.7733 40.2179C88.1968 40.8401 88.404 41.1955 88.404 41.1955C88.404 41.1955 74.9163 64.3482 42.3471 64.9277C21.7321 64.5609 8.76459 55.1516 2.02063 48.2931C5.02036 52.6999 18.9073 70.5396 47.4469 71.0475C80.0161 70.4679 93.5038 47.3153 93.5038 47.3153C93.5038 47.3153 91.684 44.1951 87.7733 40.2179V40.2179Z" fill="#FFD593" fill-opacity="0.265"/>
<path d="M47.4466 71.0431C60.5535 71.0431 71.1788 60.4178 71.1788 47.3109C71.1788 34.204 60.5535 23.5787 47.4466 23.5787C34.3396 23.5787 23.7144 34.204 23.7144 47.3109C23.7144 60.4178 34.3396 71.0431 47.4466 71.0431Z" fill="#D4AAF3"/>
<path d="M47.4504 60.561C40.1391 60.561 34.191 54.6129 34.191 47.3017C34.191 39.9905 40.1391 34.0423 47.4504 34.0423C54.7615 34.0423 60.7096 39.9905 60.7096 47.3017C60.7096 54.6129 54.7615 60.561 47.4504 60.561Z" fill="#592F72"/>
<path d="M55.365 45.8117C51.828 45.8117 48.9502 42.9342 48.9502 39.3971C48.9502 35.8599 51.8278 32.9823 55.365 32.9823C58.902 32.9823 61.7796 35.8599 61.7796 39.3971C61.7796 42.9342 58.902 45.8117 55.365 45.8117V45.8117Z" fill="#FFF0D9"/>
<path d="M60.8906 27.7449C63.5213 31.5661 65.0626 36.1955 65.0626 41.1854C65.0626 54.2923 54.4374 64.9177 41.3304 64.9177C36.3405 64.9177 31.7112 63.3764 27.8899 60.7456C32.1692 66.9616 39.3331 71.0374 47.4501 71.0374C60.557 71.0374 71.1823 60.4122 71.1823 47.3052C71.1823 39.188 67.1063 32.0241 60.8906 27.7449Z" fill="#9C71BC"/>
<path d="M94.7048 46.6068C94.5618 46.3613 91.1126 40.5216 83.5487 34.5657C79.1179 31.077 74.1838 28.2725 68.8831 26.2298C61.8904 23.5354 53.951 22.1926 47.4802 22.1846C47.4773 22.1846 47.4745 22.1844 47.4715 22.1844C47.468 22.1844 47.4645 22.1844 47.4611 22.1844C47.4563 22.1844 47.4517 22.1842 47.4469 22.1842C47.4421 22.1842 47.4374 22.1844 47.4326 22.1844C47.4291 22.1844 47.4256 22.1844 47.4222 22.1844C47.4187 22.1844 47.4154 22.1846 47.4119 22.1846C36.9987 22.1991 25.6012 25.1612 15.9526 31.2987C15.3049 31.7107 15.1138 32.5698 15.5258 33.2177C15.9378 33.8653 16.7968 34.0564 17.4448 33.6445C22.1547 30.6485 27.2598 28.4206 32.7155 26.9701C26.4241 31.5402 22.3248 38.953 22.3248 47.3065C22.3248 55.6366 26.4012 63.0315 32.6629 67.6045C24.0203 65.2832 17.5532 61.3803 13.1638 57.9409C7.45942 53.4711 4.17075 48.9925 3.03999 47.3067C4.11496 45.7035 7.13563 41.5819 12.3211 37.3465C12.9156 36.8609 13.0039 35.985 12.5183 35.3906C12.0325 34.7961 11.1571 34.7076 10.5624 35.1934C3.53744 40.9317 0.322352 46.3781 0.188908 46.607C-0.0629692 47.0394 -0.0629692 47.5741 0.188908 48.0065C0.33199 48.2521 3.78098 54.0918 11.3451 60.0477C15.7758 63.5363 20.7101 66.3409 26.0107 68.3835C33.0033 71.078 40.9427 72.4208 47.4135 72.4288C47.4165 72.4288 47.4193 72.4289 47.4222 72.4289C47.4304 72.4291 47.4387 72.4291 47.4469 72.4291C47.455 72.4291 47.4634 72.4291 47.4715 72.4289C47.4741 72.4289 47.4769 72.4288 47.4795 72.4288C50.1471 72.4254 53.7942 72.0251 53.7942 72.0251C65.3007 70.7409 75.5012 66.56 84.1125 59.5981C84.7097 59.1154 84.8023 58.2403 84.3195 57.6433C83.8371 57.0461 82.9619 56.9536 82.3647 57.4362C76.4066 62.2529 69.6411 65.6694 62.1742 67.6466C68.4679 63.0769 72.5691 55.6624 72.5691 47.3071C72.5691 38.977 68.4928 31.5821 62.2311 27.009C70.8735 29.3304 77.3405 33.2333 81.7299 36.6726C87.4349 41.1428 90.7236 45.6218 91.8541 47.3076C91.1348 48.3818 89.5465 50.5827 87.0321 53.1757C86.4976 53.7269 86.5112 54.6068 87.0624 55.141C87.613 55.6755 88.4936 55.6622 89.0277 55.1108C92.8099 51.2105 94.6272 48.1392 94.7026 48.0102C94.9565 47.5771 94.9577 47.0405 94.7048 46.6068V46.6068ZM69.789 47.3067C69.789 58.9497 60.6857 69.4079 47.4469 69.6487C34.2468 69.4092 25.1049 58.9827 25.1049 47.3067C25.1049 35.6862 34.1817 25.2053 47.4469 24.9647C60.647 25.204 69.789 35.6305 69.789 47.3067Z" fill="#592F72"/>
<path d="M47.4476 32.6626C39.3699 32.6626 32.7982 39.2344 32.7982 47.3121C32.7982 55.3898 39.3699 61.9614 47.4476 61.9614C55.5253 61.9614 62.0969 55.3898 62.0969 47.3121C62.0969 46.1797 61.9623 45.0506 61.7002 43.9452C62.6247 42.6627 63.1717 41.0908 63.1717 39.3925C63.1717 35.0889 59.6704 31.5879 55.367 31.5879C53.6689 31.5879 52.097 32.1346 50.8145 33.0591C49.7095 32.7972 48.5804 32.6626 47.4476 32.6626V32.6626ZM47.4476 59.1813C40.9029 59.1813 35.5783 53.8566 35.5783 47.3121C35.5783 40.7672 40.9029 35.4427 47.4476 35.4427C47.8348 35.4427 48.2216 35.462 48.6065 35.5C48.6062 35.5006 48.6058 35.5013 48.6056 35.5019C47.8935 36.7344 47.5623 38.0935 47.5623 39.3927C47.5623 42.3513 49.2172 44.9307 51.65 46.254C54.0857 47.5788 56.972 47.4726 59.2536 46.1565C59.2556 46.1554 59.2578 46.1543 59.2599 46.1532C59.2979 46.5383 59.3171 46.9251 59.3171 47.3121C59.3168 53.8566 53.9923 59.1813 47.4476 59.1813V59.1813ZM59.1457 42.6986C59.1431 42.7014 59.1401 42.7038 59.1377 42.7066C56.0644 46.1984 50.3422 43.9884 50.3422 39.3927C50.3422 36.6484 52.578 34.368 55.3668 34.368C59.6884 34.368 61.9699 39.4748 59.1457 42.6986V42.6986Z" fill="#592F72"/>
<path d="M94.7048 46.6068C94.5618 46.3613 91.1126 40.5216 83.5487 34.5657C79.1179 31.077 74.1838 28.2725 68.8831 26.2298C61.8904 23.5354 53.951 22.1926 47.4802 22.1846C47.4773 22.1846 47.4745 22.1844 47.4715 22.1844C47.468 22.1844 47.4645 22.1844 47.4611 22.1844C47.4563 22.1844 47.4517 22.1842 47.4469 22.1842C47.4421 22.1842 47.4374 22.1844 47.4326 22.1844C47.4291 22.1844 47.4256 22.1844 47.4222 22.1844C47.4187 22.1844 47.4154 22.1846 47.4119 22.1846C36.9987 22.1991 25.6012 25.1612 15.9526 31.2987C15.3049 31.7107 15.1138 32.5698 15.5258 33.2177C15.9378 33.8653 16.7968 34.0564 17.4448 33.6445C22.1547 30.6485 27.2598 28.4206 32.7155 26.9701C26.4241 31.5402 22.3248 38.953 22.3248 47.3065C22.3248 55.6366 26.4012 63.0315 32.6629 67.6045C24.0203 65.2832 17.5532 61.3803 13.1638 57.9409C7.45942 53.4711 4.17075 48.9925 3.03999 47.3067C4.11496 45.7035 7.13563 41.5819 12.3211 37.3465C12.9156 36.8609 13.0039 35.985 12.5183 35.3906C12.0325 34.7961 11.1571 34.7076 10.5624 35.1934C3.53744 40.9317 0.322352 46.3781 0.188908 46.607C-0.0629692 47.0394 -0.0629692 47.5741 0.188908 48.0065C0.33199 48.2521 3.78098 54.0918 11.3451 60.0477C15.7758 63.5363 20.7101 66.3409 26.0107 68.3835C33.0033 71.078 40.9427 72.4208 47.4135 72.4288C47.4165 72.4288 47.4193 72.4289 47.4222 72.4289C47.4304 72.4291 47.4387 72.4291 47.4469 72.4291C47.455 72.4291 47.4634 72.4291 47.4715 72.4289C47.4741 72.4289 47.4769 72.4288 47.4795 72.4288C50.1471 72.4254 53.7942 72.0251 53.7942 72.0251C65.3007 70.7409 75.5012 66.56 84.1125 59.5981C84.7097 59.1154 84.8023 58.2403 84.3195 57.6433C83.8371 57.0461 82.9619 56.9536 82.3647 57.4362C76.4066 62.2529 69.6411 65.6694 62.1742 67.6466C68.4679 63.0769 72.5691 55.6624 72.5691 47.3071C72.5691 38.977 68.4928 31.5821 62.2311 27.009C70.8735 29.3304 77.3405 33.2333 81.7299 36.6726C87.4349 41.1428 90.7236 45.6218 91.8541 47.3076C91.1348 48.3818 89.5465 50.5827 87.0321 53.1757C86.4976 53.7269 86.5112 54.6068 87.0624 55.141C87.613 55.6755 88.4936 55.6622 89.0277 55.1108C92.8099 51.2105 94.6272 48.1392 94.7026 48.0102C94.9565 47.5771 94.9577 47.0405 94.7048 46.6068V46.6068ZM69.789 47.3067C69.789 58.9497 60.6857 69.4079 47.4469 69.6487C34.2468 69.4092 25.1049 58.9827 25.1049 47.3067C25.1049 35.6862 34.1817 25.2053 47.4469 24.9647C60.647 25.204 69.789 35.6305 69.789 47.3067Z" fill="#592F72"/>
<path d="M47.4476 32.6626C39.3699 32.6626 32.7982 39.2344 32.7982 47.3121C32.7982 55.3898 39.3699 61.9614 47.4476 61.9614C55.5253 61.9614 62.0969 55.3898 62.0969 47.3121C62.0969 46.1797 61.9623 45.0506 61.7002 43.9452C62.6247 42.6627 63.1717 41.0908 63.1717 39.3925C63.1717 35.0889 59.6704 31.5879 55.367 31.5879C53.6689 31.5879 52.097 32.1346 50.8145 33.0591C49.7095 32.7972 48.5804 32.6626 47.4476 32.6626V32.6626ZM47.4476 59.1813C40.9029 59.1813 35.5783 53.8566 35.5783 47.3121C35.5783 40.7672 40.9029 35.4427 47.4476 35.4427C47.8348 35.4427 48.2216 35.462 48.6065 35.5C48.6062 35.5006 48.6058 35.5013 48.6056 35.5019C47.8935 36.7344 47.5623 38.0935 47.5623 39.3927C47.5623 42.3513 49.2172 44.9307 51.65 46.254C54.0857 47.5788 56.972 47.4726 59.2536 46.1565C59.2556 46.1554 59.2578 46.1543 59.2599 46.1532C59.2979 46.5383 59.3171 46.9251 59.3171 47.3121C59.3168 53.8566 53.9923 59.1813 47.4476 59.1813V59.1813ZM59.1457 42.6986C59.1431 42.7014 59.1401 42.7038 59.1377 42.7066C56.0644 46.1984 50.3422 43.9884 50.3422 39.3927C50.3422 36.6484 52.578 34.368 55.3668 34.368C59.6884 34.368 61.9699 39.4748 59.1457 42.6986V42.6986Z" fill="#592F72"/>
<path d="M88.8309 46.7896C88.6967 46.5404 85.4617 40.6129 78.3676 34.5675C74.2121 31.0264 69.5844 28.1797 64.6129 26.1064C58.0545 23.3714 50.6082 22.0085 44.5393 22.0004C44.5366 22.0004 44.534 22.0002 44.5312 22.0002C44.5279 22.0002 44.5246 22.0002 44.5214 22.0002C44.5169 22.0002 44.5126 22 44.5081 22C44.5035 22 44.4992 22.0002 44.4947 22.0002C44.4914 22.0002 44.4881 22.0002 44.4849 22.0002C44.4816 22.0002 44.4785 22.0004 44.4752 22.0004C34.7088 22.015 24.0192 25.0217 14.9699 31.2514C14.3623 31.6696 14.1831 32.5416 14.5696 33.1993C14.956 33.8566 15.7617 34.0505 16.3694 33.6325C20.7867 30.5915 25.5748 28.33 30.6916 26.8578C24.791 31.4966 20.9463 39.0208 20.9463 47.4998C20.9463 55.9551 24.7695 63.4611 30.6423 68.1029C22.5365 65.7466 16.4711 61.7851 12.3543 58.2941C7.00418 53.757 3.91977 49.2112 2.85924 47.5C3.86744 45.8727 6.7005 41.6892 11.5639 37.3901C12.1215 36.8973 12.2043 36.0082 11.7488 35.4049C11.2932 34.8014 10.4722 34.7116 9.91442 35.2047C3.32579 41.0292 0.310388 46.5575 0.185231 46.7898C-0.0510016 47.2287 -0.0510016 47.7715 0.185231 48.2104C0.319427 48.4596 3.5542 54.3871 10.6485 60.4325C14.804 63.9736 19.4319 66.8203 24.4032 68.8936C30.9616 71.6286 38.4079 72.9915 44.4768 72.9996C44.4795 72.9996 44.4822 72.9998 44.4849 72.9998C44.4926 73 44.5004 73 44.5081 73C44.5157 73 44.5235 73 44.5312 72.9998C44.5336 72.9998 44.5362 72.9996 44.5386 72.9996C47.0406 72.9962 50.4612 72.5899 50.4612 72.5899C61.253 71.2864 70.82 67.0426 78.8964 59.9761C79.4565 59.4862 79.5434 58.5979 79.0906 57.9919C78.6381 57.3858 77.8173 57.2919 77.2572 57.7818C71.6691 62.6708 65.3239 66.1387 58.3207 68.1456C64.2235 63.5072 68.07 55.9813 68.07 47.5004C68.07 39.0451 64.2468 31.5391 58.374 26.8973C66.4796 29.2535 72.545 33.2151 76.6618 36.7061C82.0124 41.2435 85.0969 45.7898 86.1572 47.5009C85.4826 48.5913 83.9929 50.8253 81.6347 53.4572C81.1334 54.0167 81.1461 54.9099 81.6631 55.4521C82.1795 55.9946 83.0054 55.9811 83.5063 55.4214C87.0537 51.4625 88.758 48.3451 88.8288 48.2141C89.0669 47.7745 89.068 47.2299 88.8309 46.7896V46.7896ZM65.4626 47.5C65.4626 59.318 56.9246 69.9334 44.5081 70.1777C32.1278 69.9347 23.5537 59.3515 23.5537 47.5C23.5537 35.7049 32.0668 25.0664 44.5081 24.8223C56.8883 25.0651 65.4626 35.6483 65.4626 47.5Z" fill="#592F72"/>
<path d="M44.5088 32.6359C36.9328 32.6359 30.7692 39.3064 30.7692 47.5055C30.7692 55.7046 36.9328 62.3749 44.5088 62.3749C52.0847 62.3749 58.2482 55.7046 58.2482 47.5055C58.2482 46.3561 58.122 45.21 57.8762 44.088C58.7432 42.7862 59.2562 41.1907 59.2562 39.4669C59.2562 35.0986 55.9724 31.545 51.9363 31.545C50.3437 31.545 48.8694 32.0999 47.6665 33.0383C46.6302 32.7725 45.5712 32.6359 44.5088 32.6359V32.6359ZM44.5088 59.553C38.3705 59.553 33.3766 54.1484 33.3766 47.5055C33.3766 40.8622 38.3705 35.4578 44.5088 35.4578C44.8719 35.4578 45.2347 35.4773 45.5957 35.5159C45.5954 35.5165 45.595 35.5172 45.5948 35.5178C44.927 36.7688 44.6164 38.1483 44.6164 39.4671C44.6164 42.4701 46.1685 45.0883 48.4501 46.4315C50.7346 47.7762 53.4416 47.6684 55.5815 46.3325C55.5834 46.3314 55.5855 46.3303 55.5874 46.3291C55.623 46.7201 55.6411 47.1127 55.6411 47.5055C55.6407 54.1484 50.647 59.553 44.5088 59.553V59.553ZM55.4803 42.8227C55.4779 42.8255 55.4751 42.828 55.4728 42.8308C52.5904 46.3751 47.2236 44.1318 47.2236 39.4671C47.2236 36.6815 49.3205 34.3668 51.9361 34.3668C55.9893 34.3668 58.1291 39.5504 55.4803 42.8227V42.8227Z" fill="#592F72"/>
<path d="M94.7048 46.6068C94.5618 46.3613 91.1126 40.5216 83.5487 34.5657C79.1179 31.077 74.1838 28.2725 68.8831 26.2298C61.8904 23.5354 53.951 22.1926 47.4802 22.1846C47.4773 22.1846 47.4745 22.1844 47.4715 22.1844C47.468 22.1844 47.4645 22.1844 47.4611 22.1844C47.4563 22.1844 47.4517 22.1842 47.4469 22.1842C47.4421 22.1842 47.4374 22.1844 47.4326 22.1844C47.4291 22.1844 47.4256 22.1844 47.4222 22.1844C47.4187 22.1844 47.4154 22.1846 47.4119 22.1846C36.9987 22.1991 25.6012 25.1612 15.9526 31.2987C15.3049 31.7107 15.1138 32.5698 15.5258 33.2177C15.9378 33.8653 16.7968 34.0564 17.4448 33.6445C22.1547 30.6485 27.2598 28.4206 32.7155 26.9701C26.4241 31.5402 22.3248 38.953 22.3248 47.3065C22.3248 55.6366 26.4012 63.0315 32.6629 67.6045C24.0203 65.2832 17.5532 61.3803 13.1638 57.9409C7.45942 53.4711 4.17075 48.9925 3.03999 47.3067C4.11496 45.7035 7.13563 41.5819 12.3211 37.3465C12.9156 36.8609 13.0039 35.985 12.5183 35.3906C12.0325 34.7961 11.1571 34.7076 10.5624 35.1934C3.53744 40.9317 0.322352 46.3781 0.188908 46.607C-0.0629692 47.0394 -0.0629692 47.5741 0.188908 48.0065C0.33199 48.2521 3.78098 54.0918 11.3451 60.0477C15.7758 63.5363 20.7101 66.3409 26.0107 68.3835C33.0033 71.078 40.9427 72.4208 47.4135 72.4288C47.4165 72.4288 47.4193 72.4289 47.4222 72.4289C47.4304 72.4291 47.4387 72.4291 47.4469 72.4291C47.455 72.4291 47.4634 72.4291 47.4715 72.4289C47.4741 72.4289 47.4769 72.4288 47.4795 72.4288C50.1471 72.4254 53.7942 72.0251 53.7942 72.0251C65.3007 70.7409 75.5012 66.56 84.1125 59.5981C84.7097 59.1154 84.8023 58.2403 84.3195 57.6433C83.8371 57.0461 82.9619 56.9536 82.3647 57.4362C76.4066 62.2529 69.6411 65.6694 62.1742 67.6466C68.4679 63.0769 72.5691 55.6624 72.5691 47.3071C72.5691 38.977 68.4928 31.5821 62.2311 27.009C70.8735 29.3304 77.3405 33.2333 81.7299 36.6726C87.4349 41.1428 90.7236 45.6218 91.8541 47.3076C91.1348 48.3818 89.5465 50.5827 87.0321 53.1757C86.4976 53.7269 86.5112 54.6068 87.0624 55.141C87.613 55.6755 88.4936 55.6622 89.0277 55.1108C92.8099 51.2105 94.6272 48.1392 94.7026 48.0102C94.9565 47.5771 94.9577 47.0405 94.7048 46.6068V46.6068ZM69.789 47.3067C69.789 58.9497 60.6857 69.4079 47.4469 69.6487C34.2468 69.4092 25.1049 58.9827 25.1049 47.3067C25.1049 35.6862 34.1817 25.2053 47.4469 24.9647C60.647 25.204 69.789 35.6305 69.789 47.3067Z" fill="#592F72"/>
<path d="M47.4476 32.6626C39.3699 32.6626 32.7982 39.2344 32.7982 47.3121C32.7982 55.3898 39.3699 61.9614 47.4476 61.9614C55.5253 61.9614 62.0969 55.3898 62.0969 47.3121C62.0969 46.1797 61.9623 45.0506 61.7002 43.9452C62.6247 42.6627 63.1717 41.0908 63.1717 39.3925C63.1717 35.0889 59.6704 31.5879 55.367 31.5879C53.6689 31.5879 52.097 32.1346 50.8145 33.0591C49.7095 32.7972 48.5804 32.6626 47.4476 32.6626V32.6626ZM47.4476 59.1813C40.9029 59.1813 35.5783 53.8566 35.5783 47.3121C35.5783 40.7672 40.9029 35.4427 47.4476 35.4427C47.8348 35.4427 48.2216 35.462 48.6065 35.5C48.6062 35.5006 48.6058 35.5013 48.6056 35.5019C47.8935 36.7344 47.5623 38.0935 47.5623 39.3927C47.5623 42.3513 49.2172 44.9307 51.65 46.254C54.0857 47.5788 56.972 47.4726 59.2536 46.1565C59.2556 46.1554 59.2578 46.1543 59.2599 46.1532C59.2979 46.5383 59.3171 46.9251 59.3171 47.3121C59.3168 53.8566 53.9923 59.1813 47.4476 59.1813V59.1813ZM59.1457 42.6986C59.1431 42.7014 59.1401 42.7038 59.1377 42.7066C56.0644 46.1984 50.3422 43.9884 50.3422 39.3927C50.3422 36.6484 52.578 34.368 55.3668 34.368C59.6884 34.368 61.9699 39.4748 59.1457 42.6986V42.6986Z" fill="#592F72"/>
<path d="M94.7048 46.6068C94.5618 46.3613 91.1126 40.5216 83.5487 34.5657C79.1179 31.077 74.1838 28.2725 68.8831 26.2298C61.8904 23.5354 53.951 22.1926 47.4802 22.1846C47.4773 22.1846 47.4745 22.1844 47.4715 22.1844C47.468 22.1844 47.4645 22.1844 47.4611 22.1844C47.4563 22.1844 47.4517 22.1842 47.4469 22.1842C47.4421 22.1842 47.4374 22.1844 47.4326 22.1844C47.4291 22.1844 47.4256 22.1844 47.4222 22.1844C47.4187 22.1844 47.4154 22.1846 47.4119 22.1846C36.9987 22.1991 25.6012 25.1612 15.9526 31.2987C15.3049 31.7107 15.1138 32.5698 15.5258 33.2177C15.9378 33.8653 16.7968 34.0564 17.4448 33.6445C22.1547 30.6485 27.2598 28.4206 32.7155 26.9701C26.4241 31.5402 22.3248 38.953 22.3248 47.3065C22.3248 55.6366 26.4012 63.0315 32.6629 67.6045C24.0203 65.2832 17.5532 61.3803 13.1638 57.9409C7.45942 53.4711 4.17075 48.9925 3.03999 47.3067C4.11496 45.7035 7.13563 41.5819 12.3211 37.3465C12.9156 36.8609 13.0039 35.985 12.5183 35.3906C12.0325 34.7961 11.1571 34.7076 10.5624 35.1934C3.53744 40.9317 0.322352 46.3781 0.188908 46.607C-0.0629692 47.0394 -0.0629692 47.5741 0.188908 48.0065C0.33199 48.2521 3.78098 54.0918 11.3451 60.0477C15.7758 63.5363 20.7101 66.3409 26.0107 68.3835C33.0033 71.078 40.9427 72.4208 47.4135 72.4288C47.4165 72.4288 47.4193 72.4289 47.4222 72.4289C47.4304 72.4291 47.4387 72.4291 47.4469 72.4291C47.455 72.4291 47.4634 72.4291 47.4715 72.4289C47.4741 72.4289 47.4769 72.4288 47.4795 72.4288C50.1471 72.4254 53.7942 72.0251 53.7942 72.0251C65.3007 70.7409 75.5012 66.56 84.1125 59.5981C84.7097 59.1154 84.8023 58.2403 84.3195 57.6433C83.8371 57.0461 82.9619 56.9536 82.3647 57.4362C76.4066 62.2529 69.6411 65.6694 62.1742 67.6466C68.4679 63.0769 72.5691 55.6624 72.5691 47.3071C72.5691 38.977 68.4928 31.5821 62.2311 27.009C70.8735 29.3304 77.3405 33.2333 81.7299 36.6726C87.4349 41.1428 90.7236 45.6218 91.8541 47.3076C91.1348 48.3818 89.5465 50.5827 87.0321 53.1757C86.4976 53.7269 86.5112 54.6068 87.0624 55.141C87.613 55.6755 88.4936 55.6622 89.0277 55.1108C92.8099 51.2105 94.6272 48.1392 94.7026 48.0102C94.9565 47.5771 94.9577 47.0405 94.7048 46.6068V46.6068ZM69.789 47.3067C69.789 58.9497 60.6857 69.4079 47.4469 69.6487C34.2468 69.4092 25.1049 58.9827 25.1049 47.3067C25.1049 35.6862 34.1817 25.2053 47.4469 24.9647C60.647 25.204 69.789 35.6305 69.789 47.3067Z" fill="#592F72"/>
<path d="M47.4476 32.6626C39.3699 32.6626 32.7982 39.2344 32.7982 47.3121C32.7982 55.3898 39.3699 61.9614 47.4476 61.9614C55.5253 61.9614 62.0969 55.3898 62.0969 47.3121C62.0969 46.1797 61.9623 45.0506 61.7002 43.9452C62.6247 42.6627 63.1717 41.0908 63.1717 39.3925C63.1717 35.0889 59.6704 31.5879 55.367 31.5879C53.6689 31.5879 52.097 32.1346 50.8145 33.0591C49.7095 32.7972 48.5804 32.6626 47.4476 32.6626V32.6626ZM47.4476 59.1813C40.9029 59.1813 35.5783 53.8566 35.5783 47.3121C35.5783 40.7672 40.9029 35.4427 47.4476 35.4427C47.8348 35.4427 48.2216 35.462 48.6065 35.5C48.6062 35.5006 48.6058 35.5013 48.6056 35.5019C47.8935 36.7344 47.5623 38.0935 47.5623 39.3927C47.5623 42.3513 49.2172 44.9307 51.65 46.254C54.0857 47.5788 56.972 47.4726 59.2536 46.1565C59.2556 46.1554 59.2578 46.1543 59.2599 46.1532C59.2979 46.5383 59.3171 46.9251 59.3171 47.3121C59.3168 53.8566 53.9923 59.1813 47.4476 59.1813V59.1813ZM59.1457 42.6986C59.1431 42.7014 59.1401 42.7038 59.1377 42.7066C56.0644 46.1984 50.3422 43.9884 50.3422 39.3927C50.3422 36.6484 52.578 34.368 55.3668 34.368C59.6884 34.368 61.9699 39.4748 59.1457 42.6986V42.6986Z" fill="#592F72"/>
</g>
<defs>
<clipPath id="clip0_3_1237">
<rect width="94" height="94" fill="white"/>
</clipPath>
</defs>
</svg>
